%TF.GenerationSoftware,KiCad,Pcbnew,8.0.4*%
%TF.CreationDate,2024-08-20T22:26:35+10:00*%
%TF.ProjectId,banana17_main,62616e61-6e61-4313-975f-6d61696e2e6b,rev?*%
%TF.SameCoordinates,Original*%
%TF.FileFunction,Legend,Bot*%
%TF.FilePolarity,Positive*%
%FSLAX46Y46*%
G04 Gerber Fmt 4.6, Leading zero omitted, Abs format (unit mm)*
G04 Created by KiCad (PCBNEW 8.0.4) date 2024-08-20 22:26:35*
%MOMM*%
%LPD*%
G01*
G04 APERTURE LIST*
%ADD10C,0.100000*%
%ADD11C,0.200000*%
%ADD12C,0.125000*%
%ADD13C,0.120000*%
G04 APERTURE END LIST*
D10*
X93900000Y-55700000D02*
X95000000Y-55700000D01*
X95000000Y-63500000D01*
X93900000Y-63500000D01*
X93900000Y-55700000D01*
G36*
X93900000Y-55700000D02*
G01*
X95000000Y-55700000D01*
X95000000Y-63500000D01*
X93900000Y-63500000D01*
X93900000Y-55700000D01*
G37*
D11*
G36*
X94225933Y-101528967D02*
G01*
X94276976Y-101535812D01*
X94324393Y-101552437D01*
X94368185Y-101578841D01*
X94372352Y-101581999D01*
X94408902Y-101616727D01*
X94438364Y-101661540D01*
X94455380Y-101708290D01*
X94482193Y-101664131D01*
X94521289Y-101624161D01*
X94568800Y-101596625D01*
X94616221Y-101582921D01*
X94669825Y-101578353D01*
X94685127Y-101578723D01*
X94735425Y-101585849D01*
X94786697Y-101605098D01*
X94831344Y-101636193D01*
X94864975Y-101673119D01*
X94869348Y-101679094D01*
X94896070Y-101724685D01*
X94915991Y-101776867D01*
X94927651Y-101826842D01*
X94934315Y-101881659D01*
X94936050Y-101931039D01*
X94936050Y-102297404D01*
X93920000Y-102297404D01*
X93920000Y-101913698D01*
X94060683Y-101913698D01*
X94060683Y-102148415D01*
X94373314Y-102148415D01*
X94373314Y-101932260D01*
X94513998Y-101932260D01*
X94513998Y-102148415D01*
X94795366Y-102148415D01*
X94795366Y-101944717D01*
X94795059Y-101922251D01*
X94791239Y-101868808D01*
X94781723Y-101819924D01*
X94760439Y-101773258D01*
X94748760Y-101759397D01*
X94707113Y-101733084D01*
X94656636Y-101725143D01*
X94633737Y-101726353D01*
X94584190Y-101740830D01*
X94546971Y-101774724D01*
X94542978Y-101781121D01*
X94524431Y-101829160D01*
X94516059Y-101881840D01*
X94513998Y-101932260D01*
X94373314Y-101932260D01*
X94373314Y-101931039D01*
X94372396Y-101888525D01*
X94368025Y-101836437D01*
X94357115Y-101782210D01*
X94335701Y-101735401D01*
X94314269Y-101712320D01*
X94267720Y-101688878D01*
X94216999Y-101682644D01*
X94171967Y-101688285D01*
X94121744Y-101715136D01*
X94090603Y-101755751D01*
X94073048Y-101802007D01*
X94063126Y-101859545D01*
X94060683Y-101913698D01*
X93920000Y-101913698D01*
X93920000Y-101912477D01*
X93920669Y-101878349D01*
X93924762Y-101824885D01*
X93932576Y-101775691D01*
X93946864Y-101722293D01*
X93966511Y-101675044D01*
X93996203Y-101627690D01*
X94021645Y-101599193D01*
X94062733Y-101567411D01*
X94110202Y-101545097D01*
X94164052Y-101532249D01*
X94215289Y-101528771D01*
X94225933Y-101528967D01*
G37*
G36*
X94936050Y-100522735D02*
G01*
X94349134Y-100925491D01*
X93920000Y-100925491D01*
X93920000Y-101074480D01*
X94349134Y-101074480D01*
X94936050Y-101477236D01*
X94936050Y-101296008D01*
X94482735Y-100999253D01*
X94936050Y-100703963D01*
X94936050Y-100522735D01*
G37*
G36*
X93904368Y-99611953D02*
G01*
X93906604Y-99665790D01*
X93913313Y-99717024D01*
X93924495Y-99765655D01*
X93944762Y-99822783D01*
X93972018Y-99875845D01*
X94006262Y-99924841D01*
X94047494Y-99969769D01*
X94084802Y-100001883D01*
X94125041Y-100029716D01*
X94168211Y-100053266D01*
X94214312Y-100072534D01*
X94263344Y-100087521D01*
X94315307Y-100098226D01*
X94370200Y-100104649D01*
X94428025Y-100106789D01*
X94486013Y-100104675D01*
X94541033Y-100098333D01*
X94593083Y-100087761D01*
X94642165Y-100072962D01*
X94688277Y-100053934D01*
X94731420Y-100030677D01*
X94781174Y-99995660D01*
X94808799Y-99971479D01*
X94849962Y-99927061D01*
X94884147Y-99878528D01*
X94911356Y-99825881D01*
X94931588Y-99769120D01*
X94942751Y-99720748D01*
X94949449Y-99669744D01*
X94951681Y-99616106D01*
X94949457Y-99559841D01*
X94942785Y-99506607D01*
X94931664Y-99456401D01*
X94916094Y-99409224D01*
X94891539Y-99356611D01*
X94860579Y-99308360D01*
X94823934Y-99266059D01*
X94782326Y-99231297D01*
X94735754Y-99204075D01*
X94684220Y-99184391D01*
X94627723Y-99172247D01*
X94607787Y-99169874D01*
X94607787Y-99323991D01*
X94657781Y-99332555D01*
X94706542Y-99352444D01*
X94747383Y-99383190D01*
X94770209Y-99409720D01*
X94797482Y-99457054D01*
X94814232Y-99505941D01*
X94823929Y-99561239D01*
X94826629Y-99614884D01*
X94822971Y-99669951D01*
X94811997Y-99720844D01*
X94793708Y-99767564D01*
X94768102Y-99810111D01*
X94735181Y-99848485D01*
X94722581Y-99860348D01*
X94680598Y-99891890D01*
X94632502Y-99916906D01*
X94578291Y-99935396D01*
X94528446Y-99945819D01*
X94474354Y-99951711D01*
X94428025Y-99953161D01*
X94370736Y-99950865D01*
X94317634Y-99943978D01*
X94268717Y-99932499D01*
X94215543Y-99912664D01*
X94168396Y-99886217D01*
X94133712Y-99859127D01*
X94098269Y-99821838D01*
X94070159Y-99780496D01*
X94049382Y-99735101D01*
X94035939Y-99685654D01*
X94029828Y-99632153D01*
X94029420Y-99613419D01*
X94031584Y-99561681D01*
X94040375Y-99501936D01*
X94055927Y-99447665D01*
X94078242Y-99398868D01*
X94107318Y-99355544D01*
X94143157Y-99317695D01*
X94167906Y-99297613D01*
X94310788Y-99297613D01*
X94310788Y-99563349D01*
X94451472Y-99563349D01*
X94451472Y-99152777D01*
X93920000Y-99152777D01*
X93920000Y-99260244D01*
X94017941Y-99292728D01*
X93979344Y-99333123D01*
X93948732Y-99382499D01*
X93929323Y-99430507D01*
X93915459Y-99484752D01*
X93907141Y-99545234D01*
X93904479Y-99598111D01*
X93904368Y-99611953D01*
G37*
G36*
X93920000Y-98803021D02*
G01*
X93920000Y-98959337D01*
X94076315Y-98959337D01*
X94076315Y-98803021D01*
X93920000Y-98803021D01*
G37*
G36*
X93920000Y-97736413D02*
G01*
X93920000Y-97931807D01*
X94414591Y-98286203D01*
X94270976Y-98433970D01*
X93920000Y-98433970D01*
X93920000Y-98582958D01*
X94936050Y-98582958D01*
X94936050Y-98433970D01*
X94451228Y-98433970D01*
X94936050Y-97953789D01*
X94936050Y-97751311D01*
X94516685Y-98182156D01*
X93920000Y-97736413D01*
G37*
G36*
X93920000Y-97481179D02*
G01*
X93920000Y-97637494D01*
X94076315Y-97637494D01*
X94076315Y-97481179D01*
X93920000Y-97481179D01*
G37*
G36*
X93904368Y-96831493D02*
G01*
X93906581Y-96884410D01*
X93913222Y-96934594D01*
X93927748Y-96993482D01*
X93949190Y-97048100D01*
X93977550Y-97098449D01*
X94012827Y-97144528D01*
X94046029Y-97178318D01*
X94092707Y-97215610D01*
X94144203Y-97246582D01*
X94188869Y-97266808D01*
X94236618Y-97282989D01*
X94287451Y-97295125D01*
X94341368Y-97303215D01*
X94398368Y-97307261D01*
X94428025Y-97307766D01*
X94486567Y-97305744D01*
X94542025Y-97299676D01*
X94594400Y-97289563D01*
X94643691Y-97275404D01*
X94689899Y-97257201D01*
X94743322Y-97228757D01*
X94791927Y-97193993D01*
X94810020Y-97178318D01*
X94850831Y-97135654D01*
X94884724Y-97088721D01*
X94911701Y-97037518D01*
X94931760Y-96982046D01*
X94944903Y-96922304D01*
X94950436Y-96871437D01*
X94951681Y-96831493D01*
X94949433Y-96780561D01*
X94942689Y-96732026D01*
X94928661Y-96676948D01*
X94908159Y-96625322D01*
X94881183Y-96577148D01*
X94859602Y-96546950D01*
X94822693Y-96506318D01*
X94781028Y-96472899D01*
X94734606Y-96446692D01*
X94683426Y-96427698D01*
X94627490Y-96415917D01*
X94607787Y-96413593D01*
X94607787Y-96566489D01*
X94656987Y-96574839D01*
X94705293Y-96593685D01*
X94746142Y-96622538D01*
X94769232Y-96647334D01*
X94796978Y-96690915D01*
X94815643Y-96740602D01*
X94824611Y-96789893D01*
X94826629Y-96830027D01*
X94823005Y-96883975D01*
X94812135Y-96933525D01*
X94790293Y-96985778D01*
X94758586Y-97032047D01*
X94723558Y-97066943D01*
X94681839Y-97096576D01*
X94633799Y-97120077D01*
X94579440Y-97137448D01*
X94529313Y-97147240D01*
X94474797Y-97152775D01*
X94428025Y-97154138D01*
X94370197Y-97152027D01*
X94316699Y-97145694D01*
X94267529Y-97135140D01*
X94214240Y-97116902D01*
X94167185Y-97092584D01*
X94132735Y-97067676D01*
X94097624Y-97033006D01*
X94065843Y-96987109D01*
X94043949Y-96935346D01*
X94033052Y-96886307D01*
X94029420Y-96832958D01*
X94033099Y-96778111D01*
X94044136Y-96728850D01*
X94065347Y-96680110D01*
X94088283Y-96647090D01*
X94125972Y-96612176D01*
X94172819Y-96586845D01*
X94222148Y-96572374D01*
X94263893Y-96566489D01*
X94263893Y-96413593D01*
X94210990Y-96420823D01*
X94162189Y-96432894D01*
X94109043Y-96453771D01*
X94061805Y-96481621D01*
X94020475Y-96516442D01*
X93996203Y-96543531D01*
X93964994Y-96588482D01*
X93940241Y-96637606D01*
X93921946Y-96690903D01*
X93910108Y-96748374D01*
X93905175Y-96799454D01*
X93904368Y-96831493D01*
G37*
D12*
G36*
X93954368Y-65507362D02*
G01*
X93955872Y-65558927D01*
X93961980Y-65618662D01*
X93972787Y-65673149D01*
X93988293Y-65722389D01*
X94013103Y-65774550D01*
X94044679Y-65819155D01*
X94050600Y-65825854D01*
X94088702Y-65861827D01*
X94130650Y-65890792D01*
X94176446Y-65912751D01*
X94226088Y-65927704D01*
X94279577Y-65935649D01*
X94298262Y-65936741D01*
X94298262Y-65808269D01*
X94245979Y-65798575D01*
X94195882Y-65776759D01*
X94155020Y-65743389D01*
X94132909Y-65714724D01*
X94109508Y-65670791D01*
X94092793Y-65622522D01*
X94082763Y-65569918D01*
X94079473Y-65520334D01*
X94079420Y-65512979D01*
X94082168Y-65459765D01*
X94091828Y-65406394D01*
X94108443Y-65359902D01*
X94123384Y-65332728D01*
X94157332Y-65293792D01*
X94202859Y-65269750D01*
X94242819Y-65264340D01*
X94294096Y-65272710D01*
X94337923Y-65300931D01*
X94362498Y-65335170D01*
X94383559Y-65382970D01*
X94399806Y-65431341D01*
X94413639Y-65480597D01*
X94427386Y-65537049D01*
X94436503Y-65578681D01*
X94448568Y-65630264D01*
X94464871Y-65685882D01*
X94483166Y-65734649D01*
X94507028Y-65782883D01*
X94537620Y-65826587D01*
X94577408Y-65862952D01*
X94623959Y-65887415D01*
X94677271Y-65899977D01*
X94709811Y-65901814D01*
X94760720Y-65897127D01*
X94813778Y-65880294D01*
X94861371Y-65851217D01*
X94898532Y-65815733D01*
X94908381Y-65803872D01*
X94938644Y-65757961D01*
X94961475Y-65705925D01*
X94975128Y-65656449D01*
X94983319Y-65602473D01*
X94986050Y-65543998D01*
X94984154Y-65492339D01*
X94976872Y-65434613D01*
X94964129Y-65381542D01*
X94945926Y-65333125D01*
X94922261Y-65289361D01*
X94908381Y-65269225D01*
X94871338Y-65228200D01*
X94828172Y-65196596D01*
X94778881Y-65174412D01*
X94723466Y-65161647D01*
X94689050Y-65158583D01*
X94689050Y-65288276D01*
X94738586Y-65299663D01*
X94786946Y-65326865D01*
X94823216Y-65368837D01*
X94844206Y-65415095D01*
X94856799Y-65471610D01*
X94860829Y-65524206D01*
X94860997Y-65538381D01*
X94858509Y-65590832D01*
X94849762Y-65642395D01*
X94832655Y-65690442D01*
X94821186Y-65710816D01*
X94787835Y-65748025D01*
X94743411Y-65768955D01*
X94715917Y-65771877D01*
X94667144Y-65762480D01*
X94628064Y-65731557D01*
X94621884Y-65722784D01*
X94598711Y-65673977D01*
X94581692Y-65621639D01*
X94568669Y-65571609D01*
X94561311Y-65539357D01*
X94550421Y-65490932D01*
X94537737Y-65439362D01*
X94523269Y-65386922D01*
X94507029Y-65336211D01*
X94503426Y-65326133D01*
X94482465Y-65278916D01*
X94455302Y-65236183D01*
X94421938Y-65197935D01*
X94414521Y-65190823D01*
X94372938Y-65161070D01*
X94323293Y-65142337D01*
X94271719Y-65134899D01*
X94253077Y-65134403D01*
X94198856Y-65139358D01*
X94148819Y-65154225D01*
X94102966Y-65179002D01*
X94061297Y-65213690D01*
X94039364Y-65237962D01*
X94010479Y-65278912D01*
X93987570Y-65324275D01*
X93970637Y-65374052D01*
X93959680Y-65428242D01*
X93954700Y-65486846D01*
X93954368Y-65507362D01*
G37*
G36*
X94970418Y-64676203D02*
G01*
X93970000Y-64967341D01*
X93970000Y-65066992D01*
X94970418Y-64775854D01*
X94970418Y-64676203D01*
G37*
G36*
X93970000Y-63774947D02*
G01*
X93970000Y-63911479D01*
X94759637Y-64439043D01*
X93970000Y-64439043D01*
X93970000Y-64565561D01*
X94970418Y-64565561D01*
X94970418Y-64429518D01*
X94180781Y-63901953D01*
X94970418Y-63901953D01*
X94970418Y-63774947D01*
X93970000Y-63774947D01*
G37*
D10*
X114402782Y-57761809D02*
X114259925Y-57809428D01*
X114259925Y-57809428D02*
X114212306Y-57857047D01*
X114212306Y-57857047D02*
X114164687Y-57952285D01*
X114164687Y-57952285D02*
X114164687Y-58095142D01*
X114164687Y-58095142D02*
X114212306Y-58190380D01*
X114212306Y-58190380D02*
X114259925Y-58238000D01*
X114259925Y-58238000D02*
X114355163Y-58285619D01*
X114355163Y-58285619D02*
X114736115Y-58285619D01*
X114736115Y-58285619D02*
X114736115Y-57285619D01*
X114736115Y-57285619D02*
X114402782Y-57285619D01*
X114402782Y-57285619D02*
X114307544Y-57333238D01*
X114307544Y-57333238D02*
X114259925Y-57380857D01*
X114259925Y-57380857D02*
X114212306Y-57476095D01*
X114212306Y-57476095D02*
X114212306Y-57571333D01*
X114212306Y-57571333D02*
X114259925Y-57666571D01*
X114259925Y-57666571D02*
X114307544Y-57714190D01*
X114307544Y-57714190D02*
X114402782Y-57761809D01*
X114402782Y-57761809D02*
X114736115Y-57761809D01*
X113545639Y-57285619D02*
X113355163Y-57285619D01*
X113355163Y-57285619D02*
X113259925Y-57333238D01*
X113259925Y-57333238D02*
X113164687Y-57428476D01*
X113164687Y-57428476D02*
X113117068Y-57618952D01*
X113117068Y-57618952D02*
X113117068Y-57952285D01*
X113117068Y-57952285D02*
X113164687Y-58142761D01*
X113164687Y-58142761D02*
X113259925Y-58238000D01*
X113259925Y-58238000D02*
X113355163Y-58285619D01*
X113355163Y-58285619D02*
X113545639Y-58285619D01*
X113545639Y-58285619D02*
X113640877Y-58238000D01*
X113640877Y-58238000D02*
X113736115Y-58142761D01*
X113736115Y-58142761D02*
X113783734Y-57952285D01*
X113783734Y-57952285D02*
X113783734Y-57618952D01*
X113783734Y-57618952D02*
X113736115Y-57428476D01*
X113736115Y-57428476D02*
X113640877Y-57333238D01*
X113640877Y-57333238D02*
X113545639Y-57285619D01*
X112498020Y-57285619D02*
X112307544Y-57285619D01*
X112307544Y-57285619D02*
X112212306Y-57333238D01*
X112212306Y-57333238D02*
X112117068Y-57428476D01*
X112117068Y-57428476D02*
X112069449Y-57618952D01*
X112069449Y-57618952D02*
X112069449Y-57952285D01*
X112069449Y-57952285D02*
X112117068Y-58142761D01*
X112117068Y-58142761D02*
X112212306Y-58238000D01*
X112212306Y-58238000D02*
X112307544Y-58285619D01*
X112307544Y-58285619D02*
X112498020Y-58285619D01*
X112498020Y-58285619D02*
X112593258Y-58238000D01*
X112593258Y-58238000D02*
X112688496Y-58142761D01*
X112688496Y-58142761D02*
X112736115Y-57952285D01*
X112736115Y-57952285D02*
X112736115Y-57618952D01*
X112736115Y-57618952D02*
X112688496Y-57428476D01*
X112688496Y-57428476D02*
X112593258Y-57333238D01*
X112593258Y-57333238D02*
X112498020Y-57285619D01*
X111783734Y-57285619D02*
X111212306Y-57285619D01*
X111498020Y-58285619D02*
X111498020Y-57285619D01*
D12*
G36*
X96110194Y-65124605D02*
G01*
X96159658Y-65132762D01*
X96206262Y-65148647D01*
X96250006Y-65172260D01*
X96259204Y-65178472D01*
X96299008Y-65213625D01*
X96328508Y-65255600D01*
X96347704Y-65304396D01*
X96358684Y-65354551D01*
X96365427Y-65404452D01*
X96369331Y-65459361D01*
X96370418Y-65511514D01*
X96370418Y-65887404D01*
X95370000Y-65887404D01*
X95370000Y-65754047D01*
X95776420Y-65754047D01*
X95776420Y-65500523D01*
X95776445Y-65499302D01*
X95901472Y-65499302D01*
X95901472Y-65754047D01*
X96245366Y-65754047D01*
X96245366Y-65501988D01*
X96244805Y-65465792D01*
X96241656Y-65416800D01*
X96233642Y-65368387D01*
X96214042Y-65326072D01*
X96178199Y-65291939D01*
X96172653Y-65288272D01*
X96127834Y-65268308D01*
X96077327Y-65261653D01*
X96032528Y-65265981D01*
X95986327Y-65283025D01*
X95946657Y-65316364D01*
X95926888Y-65348222D01*
X95911400Y-65395120D01*
X95903634Y-65446637D01*
X95901472Y-65499302D01*
X95776445Y-65499302D01*
X95777102Y-65466892D01*
X95781274Y-65414229D01*
X95789238Y-65365799D01*
X95803801Y-65313271D01*
X95823825Y-65266840D01*
X95854089Y-65220376D01*
X95885748Y-65187424D01*
X95929086Y-65157596D01*
X95979321Y-65137048D01*
X96027867Y-65126821D01*
X96081479Y-65123412D01*
X96110194Y-65124605D01*
G37*
G36*
X95354368Y-64532588D02*
G01*
X95356543Y-64584669D01*
X95363069Y-64634056D01*
X95377344Y-64692001D01*
X95398418Y-64745735D01*
X95426288Y-64795260D01*
X95460957Y-64840575D01*
X95493586Y-64873796D01*
X95539489Y-64910455D01*
X95590186Y-64940900D01*
X95645678Y-64965133D01*
X95693523Y-64980045D01*
X95744436Y-64990981D01*
X95798417Y-64997940D01*
X95855467Y-65000922D01*
X95870209Y-65001046D01*
X95928026Y-64999058D01*
X95982774Y-64993093D01*
X96034455Y-64983152D01*
X96083066Y-64969234D01*
X96128610Y-64951339D01*
X96181225Y-64923379D01*
X96229045Y-64889205D01*
X96246831Y-64873796D01*
X96286938Y-64831849D01*
X96320247Y-64785692D01*
X96346759Y-64735325D01*
X96366472Y-64680748D01*
X96379388Y-64621962D01*
X96384826Y-64571902D01*
X96386050Y-64532588D01*
X96383843Y-64482490D01*
X96375371Y-64425520D01*
X96360545Y-64371985D01*
X96339365Y-64321885D01*
X96311830Y-64275219D01*
X96295680Y-64253175D01*
X96259856Y-64213407D01*
X96219980Y-64180749D01*
X96176051Y-64155201D01*
X96128068Y-64136762D01*
X96076033Y-64125434D01*
X96057787Y-64123237D01*
X96057787Y-64260502D01*
X96110988Y-64270409D01*
X96157659Y-64290787D01*
X96197799Y-64321637D01*
X96217278Y-64343300D01*
X96245968Y-64388275D01*
X96265269Y-64439394D01*
X96274542Y-64489990D01*
X96276629Y-64531123D01*
X96272920Y-64586393D01*
X96261791Y-64637163D01*
X96243244Y-64683433D01*
X96217278Y-64725204D01*
X96183893Y-64762476D01*
X96171116Y-64773900D01*
X96128463Y-64804197D01*
X96079456Y-64828225D01*
X96024095Y-64845985D01*
X95973107Y-64855997D01*
X95917706Y-64861656D01*
X95870209Y-64863049D01*
X95811477Y-64860884D01*
X95757099Y-64854391D01*
X95707073Y-64843568D01*
X95652788Y-64824866D01*
X95604771Y-64799931D01*
X95569546Y-64774389D01*
X95533605Y-64738926D01*
X95505100Y-64699032D01*
X95484031Y-64654708D01*
X95470399Y-64605953D01*
X95464202Y-64552767D01*
X95463789Y-64534054D01*
X95466699Y-64484509D01*
X95477152Y-64433211D01*
X95495207Y-64387591D01*
X95524605Y-64343056D01*
X95562930Y-64307001D01*
X95609484Y-64280992D01*
X95657776Y-64266307D01*
X95698262Y-64260502D01*
X95698262Y-64123237D01*
X95648784Y-64130126D01*
X95594195Y-64144689D01*
X95544828Y-64166121D01*
X95500681Y-64194423D01*
X95461755Y-64229594D01*
X95444249Y-64249755D01*
X95413704Y-64293782D01*
X95389478Y-64341965D01*
X95371572Y-64394303D01*
X95359986Y-64450798D01*
X95355158Y-64501051D01*
X95354368Y-64532588D01*
G37*
G36*
X95662646Y-63191254D02*
G01*
X95712458Y-63196950D01*
X95763230Y-63214180D01*
X95805729Y-63239811D01*
X95821391Y-63252668D01*
X95854936Y-63291523D01*
X95878275Y-63334690D01*
X95895122Y-63385624D01*
X95899607Y-63376713D01*
X95929626Y-63329189D01*
X95964969Y-63291848D01*
X96012931Y-63261156D01*
X96059808Y-63245880D01*
X96112009Y-63240788D01*
X96119470Y-63240878D01*
X96168903Y-63246543D01*
X96219415Y-63263808D01*
X96263547Y-63292583D01*
X96301297Y-63332868D01*
X96328230Y-63376437D01*
X96348548Y-63426574D01*
X96360698Y-63474777D01*
X96367988Y-63527805D01*
X96370418Y-63585659D01*
X96370418Y-63944207D01*
X95370000Y-63944207D01*
X95370000Y-63568318D01*
X95495052Y-63568318D01*
X95495052Y-63810851D01*
X95823314Y-63810851D01*
X95823314Y-63586880D01*
X95948367Y-63586880D01*
X95948367Y-63810851D01*
X96245366Y-63810851D01*
X96245366Y-63599337D01*
X96245042Y-63576411D01*
X96241008Y-63521720D01*
X96230959Y-63471395D01*
X96208485Y-63422749D01*
X96193467Y-63405484D01*
X96148474Y-63379091D01*
X96098820Y-63371946D01*
X96065648Y-63374448D01*
X96019005Y-63390373D01*
X95983049Y-63424214D01*
X95974920Y-63438136D01*
X95958155Y-63485867D01*
X95950534Y-63535223D01*
X95948367Y-63586880D01*
X95823314Y-63586880D01*
X95823314Y-63585659D01*
X95821923Y-63534248D01*
X95816784Y-63482299D01*
X95806274Y-63433519D01*
X95783747Y-63384891D01*
X95754686Y-63355654D01*
X95707974Y-63334863D01*
X95659183Y-63329448D01*
X95649085Y-63329681D01*
X95595230Y-63340878D01*
X95552914Y-63368871D01*
X95522140Y-63413659D01*
X95505310Y-63463812D01*
X95497616Y-63512333D01*
X95495052Y-63568318D01*
X95370000Y-63568318D01*
X95370000Y-63567096D01*
X95370652Y-63533470D01*
X95374640Y-63480833D01*
X95382254Y-63432453D01*
X95396175Y-63380017D01*
X95415318Y-63333712D01*
X95444249Y-63287438D01*
X95469033Y-63259715D01*
X95509039Y-63228797D01*
X95555239Y-63207089D01*
X95607633Y-63194590D01*
X95657473Y-63191207D01*
X95662646Y-63191254D01*
G37*
G36*
X95666999Y-62700523D02*
G01*
X95666999Y-63078367D01*
X95792051Y-63078367D01*
X95792051Y-62700523D01*
X95666999Y-62700523D01*
G37*
G36*
X95370000Y-61947522D02*
G01*
X95370000Y-62614549D01*
X95420195Y-62610048D01*
X95469115Y-62596543D01*
X95516761Y-62574035D01*
X95542679Y-62557641D01*
X95586322Y-62523126D01*
X95622160Y-62489446D01*
X95660660Y-62449086D01*
X95694776Y-62410350D01*
X95730741Y-62366974D01*
X95745645Y-62348325D01*
X95782157Y-62303117D01*
X95816285Y-62262596D01*
X95854089Y-62220158D01*
X95888458Y-62184469D01*
X95928942Y-62147382D01*
X95938108Y-62139986D01*
X95980026Y-62112712D01*
X96030182Y-62092877D01*
X96078544Y-62084447D01*
X96101018Y-62083565D01*
X96153143Y-62089251D01*
X96200593Y-62108422D01*
X96229734Y-62131681D01*
X96258311Y-62173264D01*
X96272920Y-62221036D01*
X96276629Y-62266992D01*
X96271001Y-62316310D01*
X96252025Y-62364252D01*
X96229002Y-62396196D01*
X96190976Y-62427458D01*
X96142388Y-62447694D01*
X96089050Y-62456524D01*
X96089050Y-62590369D01*
X96137877Y-62583586D01*
X96190001Y-62568943D01*
X96236913Y-62547054D01*
X96278612Y-62517919D01*
X96305205Y-62492672D01*
X96336706Y-62452013D01*
X96360470Y-62406119D01*
X96376497Y-62354988D01*
X96384787Y-62298621D01*
X96386050Y-62264061D01*
X96383250Y-62210062D01*
X96374853Y-62160906D01*
X96357979Y-62109679D01*
X96333486Y-62065043D01*
X96306427Y-62032030D01*
X96264218Y-61996233D01*
X96216973Y-61970664D01*
X96164689Y-61955323D01*
X96114809Y-61950289D01*
X96107369Y-61950209D01*
X96054841Y-61953995D01*
X96005458Y-61965352D01*
X95959220Y-61984281D01*
X95916127Y-62010781D01*
X95876805Y-62042890D01*
X95838171Y-62079509D01*
X95802499Y-62116440D01*
X95763667Y-62159203D01*
X95730326Y-62197612D01*
X95694962Y-62239753D01*
X95685806Y-62250872D01*
X95650554Y-62293000D01*
X95611074Y-62337921D01*
X95576685Y-62374244D01*
X95537097Y-62410650D01*
X95495052Y-62433810D01*
X95495052Y-61947522D01*
X95370000Y-61947522D01*
G37*
G36*
X95713893Y-61298080D02*
G01*
X96386050Y-61298080D01*
X96386050Y-61399685D01*
X95713893Y-61857885D01*
X95604473Y-61857885D01*
X95604473Y-61736985D01*
X95713893Y-61736985D01*
X96180153Y-61427773D01*
X95713893Y-61427773D01*
X95713893Y-61736985D01*
X95604473Y-61736985D01*
X95604473Y-61427773D01*
X95370000Y-61427773D01*
X95370000Y-61298080D01*
X95604473Y-61298080D01*
X95604473Y-61162037D01*
X95713893Y-61162037D01*
X95713893Y-61298080D01*
G37*
G36*
X95666999Y-60677215D02*
G01*
X95666999Y-61055059D01*
X95792051Y-61055059D01*
X95792051Y-60677215D01*
X95666999Y-60677215D01*
G37*
G36*
X95931386Y-59916460D02*
G01*
X95989987Y-59920307D01*
X96044547Y-59926718D01*
X96095065Y-59935694D01*
X96163264Y-59953966D01*
X96222371Y-59978009D01*
X96272384Y-60007822D01*
X96313304Y-60043405D01*
X96345130Y-60084758D01*
X96367863Y-60131882D01*
X96381503Y-60184776D01*
X96386050Y-60243440D01*
X96381503Y-60302017D01*
X96367863Y-60354832D01*
X96345130Y-60401885D01*
X96313304Y-60443177D01*
X96272384Y-60478707D01*
X96222371Y-60508476D01*
X96163264Y-60532483D01*
X96095065Y-60550728D01*
X96044547Y-60559690D01*
X95989987Y-60566092D01*
X95931386Y-60569933D01*
X95868743Y-60571214D01*
X95806456Y-60569933D01*
X95748187Y-60566092D01*
X95693936Y-60559690D01*
X95643704Y-60550728D01*
X95575891Y-60532483D01*
X95517120Y-60508476D01*
X95467390Y-60478707D01*
X95426702Y-60443177D01*
X95395056Y-60401885D01*
X95372451Y-60354832D01*
X95358889Y-60302017D01*
X95354387Y-60243684D01*
X95463789Y-60243684D01*
X95464572Y-60261056D01*
X95478502Y-60313224D01*
X95509843Y-60356568D01*
X95552937Y-60388032D01*
X95558658Y-60391067D01*
X95606213Y-60409617D01*
X95657429Y-60421758D01*
X95707483Y-60429226D01*
X95764238Y-60434285D01*
X95814468Y-60436598D01*
X95868988Y-60437369D01*
X95883050Y-60437320D01*
X95936625Y-60436164D01*
X95985919Y-60433466D01*
X96041514Y-60427925D01*
X96090418Y-60419975D01*
X96140273Y-60407256D01*
X96186259Y-60388032D01*
X96207440Y-60374930D01*
X96244770Y-60340290D01*
X96269481Y-60293416D01*
X96276629Y-60243684D01*
X96275835Y-60226184D01*
X96261714Y-60173710D01*
X96229944Y-60130252D01*
X96186259Y-60098848D01*
X96180492Y-60095798D01*
X96132633Y-60077156D01*
X96081173Y-60064955D01*
X96030930Y-60057450D01*
X95973997Y-60052366D01*
X95923633Y-60050041D01*
X95868988Y-60049267D01*
X95854956Y-60049315D01*
X95801508Y-60050477D01*
X95752351Y-60053189D01*
X95696936Y-60058757D01*
X95648223Y-60066746D01*
X95598615Y-60079529D01*
X95552937Y-60098848D01*
X95532043Y-60111904D01*
X95495217Y-60146553D01*
X95470841Y-60193617D01*
X95463789Y-60243684D01*
X95354387Y-60243684D01*
X95354368Y-60243440D01*
X95358889Y-60184776D01*
X95372451Y-60131882D01*
X95395056Y-60084758D01*
X95426702Y-60043405D01*
X95467390Y-60007822D01*
X95517120Y-59978009D01*
X95575891Y-59953966D01*
X95643704Y-59935694D01*
X95693936Y-59926718D01*
X95748187Y-59920307D01*
X95806456Y-59916460D01*
X95868743Y-59915177D01*
X95931386Y-59916460D01*
G37*
G36*
X95931386Y-59137814D02*
G01*
X95989987Y-59141660D01*
X96044547Y-59148072D01*
X96095065Y-59157048D01*
X96163264Y-59175320D01*
X96222371Y-59199363D01*
X96272384Y-59229176D01*
X96313304Y-59264759D01*
X96345130Y-59306112D01*
X96367863Y-59353236D01*
X96381503Y-59406130D01*
X96386050Y-59464794D01*
X96381503Y-59523370D01*
X96367863Y-59576186D01*
X96345130Y-59623239D01*
X96313304Y-59664531D01*
X96272384Y-59700061D01*
X96222371Y-59729830D01*
X96163264Y-59753836D01*
X96095065Y-59772082D01*
X96044547Y-59781044D01*
X95989987Y-59787446D01*
X95931386Y-59791287D01*
X95868743Y-59792568D01*
X95806456Y-59791287D01*
X95748187Y-59787446D01*
X95693936Y-59781044D01*
X95643704Y-59772082D01*
X95575891Y-59753836D01*
X95517120Y-59729830D01*
X95467390Y-59700061D01*
X95426702Y-59664531D01*
X95395056Y-59623239D01*
X95372451Y-59576186D01*
X95358889Y-59523370D01*
X95354387Y-59465038D01*
X95463789Y-59465038D01*
X95464572Y-59482409D01*
X95478502Y-59534578D01*
X95509843Y-59577922D01*
X95552937Y-59609385D01*
X95558658Y-59612421D01*
X95606213Y-59630970D01*
X95657429Y-59643112D01*
X95707483Y-59650580D01*
X95764238Y-59655639D01*
X95814468Y-59657952D01*
X95868988Y-59658722D01*
X95883050Y-59658674D01*
X95936625Y-59657518D01*
X95985919Y-59654820D01*
X96041514Y-59649279D01*
X96090418Y-59641329D01*
X96140273Y-59628610D01*
X96186259Y-59609385D01*
X96207440Y-59596284D01*
X96244770Y-59561643D01*
X96269481Y-59514770D01*
X96276629Y-59465038D01*
X96275835Y-59447538D01*
X96261714Y-59395063D01*
X96229944Y-59351605D01*
X96186259Y-59320202D01*
X96180492Y-59317151D01*
X96132633Y-59298510D01*
X96081173Y-59286308D01*
X96030930Y-59278803D01*
X95973997Y-59273719D01*
X95923633Y-59271395D01*
X95868988Y-59270621D01*
X95854956Y-59270669D01*
X95801508Y-59271831D01*
X95752351Y-59274543D01*
X95696936Y-59280111D01*
X95648223Y-59288100D01*
X95598615Y-59300883D01*
X95552937Y-59320202D01*
X95532043Y-59333257D01*
X95495217Y-59367907D01*
X95470841Y-59414971D01*
X95463789Y-59465038D01*
X95354387Y-59465038D01*
X95354368Y-59464794D01*
X95358889Y-59406130D01*
X95372451Y-59353236D01*
X95395056Y-59306112D01*
X95426702Y-59264759D01*
X95467390Y-59229176D01*
X95517120Y-59199363D01*
X95575891Y-59175320D01*
X95643704Y-59157048D01*
X95693936Y-59148072D01*
X95748187Y-59141660D01*
X95806456Y-59137814D01*
X95868743Y-59136531D01*
X95931386Y-59137814D01*
G37*
G36*
X95931386Y-58359167D02*
G01*
X95989987Y-58363014D01*
X96044547Y-58369426D01*
X96095065Y-58378401D01*
X96163264Y-58396674D01*
X96222371Y-58420717D01*
X96272384Y-58450529D01*
X96313304Y-58486113D01*
X96345130Y-58527466D01*
X96367863Y-58574590D01*
X96381503Y-58627483D01*
X96386050Y-58686147D01*
X96381503Y-58744724D01*
X96367863Y-58797539D01*
X96345130Y-58844593D01*
X96313304Y-58885885D01*
X96272384Y-58921415D01*
X96222371Y-58951183D01*
X96163264Y-58975190D01*
X96095065Y-58993435D01*
X96044547Y-59002398D01*
X95989987Y-59008800D01*
X95931386Y-59012641D01*
X95868743Y-59013921D01*
X95806456Y-59012641D01*
X95748187Y-59008800D01*
X95693936Y-59002398D01*
X95643704Y-58993435D01*
X95575891Y-58975190D01*
X95517120Y-58951183D01*
X95467390Y-58921415D01*
X95426702Y-58885885D01*
X95395056Y-58844593D01*
X95372451Y-58797539D01*
X95358889Y-58744724D01*
X95354387Y-58686392D01*
X95463789Y-58686392D01*
X95464572Y-58703763D01*
X95478502Y-58755932D01*
X95509843Y-58799276D01*
X95552937Y-58830739D01*
X95558658Y-58833775D01*
X95606213Y-58852324D01*
X95657429Y-58864466D01*
X95707483Y-58871934D01*
X95764238Y-58876993D01*
X95814468Y-58879305D01*
X95868988Y-58880076D01*
X95883050Y-58880028D01*
X95936625Y-58878872D01*
X95985919Y-58876174D01*
X96041514Y-58870633D01*
X96090418Y-58862683D01*
X96140273Y-58849963D01*
X96186259Y-58830739D01*
X96207440Y-58817638D01*
X96244770Y-58782997D01*
X96269481Y-58736123D01*
X96276629Y-58686392D01*
X96275835Y-58668891D01*
X96261714Y-58616417D01*
X96229944Y-58572959D01*
X96186259Y-58541556D01*
X96180492Y-58538505D01*
X96132633Y-58519864D01*
X96081173Y-58507662D01*
X96030930Y-58500157D01*
X95973997Y-58495073D01*
X95923633Y-58492749D01*
X95868988Y-58491974D01*
X95854956Y-58492023D01*
X95801508Y-58493185D01*
X95752351Y-58495896D01*
X95696936Y-58501465D01*
X95648223Y-58509454D01*
X95598615Y-58522236D01*
X95552937Y-58541556D01*
X95532043Y-58554611D01*
X95495217Y-58589261D01*
X95470841Y-58636325D01*
X95463789Y-58686392D01*
X95354387Y-58686392D01*
X95354368Y-58686147D01*
X95358889Y-58627483D01*
X95372451Y-58574590D01*
X95395056Y-58527466D01*
X95426702Y-58486113D01*
X95467390Y-58450529D01*
X95517120Y-58420717D01*
X95575891Y-58396674D01*
X95643704Y-58378401D01*
X95693936Y-58369426D01*
X95748187Y-58363014D01*
X95806456Y-58359167D01*
X95868743Y-58357885D01*
X95931386Y-58359167D01*
G37*
G36*
X95370000Y-57770969D02*
G01*
X95370000Y-57900174D01*
X96143517Y-57900174D01*
X96119688Y-57944733D01*
X96104422Y-57992513D01*
X96094369Y-58048497D01*
X96089901Y-58103014D01*
X96089050Y-58142707D01*
X96198471Y-58142707D01*
X96201402Y-58086577D01*
X96210195Y-58036767D01*
X96229429Y-57983391D01*
X96257822Y-57939890D01*
X96295375Y-57906264D01*
X96342086Y-57882512D01*
X96386050Y-57870621D01*
X96386050Y-57770969D01*
X95370000Y-57770969D01*
G37*
G36*
X95666999Y-57096615D02*
G01*
X95666999Y-57474459D01*
X95792051Y-57474459D01*
X95792051Y-57096615D01*
X95666999Y-57096615D01*
G37*
G36*
X95931386Y-56335860D02*
G01*
X95989987Y-56339706D01*
X96044547Y-56346118D01*
X96095065Y-56355094D01*
X96163264Y-56373366D01*
X96222371Y-56397409D01*
X96272384Y-56427222D01*
X96313304Y-56462805D01*
X96345130Y-56504158D01*
X96367863Y-56551282D01*
X96381503Y-56604176D01*
X96386050Y-56662840D01*
X96381503Y-56721416D01*
X96367863Y-56774232D01*
X96345130Y-56821285D01*
X96313304Y-56862577D01*
X96272384Y-56898107D01*
X96222371Y-56927876D01*
X96163264Y-56951883D01*
X96095065Y-56970128D01*
X96044547Y-56979090D01*
X95989987Y-56985492D01*
X95931386Y-56989333D01*
X95868743Y-56990614D01*
X95806456Y-56989333D01*
X95748187Y-56985492D01*
X95693936Y-56979090D01*
X95643704Y-56970128D01*
X95575891Y-56951883D01*
X95517120Y-56927876D01*
X95467390Y-56898107D01*
X95426702Y-56862577D01*
X95395056Y-56821285D01*
X95372451Y-56774232D01*
X95358889Y-56721416D01*
X95354387Y-56663084D01*
X95463789Y-56663084D01*
X95464572Y-56680455D01*
X95478502Y-56732624D01*
X95509843Y-56775968D01*
X95552937Y-56807431D01*
X95558658Y-56810467D01*
X95606213Y-56829016D01*
X95657429Y-56841158D01*
X95707483Y-56848626D01*
X95764238Y-56853685D01*
X95814468Y-56855998D01*
X95868988Y-56856769D01*
X95883050Y-56856720D01*
X95936625Y-56855564D01*
X95985919Y-56852866D01*
X96041514Y-56847325D01*
X96090418Y-56839375D01*
X96140273Y-56826656D01*
X96186259Y-56807431D01*
X96207440Y-56794330D01*
X96244770Y-56759689D01*
X96269481Y-56712816D01*
X96276629Y-56663084D01*
X96275835Y-56645584D01*
X96261714Y-56593110D01*
X96229944Y-56549652D01*
X96186259Y-56518248D01*
X96180492Y-56515198D01*
X96132633Y-56496556D01*
X96081173Y-56484354D01*
X96030930Y-56476849D01*
X95973997Y-56471765D01*
X95923633Y-56469441D01*
X95868988Y-56468667D01*
X95854956Y-56468715D01*
X95801508Y-56469877D01*
X95752351Y-56472589D01*
X95696936Y-56478157D01*
X95648223Y-56486146D01*
X95598615Y-56498929D01*
X95552937Y-56518248D01*
X95532043Y-56531303D01*
X95495217Y-56565953D01*
X95470841Y-56613017D01*
X95463789Y-56663084D01*
X95354387Y-56663084D01*
X95354368Y-56662840D01*
X95358889Y-56604176D01*
X95372451Y-56551282D01*
X95395056Y-56504158D01*
X95426702Y-56462805D01*
X95467390Y-56427222D01*
X95517120Y-56397409D01*
X95575891Y-56373366D01*
X95643704Y-56355094D01*
X95693936Y-56346118D01*
X95748187Y-56339706D01*
X95806456Y-56335860D01*
X95868743Y-56334577D01*
X95931386Y-56335860D01*
G37*
G36*
X95370000Y-55747662D02*
G01*
X95370000Y-55876866D01*
X96143517Y-55876866D01*
X96119688Y-55921425D01*
X96104422Y-55969205D01*
X96094369Y-56025189D01*
X96089901Y-56079706D01*
X96089050Y-56119399D01*
X96198471Y-56119399D01*
X96201402Y-56063269D01*
X96210195Y-56013459D01*
X96229429Y-55960083D01*
X96257822Y-55916582D01*
X96295375Y-55882956D01*
X96342086Y-55859204D01*
X96386050Y-55847313D01*
X96386050Y-55747662D01*
X95370000Y-55747662D01*
G37*
D11*
G36*
X95685921Y-106883866D02*
G01*
X95689766Y-107014583D01*
X95701300Y-107136848D01*
X95726533Y-107277791D01*
X95763780Y-107405527D01*
X95813043Y-107520054D01*
X95888019Y-107640053D01*
X95931995Y-107692920D01*
X96029919Y-107784969D01*
X96139134Y-107859158D01*
X96259641Y-107915486D01*
X96391439Y-107953954D01*
X96534529Y-107974562D01*
X96584734Y-107977463D01*
X96584734Y-107618426D01*
X96450553Y-107594307D01*
X96336217Y-107548206D01*
X96231310Y-107470067D01*
X96167079Y-107390059D01*
X96104504Y-107269416D01*
X96066074Y-107150500D01*
X96043825Y-107020594D01*
X96037630Y-106897909D01*
X96044194Y-106767736D01*
X96067271Y-106637803D01*
X96112399Y-106513941D01*
X96142655Y-106460104D01*
X96223865Y-106366589D01*
X96332043Y-106308844D01*
X96426587Y-106295851D01*
X96547815Y-106315981D01*
X96652086Y-106383859D01*
X96711130Y-106466210D01*
X96762011Y-106582855D01*
X96801653Y-106702363D01*
X96835677Y-106824844D01*
X96869745Y-106965830D01*
X96892480Y-107070101D01*
X96922745Y-107199545D01*
X96956678Y-107317301D01*
X97002237Y-107443182D01*
X97062064Y-107568771D01*
X97129079Y-107671453D01*
X97149546Y-107696584D01*
X97239839Y-107781000D01*
X97358024Y-107847139D01*
X97477837Y-107880302D01*
X97594068Y-107889535D01*
X97725171Y-107877527D01*
X97845464Y-107841500D01*
X97954946Y-107781456D01*
X98053617Y-107697395D01*
X98105146Y-107638576D01*
X98182709Y-107520859D01*
X98234028Y-107407772D01*
X98271352Y-107283438D01*
X98294679Y-107147854D01*
X98304010Y-107001022D01*
X98304204Y-106975457D01*
X98299344Y-106844224D01*
X98284765Y-106721101D01*
X98254439Y-106584057D01*
X98210118Y-106458692D01*
X98151800Y-106345005D01*
X98105146Y-106275701D01*
X98024202Y-106184231D01*
X97913272Y-106099819D01*
X97784577Y-106039424D01*
X97660128Y-106006774D01*
X97522627Y-105991769D01*
X97522627Y-106353248D01*
X97646466Y-106381298D01*
X97767366Y-106447701D01*
X97858041Y-106549825D01*
X97910515Y-106662215D01*
X97941999Y-106799411D01*
X97952074Y-106927028D01*
X97952494Y-106961413D01*
X97946579Y-107089678D01*
X97925783Y-107215092D01*
X97885116Y-107330988D01*
X97857850Y-107379678D01*
X97771177Y-107474166D01*
X97655972Y-107522051D01*
X97609333Y-107525614D01*
X97488521Y-107499988D01*
X97393667Y-107416163D01*
X97388904Y-107408988D01*
X97333291Y-107290864D01*
X97291919Y-107162037D01*
X97259942Y-107037996D01*
X97241748Y-106957749D01*
X97214478Y-106836784D01*
X97182609Y-106707651D01*
X97146115Y-106575884D01*
X97104969Y-106447809D01*
X97095812Y-106422247D01*
X97042349Y-106302498D01*
X96972785Y-106193603D01*
X96887121Y-106095560D01*
X96868056Y-106077254D01*
X96761069Y-106000618D01*
X96646936Y-105955913D01*
X96515898Y-105934200D01*
X96452233Y-105931929D01*
X96312848Y-105944610D01*
X96184274Y-105982652D01*
X96066511Y-106046056D01*
X95959558Y-106134822D01*
X95903297Y-106196933D01*
X95829423Y-106301826D01*
X95770833Y-106417753D01*
X95727528Y-106544714D01*
X95699507Y-106682709D01*
X95687831Y-106806133D01*
X95685921Y-106883866D01*
G37*
G36*
X97913415Y-103692222D02*
G01*
X97913415Y-104525090D01*
X95725000Y-104525090D01*
X95725000Y-104899392D01*
X97913415Y-104899392D01*
X97913415Y-105724933D01*
X98265125Y-105724933D01*
X98265125Y-103692222D01*
X97913415Y-103692222D01*
G37*
G36*
X95685921Y-102376974D02*
G01*
X95690125Y-102510476D01*
X95702736Y-102633155D01*
X95728968Y-102766084D01*
X95767308Y-102883428D01*
X95827339Y-103000631D01*
X95858112Y-103044368D01*
X95948253Y-103145271D01*
X96045874Y-103225718D01*
X96164638Y-103291771D01*
X96263555Y-103325247D01*
X96384608Y-103350893D01*
X96514515Y-103369211D01*
X96653275Y-103380202D01*
X96781953Y-103383808D01*
X96800889Y-103383866D01*
X98265125Y-103383866D01*
X98265125Y-103011395D01*
X96815544Y-103011395D01*
X96673467Y-103007475D01*
X96547580Y-102995713D01*
X96417886Y-102971248D01*
X96296041Y-102928434D01*
X96186008Y-102850806D01*
X96114282Y-102748152D01*
X96066031Y-102621542D01*
X96042847Y-102488887D01*
X96037630Y-102376974D01*
X96044730Y-102247236D01*
X96070233Y-102116852D01*
X96121093Y-101992979D01*
X96186008Y-101903143D01*
X96296041Y-101825219D01*
X96417886Y-101782243D01*
X96547580Y-101757685D01*
X96673467Y-101745879D01*
X96815544Y-101741943D01*
X98265125Y-101741943D01*
X98265125Y-101368251D01*
X96800889Y-101368251D01*
X96663592Y-101370979D01*
X96537923Y-101379164D01*
X96402468Y-101396187D01*
X96265600Y-101425977D01*
X96137087Y-101473118D01*
X96123115Y-101479993D01*
X96008505Y-101551536D01*
X95911282Y-101641143D01*
X95831448Y-101748814D01*
X95794609Y-101816437D01*
X95747058Y-101935734D01*
X95713093Y-102068923D01*
X95694518Y-102196858D01*
X95686345Y-102335429D01*
X95685921Y-102376974D01*
G37*
G36*
X97085808Y-98739028D02*
G01*
X97233069Y-98749203D01*
X97370513Y-98769553D01*
X97498139Y-98800079D01*
X97671171Y-98864946D01*
X97822114Y-98952707D01*
X97950968Y-99063362D01*
X98057732Y-99196912D01*
X98142407Y-99353355D01*
X98186586Y-99470370D01*
X98220947Y-99597560D01*
X98245490Y-99734925D01*
X98260216Y-99882465D01*
X98265125Y-100040181D01*
X98265125Y-100858394D01*
X95725000Y-100858394D01*
X95725000Y-100046898D01*
X96076709Y-100046898D01*
X96076709Y-100485924D01*
X97913415Y-100485924D01*
X97913415Y-100046898D01*
X97911349Y-99948629D01*
X97898723Y-99798419D01*
X97874617Y-99665173D01*
X97830539Y-99527672D01*
X97769932Y-99414600D01*
X97678332Y-99313558D01*
X97648166Y-99290119D01*
X97530303Y-99219991D01*
X97414068Y-99174624D01*
X97283794Y-99142868D01*
X97139481Y-99124722D01*
X97008496Y-99119996D01*
X96953496Y-99120754D01*
X96822946Y-99129287D01*
X96679391Y-99152042D01*
X96550133Y-99188450D01*
X96435172Y-99238510D01*
X96319120Y-99314169D01*
X96236738Y-99399091D01*
X96171401Y-99508228D01*
X96123108Y-99641579D01*
X96095884Y-99771201D01*
X96080497Y-99917640D01*
X96076709Y-100046898D01*
X95725000Y-100046898D01*
X95725000Y-100040181D01*
X95730013Y-99882465D01*
X95745054Y-99734925D01*
X95770122Y-99597560D01*
X95805218Y-99470370D01*
X95850341Y-99353355D01*
X95936827Y-99196912D01*
X96045874Y-99063362D01*
X96177482Y-98952707D01*
X96331652Y-98864946D01*
X96446966Y-98819158D01*
X96572308Y-98783544D01*
X96707676Y-98758106D01*
X96853072Y-98742844D01*
X97008496Y-98737756D01*
X97085808Y-98739028D01*
G37*
G36*
X95725000Y-97917711D02*
G01*
X95725000Y-98291402D01*
X98265125Y-98291402D01*
X98265125Y-97917711D01*
X95725000Y-97917711D01*
G37*
G36*
X97138927Y-95034281D02*
G01*
X97275598Y-95050338D01*
X97405075Y-95077099D01*
X97527359Y-95114566D01*
X97642449Y-95162737D01*
X97750345Y-95221613D01*
X97851048Y-95291194D01*
X97944556Y-95371479D01*
X98048166Y-95483106D01*
X98134214Y-95604273D01*
X98202702Y-95734981D01*
X98253629Y-95875230D01*
X98281726Y-95994298D01*
X98298584Y-96119473D01*
X98304204Y-96250753D01*
X98298584Y-96382492D01*
X98281726Y-96508124D01*
X98244848Y-96656578D01*
X98190409Y-96795491D01*
X98118409Y-96924863D01*
X98028849Y-97044695D01*
X97944556Y-97133691D01*
X97851048Y-97214263D01*
X97750345Y-97284091D01*
X97642449Y-97343177D01*
X97527359Y-97391520D01*
X97405075Y-97429120D01*
X97275598Y-97455977D01*
X97138927Y-97472091D01*
X96995062Y-97477463D01*
X96851608Y-97472091D01*
X96715252Y-97455977D01*
X96585994Y-97429120D01*
X96463834Y-97391520D01*
X96348773Y-97343177D01*
X96240810Y-97284091D01*
X96139945Y-97214263D01*
X96046179Y-97133691D01*
X95942394Y-97021492D01*
X95856199Y-96899752D01*
X95787595Y-96768472D01*
X95736582Y-96627650D01*
X95708437Y-96508124D01*
X95691550Y-96382492D01*
X95686051Y-96253806D01*
X95998551Y-96253806D01*
X95999577Y-96299096D01*
X96014962Y-96428898D01*
X96048807Y-96549598D01*
X96101114Y-96661196D01*
X96171883Y-96763692D01*
X96261113Y-96857086D01*
X96348261Y-96925162D01*
X96466299Y-96991623D01*
X96599020Y-97041469D01*
X96720838Y-97070314D01*
X96852852Y-97087622D01*
X96995062Y-97093391D01*
X97110057Y-97089680D01*
X97244489Y-97074602D01*
X97368575Y-97047927D01*
X97503822Y-97000607D01*
X97624171Y-96936587D01*
X97729623Y-96855865D01*
X97761343Y-96825652D01*
X97844226Y-96728744D01*
X97908690Y-96622434D01*
X97954736Y-96506722D01*
X97982364Y-96381607D01*
X97991573Y-96247090D01*
X97990550Y-96202103D01*
X97975201Y-96073181D01*
X97941434Y-95953318D01*
X97889249Y-95842515D01*
X97818645Y-95740770D01*
X97729623Y-95648084D01*
X97642781Y-95580360D01*
X97524915Y-95514242D01*
X97392151Y-95464654D01*
X97270134Y-95435958D01*
X97137771Y-95418740D01*
X96995062Y-95413000D01*
X96880058Y-95416692D01*
X96745588Y-95431692D01*
X96621433Y-95458230D01*
X96486064Y-95505307D01*
X96365550Y-95568998D01*
X96259891Y-95649305D01*
X96228245Y-95679287D01*
X96145555Y-95775472D01*
X96081241Y-95881016D01*
X96035302Y-95995920D01*
X96007739Y-96120183D01*
X95998551Y-96253806D01*
X95686051Y-96253806D01*
X95685921Y-96250753D01*
X95691540Y-96119473D01*
X95708399Y-95994298D01*
X95745277Y-95846417D01*
X95799715Y-95708076D01*
X95871715Y-95579276D01*
X95961276Y-95460017D01*
X96045568Y-95371479D01*
X96139077Y-95291194D01*
X96239779Y-95221613D01*
X96347676Y-95162737D01*
X96462766Y-95114566D01*
X96585049Y-95077099D01*
X96714526Y-95050338D01*
X96851198Y-95034281D01*
X96995062Y-95028928D01*
X97138927Y-95034281D01*
G37*
G36*
X96467498Y-93824200D02*
G01*
X96467498Y-94807889D01*
X96819207Y-94807889D01*
X96819207Y-93824200D01*
X96467498Y-93824200D01*
G37*
G36*
X95685921Y-92400875D02*
G01*
X95691454Y-92533167D01*
X95708055Y-92658628D01*
X95744370Y-92805847D01*
X95797977Y-92942393D01*
X95868876Y-93068265D01*
X95957068Y-93183464D01*
X96040073Y-93267937D01*
X96156768Y-93361168D01*
X96285508Y-93438597D01*
X96397173Y-93489163D01*
X96516547Y-93529616D01*
X96643629Y-93559955D01*
X96778421Y-93580182D01*
X96920921Y-93590295D01*
X96995062Y-93591559D01*
X97141417Y-93586503D01*
X97280063Y-93571333D01*
X97411000Y-93546050D01*
X97534228Y-93510654D01*
X97649748Y-93465144D01*
X97783306Y-93394036D01*
X97904819Y-93307126D01*
X97950052Y-93267937D01*
X98052078Y-93161278D01*
X98136812Y-93043945D01*
X98204253Y-92915938D01*
X98254401Y-92777257D01*
X98287257Y-92627903D01*
X98301091Y-92500735D01*
X98304204Y-92400875D01*
X98298584Y-92273545D01*
X98281724Y-92152208D01*
X98246654Y-92014514D01*
X98195399Y-91885449D01*
X98127958Y-91765014D01*
X98074005Y-91689518D01*
X97981734Y-91587938D01*
X97877571Y-91504390D01*
X97761515Y-91438873D01*
X97633567Y-91391389D01*
X97493726Y-91361937D01*
X97444469Y-91356127D01*
X97444469Y-91738367D01*
X97567468Y-91759242D01*
X97688234Y-91806356D01*
X97790357Y-91878489D01*
X97848080Y-91940478D01*
X97917445Y-92049432D01*
X97964108Y-92173648D01*
X97986528Y-92296876D01*
X97991573Y-92397212D01*
X97982514Y-92532079D01*
X97955337Y-92655956D01*
X97900732Y-92786588D01*
X97821467Y-92902260D01*
X97733897Y-92989501D01*
X97629598Y-93063582D01*
X97509499Y-93122336D01*
X97373601Y-93165763D01*
X97248283Y-93190244D01*
X97111994Y-93204081D01*
X96995062Y-93207487D01*
X96850493Y-93202210D01*
X96716747Y-93186378D01*
X96593824Y-93159992D01*
X96460602Y-93114397D01*
X96342964Y-93053604D01*
X96256838Y-92991332D01*
X96169061Y-92904657D01*
X96089608Y-92789916D01*
X96034873Y-92660507D01*
X96007632Y-92537911D01*
X95998551Y-92404539D01*
X96007749Y-92267419D01*
X96035341Y-92144268D01*
X96088369Y-92022418D01*
X96145708Y-91939867D01*
X96239930Y-91852583D01*
X96357047Y-91789257D01*
X96480371Y-91753078D01*
X96584734Y-91738367D01*
X96584734Y-91356127D01*
X96452476Y-91374200D01*
X96330474Y-91404379D01*
X96197609Y-91456571D01*
X96079514Y-91526195D01*
X95976188Y-91613249D01*
X95915509Y-91680969D01*
X95837485Y-91793347D01*
X95775604Y-91916158D01*
X95729865Y-92049402D01*
X95700270Y-92193078D01*
X95687939Y-92320778D01*
X95685921Y-92400875D01*
G37*
D13*
%TO.C,D3*%
X156263000Y-66380000D02*
X156263000Y-69240000D01*
X156263000Y-69240000D02*
X158183000Y-69240000D01*
X158183000Y-69240000D02*
X158183000Y-66380000D01*
%TO.C,C1*%
X103030000Y-76679865D02*
X103030000Y-76911535D01*
X103750000Y-76679865D02*
X103750000Y-76911535D01*
%TO.C,D9*%
X118163000Y-104480000D02*
X118163000Y-107340000D01*
X118163000Y-107340000D02*
X120083000Y-107340000D01*
X120083000Y-107340000D02*
X120083000Y-104480000D01*
%TO.C,R5*%
X114888925Y-65887140D02*
X114888925Y-65551898D01*
X115648925Y-65887140D02*
X115648925Y-65551898D01*
%TO.C,D15*%
X127688000Y-142580000D02*
X127688000Y-145440000D01*
X127688000Y-145440000D02*
X129608000Y-145440000D01*
X129608000Y-145440000D02*
X129608000Y-142580000D01*
%TO.C,D11*%
X156263000Y-104480000D02*
X156263000Y-107340000D01*
X156263000Y-107340000D02*
X158183000Y-107340000D01*
X158183000Y-107340000D02*
X158183000Y-104480000D01*
%TO.C,R2*%
X104409200Y-73780821D02*
X104409200Y-73445579D01*
X105169200Y-73780821D02*
X105169200Y-73445579D01*
%TO.C,D17*%
X175313000Y-133055000D02*
X175313000Y-135915000D01*
X175313000Y-135915000D02*
X177233000Y-135915000D01*
X177233000Y-135915000D02*
X177233000Y-133055000D01*
%TO.C,D7*%
X156263000Y-85430000D02*
X156263000Y-88290000D01*
X156263000Y-88290000D02*
X158183000Y-88290000D01*
X158183000Y-88290000D02*
X158183000Y-85430000D01*
%TO.C,U4*%
X108032500Y-68443200D02*
X108032500Y-71168200D01*
X108032500Y-73893200D02*
X108032500Y-71168200D01*
X108292500Y-68443200D02*
X108032500Y-68443200D01*
X108292500Y-73893200D02*
X108032500Y-73893200D01*
X113222500Y-68443200D02*
X113482500Y-68443200D01*
X113222500Y-73893200D02*
X113482500Y-73893200D01*
X113482500Y-68443200D02*
X113482500Y-71168200D01*
X113482500Y-73893200D02*
X113482500Y-71168200D01*
X108292500Y-67660700D02*
X107962500Y-67900700D01*
X107962500Y-67420700D01*
X108292500Y-67660700D01*
G36*
X108292500Y-67660700D02*
G01*
X107962500Y-67900700D01*
X107962500Y-67420700D01*
X108292500Y-67660700D01*
G37*
%TO.C,C4*%
X102030000Y-76679865D02*
X102030000Y-76911535D01*
X102750000Y-76679865D02*
X102750000Y-76911535D01*
%TO.C,D14*%
X156263000Y-123530000D02*
X156263000Y-126390000D01*
X156263000Y-126390000D02*
X158183000Y-126390000D01*
X158183000Y-126390000D02*
X158183000Y-123530000D01*
%TO.C,C16*%
X105445835Y-91928200D02*
X105214165Y-91928200D01*
X105445835Y-92648200D02*
X105214165Y-92648200D01*
%TO.C,R4*%
X106150000Y-64443079D02*
X106150000Y-64778321D01*
X106910000Y-64443079D02*
X106910000Y-64778321D01*
%TO.C,C9*%
X100556665Y-79937666D02*
X100788335Y-79937666D01*
X100556665Y-80657666D02*
X100788335Y-80657666D01*
%TO.C,D8*%
X175313000Y-94955000D02*
X175313000Y-97815000D01*
X175313000Y-97815000D02*
X177233000Y-97815000D01*
X177233000Y-97815000D02*
X177233000Y-94955000D01*
%TO.C,D5*%
X118163000Y-85430000D02*
X118163000Y-88290000D01*
X118163000Y-88290000D02*
X120083000Y-88290000D01*
X120083000Y-88290000D02*
X120083000Y-85430000D01*
%TO.C,C15*%
X108019165Y-91920700D02*
X108250835Y-91920700D01*
X108019165Y-92640700D02*
X108250835Y-92640700D01*
%TO.C,D4*%
X175313000Y-66380000D02*
X175313000Y-69240000D01*
X175313000Y-69240000D02*
X177233000Y-69240000D01*
X177233000Y-69240000D02*
X177233000Y-66380000D01*
%TO.C,R3*%
X103158564Y-64810449D02*
X103158564Y-64475207D01*
X103918564Y-64810449D02*
X103918564Y-64475207D01*
%TO.C,ENC_D2*%
X110870000Y-143125000D02*
X110870000Y-145985000D01*
X110870000Y-145985000D02*
X112790000Y-145985000D01*
X112790000Y-145985000D02*
X112790000Y-143125000D01*
%TO.C,R6*%
X105189879Y-90783200D02*
X105525121Y-90783200D01*
X105189879Y-91543200D02*
X105525121Y-91543200D01*
%TO.C,C8*%
X100524165Y-83103200D02*
X100755835Y-83103200D01*
X100524165Y-83823200D02*
X100755835Y-83823200D01*
%TO.C,D13*%
X137213000Y-123530000D02*
X137213000Y-126390000D01*
X137213000Y-126390000D02*
X139133000Y-126390000D01*
X139133000Y-126390000D02*
X139133000Y-123530000D01*
%TO.C,ENC_D1*%
X112850000Y-125040000D02*
X112850000Y-122180000D01*
X110930000Y-125040000D02*
X112850000Y-125040000D01*
X110930000Y-122180000D02*
X110930000Y-125040000D01*
%TO.C,BOOT1*%
X111240000Y-59303200D02*
X111240000Y-63703200D01*
X111240000Y-63703200D02*
X111360000Y-63703200D01*
X111360000Y-59303200D02*
X111240000Y-59303200D01*
X112370000Y-63703200D02*
X113510000Y-63703200D01*
X113510000Y-59303200D02*
X112370000Y-59303200D01*
X114520000Y-63703200D02*
X114640000Y-63703200D01*
X114640000Y-59303200D02*
X114520000Y-59303200D01*
X114640000Y-63703200D02*
X114640000Y-59303200D01*
%TO.C,C7*%
X105068534Y-89060549D02*
X105232349Y-88896734D01*
X105577651Y-89569666D02*
X105741466Y-89405851D01*
%TO.C,D10*%
X137213000Y-104480000D02*
X137213000Y-107340000D01*
X137213000Y-107340000D02*
X139133000Y-107340000D01*
X139133000Y-107340000D02*
X139133000Y-104480000D01*
%TO.C,U1*%
X110090000Y-79288200D02*
X109850000Y-78958200D01*
X110330000Y-78958200D01*
X110090000Y-79288200D01*
G36*
X110090000Y-79288200D02*
G01*
X109850000Y-78958200D01*
X110330000Y-78958200D01*
X110090000Y-79288200D01*
G37*
X110090000Y-86508200D02*
X109440000Y-86508200D01*
X110090000Y-85858200D02*
X110090000Y-86508200D01*
X110090000Y-79528200D02*
X110090000Y-79938200D01*
X109790000Y-79288200D02*
X109440000Y-79288200D01*
X102870000Y-86508200D02*
X103520000Y-86508200D01*
X102870000Y-85858200D02*
X102870000Y-86508200D01*
X102870000Y-79938200D02*
X102870000Y-79288200D01*
X102870000Y-79288200D02*
X103520000Y-79288200D01*
%TO.C,C2*%
X107244849Y-76601734D02*
X107081034Y-76765549D01*
X107753966Y-77110851D02*
X107590151Y-77274666D01*
%TO.C,D2*%
X137213000Y-66380000D02*
X137213000Y-69240000D01*
X137213000Y-69240000D02*
X139133000Y-69240000D01*
X139133000Y-69240000D02*
X139133000Y-66380000D01*
%TO.C,D6*%
X137213000Y-85430000D02*
X137213000Y-88290000D01*
X137213000Y-88290000D02*
X139133000Y-88290000D01*
X139133000Y-88290000D02*
X139133000Y-85430000D01*
%TO.C,C6*%
X112216066Y-85298383D02*
X112052251Y-85134568D01*
X112725183Y-84789266D02*
X112561368Y-84625451D01*
%TO.C,C11*%
X101020000Y-76679865D02*
X101020000Y-76911535D01*
X101740000Y-76679865D02*
X101740000Y-76911535D01*
%TO.C,C13*%
X97906665Y-65703200D02*
X98138335Y-65703200D01*
X97906665Y-66423200D02*
X98138335Y-66423200D01*
%TO.C,R1*%
X105430000Y-73778321D02*
X105430000Y-73443079D01*
X106190000Y-73778321D02*
X106190000Y-73443079D01*
%TO.C,C12*%
X103190000Y-70294035D02*
X103190000Y-70062365D01*
X103910000Y-70294035D02*
X103910000Y-70062365D01*
%TO.C,C14*%
X106747500Y-72052365D02*
X106747500Y-72284035D01*
X107467500Y-72052365D02*
X107467500Y-72284035D01*
%TO.C,D12*%
X118163000Y-123530000D02*
X118163000Y-126390000D01*
X118163000Y-126390000D02*
X120083000Y-126390000D01*
X120083000Y-126390000D02*
X120083000Y-123530000D01*
%TO.C,D16*%
X156263000Y-142580000D02*
X156263000Y-145440000D01*
X156263000Y-145440000D02*
X158183000Y-145440000D01*
X158183000Y-145440000D02*
X158183000Y-142580000D01*
%TO.C,C3*%
X104318534Y-88310549D02*
X104482349Y-88146734D01*
X104827651Y-88819666D02*
X104991466Y-88655851D01*
%TO.C,D1*%
X118163000Y-66380000D02*
X118163000Y-69240000D01*
X118163000Y-69240000D02*
X120083000Y-69240000D01*
X120083000Y-69240000D02*
X120083000Y-66380000D01*
%TO.C,C5*%
X111567349Y-78876734D02*
X111403534Y-79040549D01*
X112076466Y-79385851D02*
X111912651Y-79549666D01*
%TO.C,U2*%
X95900000Y-73008200D02*
X95900000Y-69248200D01*
X97160000Y-73008200D02*
X95900000Y-73008200D01*
X101460000Y-73008200D02*
X102720000Y-73008200D01*
X102720000Y-73008200D02*
X102720000Y-69248200D01*
X96000000Y-67968200D02*
X95670000Y-68208200D01*
X95670000Y-67728200D01*
X96000000Y-67968200D01*
G36*
X96000000Y-67968200D02*
G01*
X95670000Y-68208200D01*
X95670000Y-67728200D01*
X96000000Y-67968200D01*
G37*
%TO.C,C10*%
X106557349Y-75866734D02*
X106393534Y-76030549D01*
X107066466Y-76375851D02*
X106902651Y-76539666D01*
%TO.C,Y1*%
X104997500Y-96388200D02*
X108997500Y-96388200D01*
X108997500Y-96388200D02*
X108997500Y-93088200D01*
%TD*%
M02*
