%TF.GenerationSoftware,KiCad,Pcbnew,8.0.4*%
%TF.CreationDate,2024-08-20T22:26:35+10:00*%
%TF.ProjectId,banana17_main,62616e61-6e61-4313-975f-6d61696e2e6b,rev?*%
%TF.SameCoordinates,Original*%
%TF.FileFunction,Copper,L4,Bot*%
%TF.FilePolarity,Positive*%
%FSLAX46Y46*%
G04 Gerber Fmt 4.6, Leading zero omitted, Abs format (unit mm)*
G04 Created by KiCad (PCBNEW 8.0.4) date 2024-08-20 22:26:35*
%MOMM*%
%LPD*%
G01*
G04 APERTURE LIST*
G04 Aperture macros list*
%AMRoundRect*
0 Rectangle with rounded corners*
0 $1 Rounding radius*
0 $2 $3 $4 $5 $6 $7 $8 $9 X,Y pos of 4 corners*
0 Add a 4 corners polygon primitive as box body*
4,1,4,$2,$3,$4,$5,$6,$7,$8,$9,$2,$3,0*
0 Add four circle primitives for the rounded corners*
1,1,$1+$1,$2,$3*
1,1,$1+$1,$4,$5*
1,1,$1+$1,$6,$7*
1,1,$1+$1,$8,$9*
0 Add four rect primitives between the rounded corners*
20,1,$1+$1,$2,$3,$4,$5,0*
20,1,$1+$1,$4,$5,$6,$7,0*
20,1,$1+$1,$6,$7,$8,$9,0*
20,1,$1+$1,$8,$9,$2,$3,0*%
G04 Aperture macros list end*
%TA.AperFunction,ComponentPad*%
%ADD10C,2.000000*%
%TD*%
%TA.AperFunction,ComponentPad*%
%ADD11R,3.200000X2.000000*%
%TD*%
%TA.AperFunction,ComponentPad*%
%ADD12R,2.000000X2.000000*%
%TD*%
%TA.AperFunction,SMDPad,CuDef*%
%ADD13RoundRect,0.200000X-1.075000X-1.050000X1.075000X-1.050000X1.075000X1.050000X-1.075000X1.050000X0*%
%TD*%
%TA.AperFunction,ComponentPad*%
%ADD14C,1.700000*%
%TD*%
%TA.AperFunction,ComponentPad*%
%ADD15R,1.700000X1.700000*%
%TD*%
%TA.AperFunction,SMDPad,CuDef*%
%ADD16RoundRect,0.250000X0.450000X-0.325000X0.450000X0.325000X-0.450000X0.325000X-0.450000X-0.325000X0*%
%TD*%
%TA.AperFunction,SMDPad,CuDef*%
%ADD17RoundRect,0.155000X0.155000X-0.212500X0.155000X0.212500X-0.155000X0.212500X-0.155000X-0.212500X0*%
%TD*%
%TA.AperFunction,SMDPad,CuDef*%
%ADD18RoundRect,0.160000X-0.160000X0.197500X-0.160000X-0.197500X0.160000X-0.197500X0.160000X0.197500X0*%
%TD*%
%TA.AperFunction,SMDPad,CuDef*%
%ADD19RoundRect,0.150000X-0.150000X0.650000X-0.150000X-0.650000X0.150000X-0.650000X0.150000X0.650000X0*%
%TD*%
%TA.AperFunction,ComponentPad*%
%ADD20O,1.100000X2.200000*%
%TD*%
%TA.AperFunction,ComponentPad*%
%ADD21O,1.300000X1.700000*%
%TD*%
%TA.AperFunction,SMDPad,CuDef*%
%ADD22RoundRect,0.060000X-0.090000X-0.665000X0.090000X-0.665000X0.090000X0.665000X-0.090000X0.665000X0*%
%TD*%
%TA.AperFunction,SMDPad,CuDef*%
%ADD23RoundRect,0.060000X-0.240000X-0.665000X0.240000X-0.665000X0.240000X0.665000X-0.240000X0.665000X0*%
%TD*%
%TA.AperFunction,SMDPad,CuDef*%
%ADD24RoundRect,0.155000X-0.212500X-0.155000X0.212500X-0.155000X0.212500X0.155000X-0.212500X0.155000X0*%
%TD*%
%TA.AperFunction,SMDPad,CuDef*%
%ADD25RoundRect,0.160000X0.160000X-0.197500X0.160000X0.197500X-0.160000X0.197500X-0.160000X-0.197500X0*%
%TD*%
%TA.AperFunction,SMDPad,CuDef*%
%ADD26RoundRect,0.155000X0.212500X0.155000X-0.212500X0.155000X-0.212500X-0.155000X0.212500X-0.155000X0*%
%TD*%
%TA.AperFunction,SMDPad,CuDef*%
%ADD27RoundRect,0.160000X0.197500X0.160000X-0.197500X0.160000X-0.197500X-0.160000X0.197500X-0.160000X0*%
%TD*%
%TA.AperFunction,SMDPad,CuDef*%
%ADD28R,0.650000X1.050000*%
%TD*%
%TA.AperFunction,SMDPad,CuDef*%
%ADD29RoundRect,0.155000X0.040659X0.259862X-0.259862X-0.040659X-0.040659X-0.259862X0.259862X0.040659X0*%
%TD*%
%TA.AperFunction,HeatsinkPad*%
%ADD30R,3.200000X3.200000*%
%TD*%
%TA.AperFunction,SMDPad,CuDef*%
%ADD31RoundRect,0.050000X0.050000X0.387500X-0.050000X0.387500X-0.050000X-0.387500X0.050000X-0.387500X0*%
%TD*%
%TA.AperFunction,SMDPad,CuDef*%
%ADD32RoundRect,0.050000X0.387500X0.050000X-0.387500X0.050000X-0.387500X-0.050000X0.387500X-0.050000X0*%
%TD*%
%TA.AperFunction,SMDPad,CuDef*%
%ADD33RoundRect,0.155000X-0.040659X-0.259862X0.259862X0.040659X0.040659X0.259862X-0.259862X-0.040659X0*%
%TD*%
%TA.AperFunction,SMDPad,CuDef*%
%ADD34RoundRect,0.155000X-0.259862X0.040659X0.040659X-0.259862X0.259862X-0.040659X-0.040659X0.259862X0*%
%TD*%
%TA.AperFunction,SMDPad,CuDef*%
%ADD35RoundRect,0.155000X-0.155000X0.212500X-0.155000X-0.212500X0.155000X-0.212500X0.155000X0.212500X0*%
%TD*%
%TA.AperFunction,SMDPad,CuDef*%
%ADD36RoundRect,0.375000X-0.375000X0.625000X-0.375000X-0.625000X0.375000X-0.625000X0.375000X0.625000X0*%
%TD*%
%TA.AperFunction,SMDPad,CuDef*%
%ADD37RoundRect,0.500000X-1.400000X0.500000X-1.400000X-0.500000X1.400000X-0.500000X1.400000X0.500000X0*%
%TD*%
%TA.AperFunction,SMDPad,CuDef*%
%ADD38R,1.400000X1.200000*%
%TD*%
%TA.AperFunction,ViaPad*%
%ADD39C,0.600000*%
%TD*%
%TA.AperFunction,Conductor*%
%ADD40C,0.500000*%
%TD*%
%TA.AperFunction,Conductor*%
%ADD41C,0.200000*%
%TD*%
%TA.AperFunction,Conductor*%
%ADD42C,0.750000*%
%TD*%
%TA.AperFunction,Conductor*%
%ADD43C,0.286000*%
%TD*%
G04 APERTURE END LIST*
D10*
%TO.P,ENC2,S2,S2*%
%TO.N,ROW5*%
X111830000Y-135550000D03*
%TO.P,ENC2,S1,S1*%
%TO.N,Net-(ENC_D2-A)*%
X111830000Y-140550000D03*
D11*
%TO.P,ENC2,MP*%
%TO.N,N/C*%
X104830000Y-143650000D03*
X104830000Y-132450000D03*
D10*
%TO.P,ENC2,C,C*%
%TO.N,GND*%
X97330000Y-138050000D03*
%TO.P,ENC2,B,B*%
%TO.N,ENC2_B*%
X97330000Y-140550000D03*
D12*
%TO.P,ENC2,A,A*%
%TO.N,ENC2_A*%
X97330000Y-135550000D03*
%TD*%
%TO.P,ENC1,A,A*%
%TO.N,ENC1_A*%
X97360000Y-114520000D03*
D10*
%TO.P,ENC1,B,B*%
%TO.N,ENC1_B*%
X97360000Y-119520000D03*
%TO.P,ENC1,C,C*%
%TO.N,GND*%
X97360000Y-117020000D03*
D11*
%TO.P,ENC1,MP*%
%TO.N,N/C*%
X104860000Y-111420000D03*
X104860000Y-122620000D03*
D10*
%TO.P,ENC1,S1,S1*%
%TO.N,Net-(ENC_D1-A)*%
X111860000Y-119520000D03*
%TO.P,ENC1,S2,S2*%
%TO.N,COL0*%
X111860000Y-114520000D03*
%TD*%
D13*
%TO.P,SW10,2,B*%
%TO.N,COL2*%
X151100000Y-97340000D03*
%TO.P,SW10,1,A*%
%TO.N,Net-(D10-A)*%
X138173000Y-99880000D03*
%TD*%
%TO.P,SW6,2,B*%
%TO.N,COL2*%
X151100000Y-78290000D03*
%TO.P,SW6,1,A*%
%TO.N,Net-(D6-A)*%
X138173000Y-80830000D03*
%TD*%
%TO.P,SW9,2,B*%
%TO.N,COL1*%
X132050000Y-97340000D03*
%TO.P,SW9,1,A*%
%TO.N,Net-(D9-A)*%
X119123000Y-99880000D03*
%TD*%
%TO.P,SW2,2,B*%
%TO.N,COL2*%
X151100000Y-59240000D03*
%TO.P,SW2,1,A*%
%TO.N,Net-(D2-A)*%
X138173000Y-61780000D03*
%TD*%
%TO.P,SW11,2,B*%
%TO.N,COL3*%
X170150000Y-97340000D03*
%TO.P,SW11,1,A*%
%TO.N,Net-(D11-A)*%
X157223000Y-99880000D03*
%TD*%
%TO.P,SW13,2,B*%
%TO.N,COL2*%
X151100000Y-116390000D03*
%TO.P,SW13,1,A*%
%TO.N,Net-(D13-A)*%
X138173000Y-118930000D03*
%TD*%
%TO.P,SW1,2,B*%
%TO.N,COL1*%
X132050000Y-59240000D03*
%TO.P,SW1,1,A*%
%TO.N,Net-(D1-A)*%
X119123000Y-61780000D03*
%TD*%
%TO.P,SW4,2,B*%
%TO.N,COL4*%
X189200000Y-59240000D03*
%TO.P,SW4,1,A*%
%TO.N,Net-(D4-A)*%
X176273000Y-61780000D03*
%TD*%
%TO.P,SW8,2,B*%
%TO.N,COL4*%
X189200000Y-87815000D03*
%TO.P,SW8,1,A*%
%TO.N,Net-(D8-A)*%
X176273000Y-90355000D03*
%TD*%
%TO.P,SW3,2,B*%
%TO.N,COL3*%
X170150000Y-59240000D03*
%TO.P,SW3,1,A*%
%TO.N,Net-(D3-A)*%
X157223000Y-61780000D03*
%TD*%
D14*
%TO.P,U3,1,SDA*%
%TO.N,OLED_SDA*%
X101049314Y-100858200D03*
%TO.P,U3,2,SCL*%
%TO.N,OLED_SCL*%
X103589314Y-100858200D03*
%TO.P,U3,3,VCC*%
%TO.N,VBUS*%
X106129314Y-100858200D03*
D15*
%TO.P,U3,4,GND*%
%TO.N,GND*%
X108669314Y-100858200D03*
%TD*%
D13*
%TO.P,SW14,2,B*%
%TO.N,COL3*%
X170150000Y-116390000D03*
%TO.P,SW14,1,A*%
%TO.N,Net-(D14-A)*%
X157223000Y-118930000D03*
%TD*%
%TO.P,SW5,2,B*%
%TO.N,COL1*%
X132050000Y-78290000D03*
%TO.P,SW5,1,A*%
%TO.N,Net-(D5-A)*%
X119123000Y-80830000D03*
%TD*%
%TO.P,SW12,2,B*%
%TO.N,COL1*%
X132050000Y-116390000D03*
%TO.P,SW12,1,A*%
%TO.N,Net-(D12-A)*%
X119123000Y-118930000D03*
%TD*%
%TO.P,SW17,1,A*%
%TO.N,Net-(D17-A)*%
X176273000Y-128455000D03*
%TO.P,SW17,2,B*%
%TO.N,COL4*%
X189200000Y-125915000D03*
%TD*%
%TO.P,SW7,2,B*%
%TO.N,COL3*%
X170150000Y-78290000D03*
%TO.P,SW7,1,A*%
%TO.N,Net-(D7-A)*%
X157223000Y-80830000D03*
%TD*%
%TO.P,SW16,2,B*%
%TO.N,COL3*%
X170150000Y-135440000D03*
%TO.P,SW16,1,A*%
%TO.N,Net-(D16-A)*%
X157223000Y-137980000D03*
%TD*%
D16*
%TO.P,D3,1,K*%
%TO.N,ROW0*%
X157223000Y-68405000D03*
%TO.P,D3,2,A*%
%TO.N,Net-(D3-A)*%
X157223000Y-66355000D03*
%TD*%
D17*
%TO.P,C1,1*%
%TO.N,+1V1*%
X103390000Y-77363200D03*
%TO.P,C1,2*%
%TO.N,GND*%
X103390000Y-76228200D03*
%TD*%
D16*
%TO.P,D9,1,K*%
%TO.N,ROW2*%
X119123000Y-106505000D03*
%TO.P,D9,2,A*%
%TO.N,Net-(D9-A)*%
X119123000Y-104455000D03*
%TD*%
D18*
%TO.P,R5,1*%
%TO.N,/~{USB_BOOT}*%
X115268925Y-65122019D03*
%TO.P,R5,2*%
%TO.N,/QSPI_SS*%
X115268925Y-66317019D03*
%TD*%
D16*
%TO.P,D15,1,K*%
%TO.N,ROW4*%
X128648000Y-144605000D03*
%TO.P,D15,2,A*%
%TO.N,Net-(D15-A)*%
X128648000Y-142555000D03*
%TD*%
%TO.P,D11,1,K*%
%TO.N,ROW2*%
X157223000Y-106505000D03*
%TO.P,D11,2,A*%
%TO.N,Net-(D11-A)*%
X157223000Y-104455000D03*
%TD*%
D18*
%TO.P,R2,1*%
%TO.N,/USB_D-*%
X104789200Y-73015700D03*
%TO.P,R2,2*%
%TO.N,/MCU_D+*%
X104789200Y-74210700D03*
%TD*%
D16*
%TO.P,D17,1,K*%
%TO.N,ROW4*%
X176273000Y-135080000D03*
%TO.P,D17,2,A*%
%TO.N,Net-(D17-A)*%
X176273000Y-133030000D03*
%TD*%
%TO.P,D7,1,K*%
%TO.N,ROW1*%
X157223000Y-87455000D03*
%TO.P,D7,2,A*%
%TO.N,Net-(D7-A)*%
X157223000Y-85405000D03*
%TD*%
D19*
%TO.P,U4,1,~{CS}*%
%TO.N,/QSPI_SS*%
X108852500Y-67568200D03*
%TO.P,U4,2,DO(IO1)*%
%TO.N,/QSPI_SD1*%
X110122500Y-67568200D03*
%TO.P,U4,3,IO2*%
%TO.N,/QSPI_SD2*%
X111392500Y-67568200D03*
%TO.P,U4,4,GND*%
%TO.N,GND*%
X112662500Y-67568200D03*
%TO.P,U4,5,DI(IO0)*%
%TO.N,/QSPI_SD0*%
X112662500Y-74768200D03*
%TO.P,U4,6,CLK*%
%TO.N,/QSPI_SCLK*%
X111392500Y-74768200D03*
%TO.P,U4,7,IO3*%
%TO.N,/QSPI_SD3*%
X110122500Y-74768200D03*
%TO.P,U4,8,VCC*%
%TO.N,+3V3*%
X108852500Y-74768200D03*
%TD*%
D20*
%TO.P,J1,S1,SHIELD*%
%TO.N,GND*%
X109110000Y-61593200D03*
D21*
X109110000Y-57413200D03*
D20*
X100470000Y-61593200D03*
D21*
X100470000Y-57413200D03*
D22*
%TO.P,J1,B8,SBU2*%
%TO.N,unconnected-(J1-SBU2-PadB8)*%
X103040000Y-62508200D03*
%TO.P,J1,B7,D-*%
%TO.N,/USB_D-*%
X104040000Y-62508200D03*
%TO.P,J1,B6,D+*%
%TO.N,/USB_D+*%
X105540000Y-62508200D03*
%TO.P,J1,B5,CC2*%
%TO.N,Net-(J1-CC2)*%
X106540000Y-62508200D03*
D23*
%TO.P,J1,B4,VBUS*%
%TO.N,VBUS*%
X107240000Y-62508200D03*
%TO.P,J1,B1,GND*%
%TO.N,GND*%
X108015000Y-62508200D03*
D22*
%TO.P,J1,A8,SBU1*%
%TO.N,unconnected-(J1-SBU1-PadA8)*%
X106040000Y-62508200D03*
%TO.P,J1,A7,D-*%
%TO.N,/USB_D-*%
X105040000Y-62508200D03*
%TO.P,J1,A6,D+*%
%TO.N,/USB_D+*%
X104540000Y-62508200D03*
%TO.P,J1,A5,CC1*%
%TO.N,Net-(J1-CC1)*%
X103540000Y-62508200D03*
D23*
%TO.P,J1,A4,VBUS*%
%TO.N,VBUS*%
X102340000Y-62508200D03*
%TO.P,J1,A1,GND*%
%TO.N,GND*%
X101565000Y-62508200D03*
%TD*%
D17*
%TO.P,C4,1*%
%TO.N,+3V3*%
X102390000Y-77363200D03*
%TO.P,C4,2*%
%TO.N,GND*%
X102390000Y-76228200D03*
%TD*%
D16*
%TO.P,D14,1,K*%
%TO.N,ROW3*%
X157223000Y-125555000D03*
%TO.P,D14,2,A*%
%TO.N,Net-(D14-A)*%
X157223000Y-123505000D03*
%TD*%
D24*
%TO.P,C16,1*%
%TO.N,GND*%
X104762500Y-92288200D03*
%TO.P,C16,2*%
%TO.N,Net-(C16-Pad2)*%
X105897500Y-92288200D03*
%TD*%
D25*
%TO.P,R4,1*%
%TO.N,GND*%
X106530000Y-65208200D03*
%TO.P,R4,2*%
%TO.N,Net-(J1-CC2)*%
X106530000Y-64013200D03*
%TD*%
D26*
%TO.P,C9,1*%
%TO.N,+3V3*%
X101240000Y-80297666D03*
%TO.P,C9,2*%
%TO.N,GND*%
X100105000Y-80297666D03*
%TD*%
D16*
%TO.P,D8,1,K*%
%TO.N,ROW1*%
X176273000Y-96980000D03*
%TO.P,D8,2,A*%
%TO.N,Net-(D8-A)*%
X176273000Y-94930000D03*
%TD*%
%TO.P,D5,1,K*%
%TO.N,ROW1*%
X119123000Y-87455000D03*
%TO.P,D5,2,A*%
%TO.N,Net-(D5-A)*%
X119123000Y-85405000D03*
%TD*%
D26*
%TO.P,C15,1*%
%TO.N,GND*%
X108702500Y-92280700D03*
%TO.P,C15,2*%
%TO.N,/XIN*%
X107567500Y-92280700D03*
%TD*%
D16*
%TO.P,D4,1,K*%
%TO.N,ROW0*%
X176273000Y-68405000D03*
%TO.P,D4,2,A*%
%TO.N,Net-(D4-A)*%
X176273000Y-66355000D03*
%TD*%
D18*
%TO.P,R3,1*%
%TO.N,Net-(J1-CC1)*%
X103538564Y-64045328D03*
%TO.P,R3,2*%
%TO.N,GND*%
X103538564Y-65240328D03*
%TD*%
D16*
%TO.P,ENC_D2,1,K*%
%TO.N,ROW6*%
X111830000Y-145150000D03*
%TO.P,ENC_D2,2,A*%
%TO.N,Net-(ENC_D2-A)*%
X111830000Y-143100000D03*
%TD*%
D27*
%TO.P,R6,1*%
%TO.N,/XOUT*%
X105955000Y-91163200D03*
%TO.P,R6,2*%
%TO.N,Net-(C16-Pad2)*%
X104760000Y-91163200D03*
%TD*%
D26*
%TO.P,C8,1*%
%TO.N,+3V3*%
X101207500Y-83463200D03*
%TO.P,C8,2*%
%TO.N,GND*%
X100072500Y-83463200D03*
%TD*%
D16*
%TO.P,D13,1,K*%
%TO.N,ROW3*%
X138173000Y-125555000D03*
%TO.P,D13,2,A*%
%TO.N,Net-(D13-A)*%
X138173000Y-123505000D03*
%TD*%
%TO.P,ENC_D1,2,A*%
%TO.N,Net-(ENC_D1-A)*%
X111890000Y-122155000D03*
%TO.P,ENC_D1,1,K*%
%TO.N,ROW5*%
X111890000Y-124205000D03*
%TD*%
D28*
%TO.P,BOOT1,1,A*%
%TO.N,GND*%
X111865000Y-59428200D03*
X111865000Y-63578200D03*
%TO.P,BOOT1,2,B*%
%TO.N,/~{USB_BOOT}*%
X114015000Y-59428200D03*
X114015000Y-63578200D03*
%TD*%
D29*
%TO.P,C7,1*%
%TO.N,+3V3*%
X105806283Y-88831917D03*
%TO.P,C7,2*%
%TO.N,GND*%
X105003717Y-89634483D03*
%TD*%
D16*
%TO.P,D10,1,K*%
%TO.N,ROW2*%
X138173000Y-106505000D03*
%TO.P,D10,2,A*%
%TO.N,Net-(D10-A)*%
X138173000Y-104455000D03*
%TD*%
D30*
%TO.P,U1,57,GND*%
%TO.N,GND*%
X106480000Y-82898200D03*
D31*
%TO.P,U1,56,QSPI_SS*%
%TO.N,/QSPI_SS*%
X109080000Y-79460700D03*
%TO.P,U1,55,QSPI_SD1*%
%TO.N,/QSPI_SD1*%
X108680000Y-79460700D03*
%TO.P,U1,54,QSPI_SD2*%
%TO.N,/QSPI_SD2*%
X108280000Y-79460700D03*
%TO.P,U1,53,QSPI_SD0*%
%TO.N,/QSPI_SD0*%
X107880000Y-79460700D03*
%TO.P,U1,52,QSPI_SCLK*%
%TO.N,/QSPI_SCLK*%
X107480000Y-79460700D03*
%TO.P,U1,51,QSPI_SD3*%
%TO.N,/QSPI_SD3*%
X107080000Y-79460700D03*
%TO.P,U1,50,DVDD*%
%TO.N,+1V1*%
X106680000Y-79460700D03*
%TO.P,U1,49,IOVDD*%
%TO.N,+3V3*%
X106280000Y-79460700D03*
%TO.P,U1,48,USB_VDD*%
X105880000Y-79460700D03*
%TO.P,U1,47,USB_DP*%
%TO.N,/MCU_D-*%
X105480000Y-79460700D03*
%TO.P,U1,46,USB_DM*%
%TO.N,/MCU_D+*%
X105080000Y-79460700D03*
%TO.P,U1,45,VREG_VOUT*%
%TO.N,+1V1*%
X104680000Y-79460700D03*
%TO.P,U1,44,VREG_IN*%
%TO.N,+3V3*%
X104280000Y-79460700D03*
%TO.P,U1,43,ADC_AVDD*%
X103880000Y-79460700D03*
D32*
%TO.P,U1,42,IOVDD*%
X103042500Y-80298200D03*
%TO.P,U1,41,GPIO29_ADC3*%
%TO.N,/GPIO29_ADC3*%
X103042500Y-80698200D03*
%TO.P,U1,40,GPIO28_ADC2*%
%TO.N,/GPIO28_ADC2*%
X103042500Y-81098200D03*
%TO.P,U1,39,GPIO27_ADC1*%
%TO.N,/GPIO27_ADC1*%
X103042500Y-81498200D03*
%TO.P,U1,38,GPIO26_ADC0*%
%TO.N,/GPIO26_ADC0*%
X103042500Y-81898200D03*
%TO.P,U1,37,GPIO25*%
%TO.N,/GPIO25*%
X103042500Y-82298200D03*
%TO.P,U1,36,GPIO24*%
%TO.N,/GPIO24*%
X103042500Y-82698200D03*
%TO.P,U1,35,GPIO23*%
%TO.N,/GPIO23*%
X103042500Y-83098200D03*
%TO.P,U1,34,GPIO22*%
%TO.N,/GPIO22*%
X103042500Y-83498200D03*
%TO.P,U1,33,IOVDD*%
%TO.N,+3V3*%
X103042500Y-83898200D03*
%TO.P,U1,32,GPIO21*%
%TO.N,ENC1_B*%
X103042500Y-84298200D03*
%TO.P,U1,31,GPIO20*%
%TO.N,ENC1_A*%
X103042500Y-84698200D03*
%TO.P,U1,30,GPIO19*%
%TO.N,ENC2_A*%
X103042500Y-85098200D03*
%TO.P,U1,29,GPIO18*%
%TO.N,ENC2_B*%
X103042500Y-85498200D03*
D31*
%TO.P,U1,28,GPIO17*%
%TO.N,/GPIO17*%
X103880000Y-86335700D03*
%TO.P,U1,27,GPIO16*%
%TO.N,/GPIO16*%
X104280000Y-86335700D03*
%TO.P,U1,26,RUN*%
%TO.N,/RUN*%
X104680000Y-86335700D03*
%TO.P,U1,25,SWD*%
%TO.N,/SWD*%
X105080000Y-86335700D03*
%TO.P,U1,24,SWCLK*%
%TO.N,/SWCLK*%
X105480000Y-86335700D03*
%TO.P,U1,23,DVDD*%
%TO.N,+1V1*%
X105880000Y-86335700D03*
%TO.P,U1,22,IOVDD*%
%TO.N,+3V3*%
X106280000Y-86335700D03*
%TO.P,U1,21,XOUT*%
%TO.N,/XOUT*%
X106680000Y-86335700D03*
%TO.P,U1,20,XIN*%
%TO.N,/XIN*%
X107080000Y-86335700D03*
%TO.P,U1,19,TESTEN*%
%TO.N,GND*%
X107480000Y-86335700D03*
%TO.P,U1,18,GPIO15*%
%TO.N,/GPIO15*%
X107880000Y-86335700D03*
%TO.P,U1,17,GPIO14*%
%TO.N,/GPIO14*%
X108280000Y-86335700D03*
%TO.P,U1,16,GPIO13*%
%TO.N,OLED_SCL*%
X108680000Y-86335700D03*
%TO.P,U1,15,GPIO12*%
%TO.N,OLED_SDA*%
X109080000Y-86335700D03*
D32*
%TO.P,U1,14,GPIO11*%
%TO.N,COL0*%
X109917500Y-85498200D03*
%TO.P,U1,13,GPIO10*%
%TO.N,ROW5*%
X109917500Y-85098200D03*
%TO.P,U1,12,GPIO9*%
%TO.N,ROW6*%
X109917500Y-84698200D03*
%TO.P,U1,11,GPIO8*%
%TO.N,/GPIO8*%
X109917500Y-84298200D03*
%TO.P,U1,10,IOVDD*%
%TO.N,+3V3*%
X109917500Y-83898200D03*
%TO.P,U1,9,GPIO7*%
%TO.N,/GPIO7*%
X109917500Y-83498200D03*
%TO.P,U1,8,GPIO6*%
%TO.N,COL4*%
X109917500Y-83098200D03*
%TO.P,U1,7,GPIO5*%
%TO.N,COL3*%
X109917500Y-82698200D03*
%TO.P,U1,6,GPIO4*%
%TO.N,COL2*%
X109917500Y-82298200D03*
%TO.P,U1,5,GPIO3*%
%TO.N,COL1*%
X109917500Y-81898200D03*
%TO.P,U1,4,GPIO2*%
%TO.N,ROW2*%
X109917500Y-81498200D03*
%TO.P,U1,3,GPIO1*%
%TO.N,ROW1*%
X109917500Y-81098200D03*
%TO.P,U1,2,GPIO0*%
%TO.N,ROW0*%
X109917500Y-80698200D03*
%TO.P,U1,1,IOVDD*%
%TO.N,+3V3*%
X109917500Y-80298200D03*
%TD*%
D33*
%TO.P,C2,1*%
%TO.N,+1V1*%
X107016217Y-77339483D03*
%TO.P,C2,2*%
%TO.N,GND*%
X107818783Y-76536917D03*
%TD*%
D16*
%TO.P,D2,1,K*%
%TO.N,ROW0*%
X138173000Y-68405000D03*
%TO.P,D2,2,A*%
%TO.N,Net-(D2-A)*%
X138173000Y-66355000D03*
%TD*%
%TO.P,D6,1,K*%
%TO.N,ROW1*%
X138173000Y-87455000D03*
%TO.P,D6,2,A*%
%TO.N,Net-(D6-A)*%
X138173000Y-85405000D03*
%TD*%
D34*
%TO.P,C6,1*%
%TO.N,+3V3*%
X111987434Y-84560634D03*
%TO.P,C6,2*%
%TO.N,GND*%
X112790000Y-85363200D03*
%TD*%
D17*
%TO.P,C11,1*%
%TO.N,+3V3*%
X101380000Y-77363200D03*
%TO.P,C11,2*%
%TO.N,GND*%
X101380000Y-76228200D03*
%TD*%
D26*
%TO.P,C13,1*%
%TO.N,+3V3*%
X98590000Y-66063200D03*
%TO.P,C13,2*%
%TO.N,GND*%
X97455000Y-66063200D03*
%TD*%
D18*
%TO.P,R1,1*%
%TO.N,/USB_D+*%
X105810000Y-73013200D03*
%TO.P,R1,2*%
%TO.N,/MCU_D-*%
X105810000Y-74208200D03*
%TD*%
D35*
%TO.P,C12,1*%
%TO.N,VBUS*%
X103550000Y-69610700D03*
%TO.P,C12,2*%
%TO.N,GND*%
X103550000Y-70745700D03*
%TD*%
D17*
%TO.P,C14,1*%
%TO.N,+3V3*%
X107107500Y-72735700D03*
%TO.P,C14,2*%
%TO.N,GND*%
X107107500Y-71600700D03*
%TD*%
D16*
%TO.P,D12,1,K*%
%TO.N,ROW3*%
X119123000Y-125555000D03*
%TO.P,D12,2,A*%
%TO.N,Net-(D12-A)*%
X119123000Y-123505000D03*
%TD*%
%TO.P,D16,1,K*%
%TO.N,ROW4*%
X157223000Y-144605000D03*
%TO.P,D16,2,A*%
%TO.N,Net-(D16-A)*%
X157223000Y-142555000D03*
%TD*%
D29*
%TO.P,C3,1*%
%TO.N,+1V1*%
X105056283Y-88081917D03*
%TO.P,C3,2*%
%TO.N,GND*%
X104253717Y-88884483D03*
%TD*%
D16*
%TO.P,D1,1,K*%
%TO.N,ROW0*%
X119123000Y-68405000D03*
%TO.P,D1,2,A*%
%TO.N,Net-(D1-A)*%
X119123000Y-66355000D03*
%TD*%
D33*
%TO.P,C5,1*%
%TO.N,+3V3*%
X111338717Y-79614483D03*
%TO.P,C5,2*%
%TO.N,GND*%
X112141283Y-78811917D03*
%TD*%
D36*
%TO.P,U2,1,GND*%
%TO.N,GND*%
X97010000Y-67948200D03*
%TO.P,U2,2,VO*%
%TO.N,+3V3*%
X99310000Y-67948200D03*
D37*
X99310000Y-74248200D03*
D36*
%TO.P,U2,3,VI*%
%TO.N,VBUS*%
X101610000Y-67948200D03*
%TD*%
D33*
%TO.P,C10,1*%
%TO.N,+3V3*%
X106328717Y-76604483D03*
%TO.P,C10,2*%
%TO.N,GND*%
X107131283Y-75801917D03*
%TD*%
D38*
%TO.P,Y1,1,1*%
%TO.N,/XIN*%
X108097500Y-95588200D03*
%TO.P,Y1,2,2*%
%TO.N,GND*%
X105897500Y-95588200D03*
%TO.P,Y1,3,3*%
%TO.N,Net-(C16-Pad2)*%
X105897500Y-93888200D03*
%TO.P,Y1,4,4*%
%TO.N,GND*%
X108097500Y-93888200D03*
%TD*%
D13*
%TO.P,SW15,1,A*%
%TO.N,Net-(D15-A)*%
X128648000Y-137980000D03*
%TO.P,SW15,2,B*%
%TO.N,COL2*%
X141575000Y-135440000D03*
%TD*%
D39*
%TO.N,GND*%
X113390000Y-85963200D03*
X107110000Y-70713200D03*
X105895547Y-96673410D03*
X103557500Y-71688200D03*
X95329426Y-67951543D03*
X111850000Y-64523200D03*
X107645000Y-81758200D03*
X97458650Y-65174560D03*
X105295000Y-81708200D03*
X103520000Y-89608200D03*
X105295000Y-82908200D03*
X100581157Y-76227202D03*
X112740000Y-78213200D03*
X103529270Y-66087828D03*
X103390000Y-75363200D03*
X106445000Y-84108200D03*
X107620000Y-82908200D03*
X102390000Y-75363200D03*
X100109030Y-79500812D03*
X107620000Y-84108200D03*
X100074066Y-84222490D03*
X112660000Y-69073200D03*
X106530706Y-66075700D03*
X106445000Y-82933200D03*
X105295000Y-84083200D03*
X103760898Y-92286114D03*
X108323058Y-76046258D03*
X106445000Y-81733200D03*
X107130000Y-74813200D03*
X107745000Y-88113200D03*
X109439831Y-92282357D03*
%TO.N,+1V1*%
X104680000Y-80573200D03*
X106677612Y-80586627D03*
X105881741Y-85167329D03*
%TO.N,+3V3*%
X99308581Y-75651395D03*
X102078988Y-80297610D03*
X106190000Y-75643200D03*
X103840000Y-78363200D03*
X99303459Y-72757352D03*
X101380365Y-78170082D03*
X98592127Y-65211215D03*
X99309719Y-69461823D03*
X102390000Y-78163200D03*
X101211095Y-82812483D03*
X112240000Y-79863200D03*
X105940000Y-89913200D03*
X101240000Y-79513200D03*
X107099740Y-73571591D03*
X108850389Y-73443519D03*
X111325000Y-83898200D03*
%TO.N,VBUS*%
X101140000Y-70513200D03*
%TO.N,COL1*%
X134600000Y-59242193D03*
X114565968Y-82098200D03*
X134588887Y-78290753D03*
X134600000Y-97340658D03*
X134600000Y-116387498D03*
%TO.N,COL2*%
X153498451Y-59239807D03*
X153509376Y-116387484D03*
X153498409Y-97345459D03*
X153498451Y-78289504D03*
X150110000Y-135640000D03*
X114540000Y-83213200D03*
%TO.N,COL3*%
X172570000Y-78320000D03*
X113540000Y-83213200D03*
X172580000Y-135440000D03*
X172580000Y-116380000D03*
X172570000Y-97340602D03*
X172560000Y-59240000D03*
%TD*%
D40*
%TO.N,VBUS*%
X102340000Y-65273200D02*
X102340000Y-62508200D01*
X101610000Y-66003200D02*
X102340000Y-65273200D01*
X101610000Y-67948200D02*
X101610000Y-66003200D01*
D41*
%TO.N,COL4*%
X186960000Y-85575000D02*
X189200000Y-87815000D01*
X189200000Y-59240000D02*
X186960000Y-61480000D01*
X186960000Y-61480000D02*
X186960000Y-85575000D01*
X186990000Y-123705000D02*
X189200000Y-125915000D01*
X186990000Y-90025000D02*
X186990000Y-123705000D01*
X189200000Y-87815000D02*
X186990000Y-90025000D01*
X186935000Y-123650000D02*
X189200000Y-125915000D01*
X176080000Y-123650000D02*
X186935000Y-123650000D01*
X114930000Y-86619316D02*
X114930000Y-126590000D01*
X171400000Y-128330000D02*
X176080000Y-123650000D01*
X111408884Y-83098200D02*
X114930000Y-86619316D01*
X116670000Y-128330000D02*
X171400000Y-128330000D01*
X109917500Y-83098200D02*
X111408884Y-83098200D01*
X114930000Y-126590000D02*
X116670000Y-128330000D01*
%TO.N,ENC1_A*%
X97386956Y-89136956D02*
X97360000Y-89163912D01*
X97360000Y-89163912D02*
X97360000Y-114520000D01*
%TO.N,ROW5*%
X113500000Y-122595000D02*
X111890000Y-124205000D01*
X110734975Y-85098200D02*
X113500000Y-87863225D01*
X113500000Y-87863225D02*
X113500000Y-122595000D01*
X109917500Y-85098200D02*
X110734975Y-85098200D01*
%TO.N,ROW2*%
X117755000Y-106505000D02*
X119123000Y-106505000D01*
X117000000Y-83078174D02*
X117000000Y-105750000D01*
X115420026Y-81498200D02*
X117000000Y-83078174D01*
X117000000Y-105750000D02*
X117755000Y-106505000D01*
X109917500Y-81498200D02*
X115420026Y-81498200D01*
%TO.N,ROW1*%
X118205000Y-87455000D02*
X119123000Y-87455000D01*
X117500000Y-86750000D02*
X118205000Y-87455000D01*
X117500000Y-82750000D02*
X117500000Y-86750000D01*
X115848200Y-81098200D02*
X117500000Y-82750000D01*
X109917500Y-81098200D02*
X115848200Y-81098200D01*
%TO.N,ROW6*%
X112630000Y-145150000D02*
X111830000Y-145150000D01*
X114250000Y-88033200D02*
X114250000Y-143530000D01*
X114250000Y-143530000D02*
X112630000Y-145150000D01*
X110915000Y-84698200D02*
X114250000Y-88033200D01*
X109917500Y-84698200D02*
X110915000Y-84698200D01*
%TO.N,COL0*%
X111860000Y-86718200D02*
X111860000Y-114520000D01*
X110640000Y-85498200D02*
X111860000Y-86718200D01*
X109917500Y-85498200D02*
X110640000Y-85498200D01*
%TO.N,ENC2_B*%
X99763186Y-139191814D02*
X99763186Y-87821386D01*
%TO.N,ENC2_A*%
X99125686Y-87893200D02*
X99125686Y-134729314D01*
%TO.N,ENC1_A*%
X101825711Y-84698200D02*
X97386956Y-89136956D01*
%TO.N,ENC1_B*%
X95500000Y-117660000D02*
X97360000Y-119520000D01*
X95500000Y-90528937D02*
X95500000Y-117660000D01*
X101730737Y-84298200D02*
X95500000Y-90528937D01*
X103042500Y-84298200D02*
X101730737Y-84298200D01*
%TO.N,ROW0*%
X113301800Y-80698200D02*
X109917500Y-80698200D01*
X116000000Y-70355686D02*
X116000000Y-78000000D01*
X117950686Y-68405000D02*
X116000000Y-70355686D01*
X116000000Y-78000000D02*
X113301800Y-80698200D01*
X119123000Y-68405000D02*
X117950686Y-68405000D01*
D42*
%TO.N,GND*%
X95332769Y-67948200D02*
X95329426Y-67951543D01*
D40*
X103538564Y-65240328D02*
X103538564Y-66078534D01*
X103550000Y-70745700D02*
X103550000Y-71680700D01*
X106530000Y-65208200D02*
X106530000Y-66074994D01*
D42*
X107131283Y-75801917D02*
X107131283Y-74814483D01*
D40*
X107107500Y-71600700D02*
X107107500Y-70715700D01*
D42*
X103760898Y-92286114D02*
X103762984Y-92288200D01*
X109438174Y-92280700D02*
X109439831Y-92282357D01*
D40*
X111865000Y-61513200D02*
X111865000Y-59428200D01*
D42*
X102390000Y-76228200D02*
X102390000Y-75363200D01*
X103762984Y-92288200D02*
X104762500Y-92288200D01*
X104243717Y-88884483D02*
X103520000Y-89608200D01*
D41*
X107745000Y-88113200D02*
X107480000Y-87848200D01*
D42*
X97455000Y-65178210D02*
X97458650Y-65174560D01*
X108702500Y-92280700D02*
X109438174Y-92280700D01*
X97455000Y-66063200D02*
X97455000Y-65178210D01*
X107131283Y-74814483D02*
X107130000Y-74813200D01*
X100582155Y-76228200D02*
X100581157Y-76227202D01*
X108702500Y-93283200D02*
X108702500Y-92280700D01*
D40*
X107107500Y-70715700D02*
X107110000Y-70713200D01*
X111865000Y-64508200D02*
X111850000Y-64523200D01*
D42*
X100105000Y-79504842D02*
X100109030Y-79500812D01*
X100105000Y-80297666D02*
X100105000Y-79504842D01*
X105897500Y-96671457D02*
X105895547Y-96673410D01*
X107832399Y-76536917D02*
X108323058Y-76046258D01*
X104253717Y-88884483D02*
X104243717Y-88884483D01*
D40*
X108195000Y-62508200D02*
X109110000Y-61593200D01*
D42*
X108097500Y-93888200D02*
X108702500Y-93283200D01*
D40*
X111865000Y-63578200D02*
X111865000Y-61513200D01*
D42*
X107818783Y-76536917D02*
X107832399Y-76536917D01*
X112662500Y-69070700D02*
X112660000Y-69073200D01*
X105897500Y-95588200D02*
X105897500Y-96671457D01*
X101380000Y-76228200D02*
X100582155Y-76228200D01*
X103390000Y-76228200D02*
X103390000Y-75363200D01*
X100072500Y-84220924D02*
X100074066Y-84222490D01*
D40*
X112790000Y-85363200D02*
X113390000Y-85963200D01*
X106530000Y-66074994D02*
X106530706Y-66075700D01*
X103550000Y-71680700D02*
X103557500Y-71688200D01*
D42*
X97010000Y-67948200D02*
X95332769Y-67948200D01*
X100072500Y-83463200D02*
X100072500Y-84220924D01*
D40*
X108015000Y-62508200D02*
X108195000Y-62508200D01*
X101565000Y-62508200D02*
X101385000Y-62508200D01*
X111865000Y-63578200D02*
X111865000Y-64508200D01*
X101385000Y-62508200D02*
X100470000Y-61593200D01*
X97010000Y-67948200D02*
X97010000Y-67163200D01*
D42*
X112662500Y-67568200D02*
X112662500Y-69070700D01*
D41*
X107480000Y-87848200D02*
X107480000Y-86335700D01*
D42*
X112141283Y-78811917D02*
X112740000Y-78213200D01*
X105003717Y-89634483D02*
X104253717Y-88884483D01*
D41*
%TO.N,/~{USB_BOOT}*%
X114015000Y-59428200D02*
X114015000Y-63578200D01*
X114015000Y-64578200D02*
X114015000Y-63578200D01*
X114558819Y-65122019D02*
X114015000Y-64578200D01*
X115268925Y-65122019D02*
X114558819Y-65122019D01*
%TO.N,+1V1*%
X106680000Y-80584239D02*
X106677612Y-80586627D01*
X103390000Y-77363200D02*
X103700000Y-77363200D01*
X107016217Y-77339483D02*
X106680000Y-77675700D01*
X105880000Y-86335700D02*
X105880000Y-87258200D01*
X103700000Y-77363200D02*
X104680000Y-78343200D01*
X105880000Y-87258200D02*
X105056283Y-88081917D01*
X106680000Y-79460700D02*
X106680000Y-80584239D01*
X104680000Y-78343200D02*
X104680000Y-79460700D01*
X105880000Y-85169070D02*
X105881741Y-85167329D01*
X105880000Y-86335700D02*
X105880000Y-85169070D01*
X106680000Y-77675700D02*
X106680000Y-79460700D01*
X104680000Y-79460700D02*
X104680000Y-80573200D01*
%TO.N,+3V3*%
X110655000Y-80298200D02*
X111338717Y-79614483D01*
D42*
X99310000Y-67948200D02*
X99310000Y-67543200D01*
D41*
X111325000Y-83898200D02*
X109917500Y-83898200D01*
D42*
X105806283Y-88831917D02*
X105946616Y-88972250D01*
X99310000Y-75649976D02*
X99308581Y-75651395D01*
D41*
X106328717Y-76604483D02*
X106328717Y-75781917D01*
D42*
X99310000Y-74248200D02*
X99310000Y-72763893D01*
D41*
X101642500Y-83898200D02*
X101207500Y-83463200D01*
X103042500Y-83898200D02*
X101642500Y-83898200D01*
D42*
X99310000Y-67948200D02*
X99310000Y-69461542D01*
X99310000Y-72763893D02*
X99303459Y-72757352D01*
D40*
X107107500Y-72735700D02*
X107107500Y-73563831D01*
D42*
X101240000Y-80297666D02*
X101240000Y-79513200D01*
X111338717Y-79614483D02*
X111587434Y-79863200D01*
D41*
X103042500Y-80298200D02*
X102079578Y-80298200D01*
D42*
X101380000Y-77363200D02*
X101380000Y-78169717D01*
D41*
X106280000Y-86335700D02*
X106280000Y-88358200D01*
X103880000Y-79460700D02*
X103880000Y-78403200D01*
X109917500Y-80298200D02*
X110655000Y-80298200D01*
D40*
X107107500Y-73563831D02*
X107099740Y-73571591D01*
D41*
X106040000Y-76893200D02*
X106040000Y-78413200D01*
X102079578Y-80298200D02*
X102078988Y-80297610D01*
D42*
X111987434Y-84560634D02*
X111325000Y-83898200D01*
D41*
X106328717Y-75781917D02*
X106190000Y-75643200D01*
X106040000Y-78413200D02*
X105880000Y-78573200D01*
D42*
X99310000Y-74248200D02*
X99310000Y-75649976D01*
D41*
X104280000Y-78803200D02*
X103840000Y-78363200D01*
D42*
X105946616Y-89906584D02*
X105940000Y-89913200D01*
X108852500Y-74768200D02*
X108852500Y-73445630D01*
D41*
X103880000Y-78403200D02*
X103840000Y-78363200D01*
X106040000Y-78413200D02*
X106280000Y-78653200D01*
D42*
X105946616Y-88972250D02*
X105946616Y-89906584D01*
X102390000Y-77363200D02*
X102390000Y-78163200D01*
X101207500Y-82816078D02*
X101211095Y-82812483D01*
X101207500Y-83463200D02*
X101207500Y-82816078D01*
X98590000Y-65213342D02*
X98592127Y-65211215D01*
D41*
X106280000Y-88358200D02*
X105806283Y-88831917D01*
X104280000Y-79460700D02*
X104280000Y-78803200D01*
D42*
X99310000Y-69461542D02*
X99309719Y-69461823D01*
X98590000Y-66063200D02*
X98590000Y-65213342D01*
X111587434Y-79863200D02*
X112240000Y-79863200D01*
D41*
X106280000Y-78653200D02*
X106280000Y-79460700D01*
X105880000Y-78573200D02*
X105880000Y-79460700D01*
D42*
X108852500Y-73445630D02*
X108850389Y-73443519D01*
X101380000Y-78169717D02*
X101380365Y-78170082D01*
D41*
X106328717Y-76604483D02*
X106040000Y-76893200D01*
%TO.N,VBUS*%
X106226868Y-61000000D02*
X103059216Y-61000000D01*
D40*
X103272500Y-69610700D02*
X101610000Y-67948200D01*
D41*
X107240000Y-62013132D02*
X106226868Y-61000000D01*
X102340000Y-61719216D02*
X102340000Y-62508200D01*
D40*
X101610000Y-70043200D02*
X101140000Y-70513200D01*
D41*
X103059216Y-61000000D02*
X102340000Y-61719216D01*
D40*
X103550000Y-69610700D02*
X103272500Y-69610700D01*
X101610000Y-67948200D02*
X101610000Y-70043200D01*
D41*
X107240000Y-62508200D02*
X107240000Y-62013132D01*
%TO.N,/XIN*%
X107567500Y-92280700D02*
X107002500Y-92845700D01*
X107002500Y-94930700D02*
X107660000Y-95588200D01*
X107660000Y-95588200D02*
X108097500Y-95588200D01*
X107002500Y-92845700D02*
X107002500Y-94930700D01*
X107080000Y-86335700D02*
X107080000Y-90663200D01*
X107567500Y-91150700D02*
X107567500Y-92280700D01*
X107080000Y-90663200D02*
X107567500Y-91150700D01*
%TO.N,/XOUT*%
X106680000Y-86335700D02*
X106680000Y-88523885D01*
X106677500Y-88526386D02*
X106677500Y-90440700D01*
X106677500Y-90440700D02*
X105955000Y-91163200D01*
X106680000Y-88523885D02*
X106677500Y-88526386D01*
%TO.N,ROW0*%
X176273000Y-68405000D02*
X119123000Y-68405000D01*
%TO.N,Net-(D1-A)*%
X119123000Y-61780000D02*
X119123000Y-66355000D01*
%TO.N,Net-(D2-A)*%
X138173000Y-61780000D02*
X138173000Y-66355000D01*
%TO.N,Net-(D3-A)*%
X157223000Y-61780000D02*
X157223000Y-66355000D01*
%TO.N,Net-(D4-A)*%
X176273000Y-61780000D02*
X176273000Y-66355000D01*
%TO.N,Net-(D5-A)*%
X119123000Y-80830000D02*
X119123000Y-85405000D01*
%TO.N,ROW1*%
X165355000Y-87455000D02*
X157223000Y-87455000D01*
X174880000Y-96980000D02*
X165355000Y-87455000D01*
X176273000Y-96980000D02*
X174880000Y-96980000D01*
X157223000Y-87455000D02*
X119123000Y-87455000D01*
%TO.N,Net-(D6-A)*%
X138173000Y-80830000D02*
X138173000Y-85405000D01*
%TO.N,Net-(D7-A)*%
X157223000Y-80830000D02*
X157223000Y-85405000D01*
%TO.N,Net-(D8-A)*%
X176273000Y-90355000D02*
X176273000Y-94930000D01*
%TO.N,ROW2*%
X157223000Y-106505000D02*
X119123000Y-106505000D01*
%TO.N,Net-(D9-A)*%
X119123000Y-99880000D02*
X119123000Y-104455000D01*
%TO.N,Net-(D10-A)*%
X138173000Y-99880000D02*
X138173000Y-104455000D01*
%TO.N,Net-(D11-A)*%
X157223000Y-99880000D02*
X157223000Y-104455000D01*
%TO.N,ROW3*%
X157223000Y-125555000D02*
X119123000Y-125555000D01*
%TO.N,Net-(D12-A)*%
X119123000Y-118930000D02*
X119123000Y-123505000D01*
%TO.N,Net-(D13-A)*%
X138173000Y-118930000D02*
X138173000Y-123505000D01*
%TO.N,Net-(D14-A)*%
X157223000Y-118930000D02*
X157223000Y-123505000D01*
%TO.N,Net-(D15-A)*%
X128648000Y-137980000D02*
X128648000Y-142555000D01*
%TO.N,ROW4*%
X176273000Y-135080000D02*
X176273000Y-137527000D01*
X176273000Y-137527000D02*
X169195000Y-144605000D01*
X169195000Y-144605000D02*
X157223000Y-144605000D01*
X157223000Y-144605000D02*
X128648000Y-144605000D01*
%TO.N,Net-(D16-A)*%
X157223000Y-137980000D02*
X157223000Y-142555000D01*
%TO.N,Net-(D17-A)*%
X176273000Y-128455000D02*
X176273000Y-133030000D01*
%TO.N,Net-(ENC_D1-A)*%
X111890000Y-119480000D02*
X111890000Y-122155000D01*
%TO.N,ENC1_A*%
X103042500Y-84698200D02*
X101825711Y-84698200D01*
%TO.N,/USB_D-*%
X105040000Y-63233199D02*
X105040000Y-62508200D01*
D43*
X105056250Y-63191950D02*
X105056250Y-72748650D01*
D41*
X104290001Y-63483200D02*
X104789999Y-63483200D01*
D43*
X105040000Y-62508200D02*
X105056250Y-62524450D01*
D41*
X104040000Y-63233199D02*
X104290001Y-63483200D01*
D43*
X105040000Y-62508200D02*
X105046106Y-62514306D01*
D41*
X104040000Y-62508200D02*
X104040000Y-63233199D01*
D43*
X105056250Y-72748650D02*
X104789200Y-73015700D01*
D41*
X104789999Y-63483200D02*
X105040000Y-63233199D01*
%TO.N,/USB_D+*%
X104540000Y-62508200D02*
X104540000Y-61668344D01*
D43*
X105540000Y-62508200D02*
X105535306Y-62512894D01*
D41*
X104540000Y-61668344D02*
X104805144Y-61403200D01*
X105540000Y-61638056D02*
X105540000Y-62508200D01*
X104805144Y-61403200D02*
X105305144Y-61403200D01*
D43*
X105540000Y-62508200D02*
X105540000Y-72743200D01*
D41*
X105305144Y-61403200D02*
X105540000Y-61638056D01*
D43*
X105540000Y-72743200D02*
X105810000Y-73013200D01*
%TO.N,/MCU_D-*%
X105542950Y-74475250D02*
X105542950Y-77844970D01*
D41*
X105480000Y-79460700D02*
X105480000Y-77907920D01*
X105480000Y-77907920D02*
X105542950Y-77844970D01*
D43*
X105810000Y-74208200D02*
X105542950Y-74475250D01*
D41*
%TO.N,/MCU_D+*%
X105080000Y-79460700D02*
X105080000Y-77871220D01*
D43*
X104789200Y-74210700D02*
X105053750Y-74475250D01*
X105053750Y-74475250D02*
X105053750Y-77844970D01*
D41*
X105080000Y-77871220D02*
X105053750Y-77844970D01*
%TO.N,/QSPI_SS*%
X108852500Y-66600700D02*
X110240000Y-65213200D01*
X110240000Y-65213200D02*
X113440000Y-65213200D01*
X114543819Y-66317019D02*
X115268925Y-66317019D01*
X110704326Y-77468200D02*
X113285000Y-77468200D01*
X113285000Y-77468200D02*
X115240000Y-75513200D01*
X109080000Y-79092526D02*
X110704326Y-77468200D01*
X113440000Y-65213200D02*
X114543819Y-66317019D01*
X109080000Y-79460700D02*
X109080000Y-79092526D01*
X115240000Y-75513200D02*
X115240000Y-66345944D01*
X108852500Y-67568200D02*
X108852500Y-66600700D01*
%TO.N,COL1*%
X132050000Y-97340000D02*
X134599342Y-97340000D01*
X132050000Y-78290000D02*
X134588134Y-78290000D01*
X114365968Y-81898200D02*
X109917500Y-81898200D01*
X134600000Y-116387498D02*
X134597498Y-116390000D01*
X134599342Y-97340000D02*
X134600000Y-97340658D01*
X132050000Y-59240000D02*
X134597807Y-59240000D01*
X134597498Y-116390000D02*
X132050000Y-116390000D01*
X114565968Y-82098200D02*
X114365968Y-81898200D01*
X134588134Y-78290000D02*
X134588887Y-78290753D01*
X134597807Y-59240000D02*
X134600000Y-59242193D01*
%TO.N,COL2*%
X150090000Y-135620000D02*
X141755000Y-135620000D01*
X153498258Y-59240000D02*
X153498451Y-59239807D01*
X153497955Y-78290000D02*
X153498451Y-78289504D01*
X153506860Y-116390000D02*
X153509376Y-116387484D01*
X141755000Y-135620000D02*
X141575000Y-135440000D01*
X153492950Y-97340000D02*
X151100000Y-97340000D01*
X151100000Y-59240000D02*
X153498258Y-59240000D01*
X113625000Y-82298200D02*
X109917500Y-82298200D01*
X153498409Y-97345459D02*
X153492950Y-97340000D01*
X151100000Y-78290000D02*
X153497955Y-78290000D01*
X114540000Y-83213200D02*
X113625000Y-82298200D01*
X150110000Y-135640000D02*
X150090000Y-135620000D01*
X151100000Y-116390000D02*
X153506860Y-116390000D01*
%TO.N,/QSPI_SD0*%
X107880000Y-79460700D02*
X107880000Y-78595468D01*
X110207268Y-76268200D02*
X111333052Y-76268200D01*
X111333052Y-76268200D02*
X112662500Y-74938752D01*
X112662500Y-74938752D02*
X112662500Y-74768200D01*
X107880000Y-78595468D02*
X110207268Y-76268200D01*
%TO.N,/QSPI_SD3*%
X107080000Y-78173200D02*
X110122500Y-75130700D01*
X110122500Y-75130700D02*
X110122500Y-74768200D01*
X107080000Y-79460700D02*
X107080000Y-78173200D01*
%TO.N,/QSPI_SCLK*%
X107480000Y-78429782D02*
X110041582Y-75868200D01*
X107480000Y-79460700D02*
X107480000Y-78429782D01*
X111392500Y-74938752D02*
X111392500Y-74768200D01*
X110041582Y-75868200D02*
X110463052Y-75868200D01*
X110463052Y-75868200D02*
X111392500Y-74938752D01*
%TO.N,/QSPI_SD1*%
X113244093Y-65613200D02*
X111140000Y-65613200D01*
X111140000Y-65613200D02*
X110122500Y-66630700D01*
X114840000Y-75347514D02*
X114840000Y-67209107D01*
X113119314Y-77068200D02*
X114840000Y-75347514D01*
X110122500Y-66630700D02*
X110122500Y-67568200D01*
X108680000Y-78926840D02*
X110538640Y-77068200D01*
X108680000Y-79460700D02*
X108680000Y-78926840D01*
X110538640Y-77068200D02*
X113119314Y-77068200D01*
X114840000Y-67209107D02*
X113244093Y-65613200D01*
%TO.N,/QSPI_SD2*%
X108280000Y-78761154D02*
X110372954Y-76668200D01*
X114440000Y-75181828D02*
X114440000Y-67374793D01*
X113078407Y-66013200D02*
X111990000Y-66013200D01*
X114440000Y-67374793D02*
X113078407Y-66013200D01*
X112953628Y-76668200D02*
X114440000Y-75181828D01*
X110372954Y-76668200D02*
X112953628Y-76668200D01*
X111990000Y-66013200D02*
X111392500Y-66610700D01*
X111392500Y-66610700D02*
X111392500Y-67568200D01*
X108280000Y-79460700D02*
X108280000Y-78761154D01*
%TO.N,OLED_SDA*%
X109305000Y-103688200D02*
X110655000Y-102338200D01*
X109080000Y-87263200D02*
X109080000Y-86335700D01*
X101049314Y-100858200D02*
X101049314Y-101982514D01*
X110655000Y-88838200D02*
X109080000Y-87263200D01*
X110655000Y-102338200D02*
X110655000Y-88838200D01*
X101049314Y-101982514D02*
X102755000Y-103688200D01*
X102755000Y-103688200D02*
X109305000Y-103688200D01*
%TO.N,OLED_SCL*%
X108880000Y-103013200D02*
X110194831Y-101698369D01*
X110194831Y-88873006D02*
X108680000Y-87358175D01*
X104705000Y-103013200D02*
X108880000Y-103013200D01*
X108680000Y-87358175D02*
X108680000Y-86335700D01*
X103589314Y-100858200D02*
X103589314Y-101897514D01*
X103589314Y-101897514D02*
X104705000Y-103013200D01*
X110194831Y-101698369D02*
X110194831Y-88873006D01*
%TO.N,ENC2_B*%
X99763186Y-139191814D02*
X98405000Y-140550000D01*
X103027500Y-85513200D02*
X103042500Y-85498200D01*
X99763186Y-87821386D02*
X102071372Y-85513200D01*
X98405000Y-140550000D02*
X97330000Y-140550000D01*
X102071372Y-85513200D02*
X103027500Y-85513200D01*
%TO.N,ENC2_A*%
X99125686Y-134729314D02*
X98305000Y-135550000D01*
X103042500Y-85098200D02*
X101920686Y-85098200D01*
X101920686Y-85098200D02*
X99125686Y-87893200D01*
X98305000Y-135550000D02*
X97330000Y-135550000D01*
%TO.N,Net-(ENC_D2-A)*%
X111830000Y-140550000D02*
X111830000Y-143100000D01*
%TO.N,Net-(J1-CC1)*%
X103540000Y-62508200D02*
X103540000Y-64043892D01*
X103540000Y-64043892D02*
X103538564Y-64045328D01*
%TO.N,Net-(J1-CC2)*%
X106545144Y-62513344D02*
X106540000Y-62508200D01*
X106540000Y-62508200D02*
X106540000Y-64003200D01*
X106540000Y-64003200D02*
X106530000Y-64013200D01*
%TO.N,COL3*%
X113025000Y-82698200D02*
X109917500Y-82698200D01*
X172569398Y-97340000D02*
X170150000Y-97340000D01*
X172570000Y-97340602D02*
X172569398Y-97340000D01*
X172580000Y-135440000D02*
X170150000Y-135440000D01*
X172570000Y-78320000D02*
X172540000Y-78290000D01*
X113540000Y-83213200D02*
X113025000Y-82698200D01*
X172570000Y-116390000D02*
X170150000Y-116390000D01*
X172580000Y-116380000D02*
X172570000Y-116390000D01*
X172540000Y-78290000D02*
X170150000Y-78290000D01*
X172560000Y-59240000D02*
X170150000Y-59240000D01*
%TO.N,Net-(C16-Pad2)*%
X104760000Y-91163200D02*
X104772500Y-91163200D01*
X104772500Y-91163200D02*
X105897500Y-92288200D01*
X105897500Y-92288200D02*
X105897500Y-93888200D01*
%TD*%
%TA.AperFunction,Conductor*%
%TO.N,+3V3*%
G36*
X104170942Y-81200370D02*
G01*
X104172295Y-81198675D01*
X104177737Y-81203015D01*
X104177738Y-81203016D01*
X104321474Y-81293331D01*
X104367763Y-81345663D01*
X104379500Y-81398323D01*
X104379500Y-84546070D01*
X104379501Y-84546076D01*
X104385908Y-84605683D01*
X104436202Y-84740528D01*
X104436206Y-84740535D01*
X104522452Y-84855744D01*
X104522455Y-84855747D01*
X104637664Y-84941993D01*
X104637671Y-84941997D01*
X104682618Y-84958761D01*
X104772517Y-84992291D01*
X104832127Y-84998700D01*
X104956419Y-84998699D01*
X105023458Y-85018383D01*
X105069213Y-85071187D01*
X105079640Y-85136579D01*
X105076176Y-85167330D01*
X105076176Y-85167332D01*
X105086811Y-85261725D01*
X105074756Y-85330547D01*
X105027407Y-85381926D01*
X104978375Y-85398723D01*
X104947605Y-85402418D01*
X104894783Y-85408761D01*
X104865217Y-85408761D01*
X104816559Y-85402918D01*
X104773102Y-85397700D01*
X104586898Y-85397700D01*
X104543440Y-85402918D01*
X104494783Y-85408761D01*
X104465217Y-85408761D01*
X104416559Y-85402918D01*
X104373102Y-85397700D01*
X104186898Y-85397700D01*
X104145660Y-85402652D01*
X104109049Y-85407048D01*
X104040141Y-85395496D01*
X103988417Y-85348523D01*
X103970300Y-85281043D01*
X103971149Y-85269167D01*
X103980500Y-85191302D01*
X103980500Y-85005098D01*
X103979731Y-84998698D01*
X103972922Y-84941993D01*
X103969877Y-84916636D01*
X103969876Y-84916634D01*
X103969438Y-84912985D01*
X103969438Y-84883415D01*
X103969876Y-84879765D01*
X103969877Y-84879764D01*
X103980500Y-84791302D01*
X103980500Y-84605098D01*
X103969877Y-84516636D01*
X103969876Y-84516634D01*
X103969438Y-84512985D01*
X103969438Y-84483415D01*
X103969876Y-84479765D01*
X103969877Y-84479764D01*
X103980500Y-84391302D01*
X103980500Y-84205098D01*
X103969877Y-84116636D01*
X103914361Y-83975858D01*
X103912290Y-83973127D01*
X103911173Y-83970189D01*
X103910205Y-83968467D01*
X103910463Y-83968321D01*
X103887466Y-83907818D01*
X103901891Y-83839454D01*
X103912291Y-83823271D01*
X103914361Y-83820542D01*
X103969877Y-83679764D01*
X103980500Y-83591302D01*
X103980500Y-83405098D01*
X103969877Y-83316636D01*
X103969876Y-83316634D01*
X103969438Y-83312985D01*
X103969438Y-83283415D01*
X103969876Y-83279765D01*
X103969877Y-83279764D01*
X103980500Y-83191302D01*
X103980500Y-83005098D01*
X103969877Y-82916636D01*
X103969876Y-82916634D01*
X103969438Y-82912985D01*
X103969438Y-82883415D01*
X103969876Y-82879765D01*
X103969877Y-82879764D01*
X103980500Y-82791302D01*
X103980500Y-82605098D01*
X103969877Y-82516636D01*
X103969876Y-82516634D01*
X103969438Y-82512985D01*
X103969438Y-82483415D01*
X103969876Y-82479765D01*
X103969877Y-82479764D01*
X103980500Y-82391302D01*
X103980500Y-82205098D01*
X103969877Y-82116636D01*
X103969876Y-82116634D01*
X103969438Y-82112985D01*
X103969438Y-82083415D01*
X103969876Y-82079765D01*
X103969877Y-82079764D01*
X103980500Y-81991302D01*
X103980500Y-81805098D01*
X103969877Y-81716636D01*
X103969876Y-81716634D01*
X103969438Y-81712985D01*
X103969438Y-81683415D01*
X103969876Y-81679765D01*
X103969877Y-81679764D01*
X103980500Y-81591302D01*
X103980500Y-81405098D01*
X103969877Y-81316636D01*
X103969876Y-81316634D01*
X103969438Y-81312985D01*
X103969438Y-81283410D01*
X103969875Y-81279767D01*
X103969877Y-81279764D01*
X103969976Y-81278936D01*
X103997516Y-81214727D01*
X104055400Y-81175597D01*
X104125251Y-81173973D01*
X104170942Y-81200370D01*
G37*
%TD.AperFunction*%
%TA.AperFunction,Conductor*%
G36*
X107694785Y-80387638D02*
G01*
X107698434Y-80388076D01*
X107698436Y-80388077D01*
X107770821Y-80396769D01*
X107786897Y-80398700D01*
X107786898Y-80398700D01*
X107973103Y-80398700D01*
X107989178Y-80396769D01*
X108061564Y-80388077D01*
X108061565Y-80388076D01*
X108065215Y-80387638D01*
X108094785Y-80387638D01*
X108098434Y-80388076D01*
X108098436Y-80388077D01*
X108170821Y-80396769D01*
X108186897Y-80398700D01*
X108186898Y-80398700D01*
X108373103Y-80398700D01*
X108389178Y-80396769D01*
X108461564Y-80388077D01*
X108461565Y-80388076D01*
X108465215Y-80387638D01*
X108494785Y-80387638D01*
X108498434Y-80388076D01*
X108498436Y-80388077D01*
X108570821Y-80396769D01*
X108586897Y-80398700D01*
X108586898Y-80398700D01*
X108773101Y-80398700D01*
X108773102Y-80398700D01*
X108850949Y-80389351D01*
X108919854Y-80400901D01*
X108971579Y-80447872D01*
X108989698Y-80515352D01*
X108988848Y-80527249D01*
X108984452Y-80563860D01*
X108979500Y-80605098D01*
X108979500Y-80791302D01*
X108981038Y-80804108D01*
X108990561Y-80883417D01*
X108990561Y-80912983D01*
X108985518Y-80954982D01*
X108979500Y-81005098D01*
X108979500Y-81191302D01*
X108980907Y-81203015D01*
X108990561Y-81283417D01*
X108990561Y-81312983D01*
X108986637Y-81345663D01*
X108979500Y-81405098D01*
X108979500Y-81591302D01*
X108985222Y-81638954D01*
X108990561Y-81683417D01*
X108990561Y-81712983D01*
X108984718Y-81761640D01*
X108979500Y-81805098D01*
X108979500Y-81991302D01*
X108985222Y-82038954D01*
X108990561Y-82083417D01*
X108990561Y-82112983D01*
X108984718Y-82161640D01*
X108979500Y-82205098D01*
X108979500Y-82391302D01*
X108985222Y-82438954D01*
X108990561Y-82483417D01*
X108990561Y-82512983D01*
X108984718Y-82561640D01*
X108979500Y-82605098D01*
X108979500Y-82791302D01*
X108985222Y-82838954D01*
X108990561Y-82883417D01*
X108990561Y-82912983D01*
X108984718Y-82961640D01*
X108979500Y-83005098D01*
X108979500Y-83191302D01*
X108985222Y-83238954D01*
X108990561Y-83283417D01*
X108990561Y-83312983D01*
X108984718Y-83361640D01*
X108979500Y-83405098D01*
X108979500Y-83591302D01*
X108985126Y-83638154D01*
X108990122Y-83679761D01*
X109045639Y-83820543D01*
X109047712Y-83823276D01*
X109048830Y-83826218D01*
X109049795Y-83827934D01*
X109049537Y-83828078D01*
X109072534Y-83888588D01*
X109058105Y-83956952D01*
X109047712Y-83973124D01*
X109045639Y-83975856D01*
X108990122Y-84116638D01*
X108984188Y-84166053D01*
X108979500Y-84205098D01*
X108979500Y-84391302D01*
X108985222Y-84438954D01*
X108990561Y-84483417D01*
X108990561Y-84512983D01*
X108986587Y-84546083D01*
X108979500Y-84605098D01*
X108979500Y-84791302D01*
X108985222Y-84838954D01*
X108990561Y-84883417D01*
X108990561Y-84912983D01*
X108984718Y-84961640D01*
X108979500Y-85005098D01*
X108979500Y-85191302D01*
X108986146Y-85246651D01*
X108988848Y-85269149D01*
X108977296Y-85338057D01*
X108930323Y-85389781D01*
X108862843Y-85407898D01*
X108850949Y-85407048D01*
X108825426Y-85403983D01*
X108773102Y-85397700D01*
X108586898Y-85397700D01*
X108543440Y-85402918D01*
X108494783Y-85408761D01*
X108465217Y-85408761D01*
X108416559Y-85402918D01*
X108373102Y-85397700D01*
X108186898Y-85397700D01*
X108143440Y-85402918D01*
X108094783Y-85408761D01*
X108065217Y-85408761D01*
X108016559Y-85402918D01*
X107973102Y-85397700D01*
X107786898Y-85397700D01*
X107743440Y-85402918D01*
X107694783Y-85408761D01*
X107665217Y-85408761D01*
X107616559Y-85402918D01*
X107573102Y-85397700D01*
X107386898Y-85397700D01*
X107343440Y-85402918D01*
X107294783Y-85408761D01*
X107265217Y-85408761D01*
X107216559Y-85402918D01*
X107173102Y-85397700D01*
X106986898Y-85397700D01*
X106943440Y-85402918D01*
X106894783Y-85408761D01*
X106865216Y-85408761D01*
X106785060Y-85399136D01*
X106720846Y-85371599D01*
X106681713Y-85313717D01*
X106676624Y-85262136D01*
X106687306Y-85167331D01*
X106687306Y-85167326D01*
X106683842Y-85136583D01*
X106695896Y-85067761D01*
X106743245Y-85016381D01*
X106807062Y-84998699D01*
X108127871Y-84998699D01*
X108127872Y-84998699D01*
X108187483Y-84992291D01*
X108322331Y-84941996D01*
X108437546Y-84855746D01*
X108523796Y-84740531D01*
X108574091Y-84605683D01*
X108580500Y-84546073D01*
X108580499Y-81250328D01*
X108574091Y-81190717D01*
X108523796Y-81055869D01*
X108523795Y-81055868D01*
X108523793Y-81055864D01*
X108437547Y-80940655D01*
X108437544Y-80940652D01*
X108322335Y-80854406D01*
X108322328Y-80854402D01*
X108187482Y-80804108D01*
X108187483Y-80804108D01*
X108127883Y-80797701D01*
X108127881Y-80797700D01*
X108127873Y-80797700D01*
X108127865Y-80797700D01*
X107598151Y-80797700D01*
X107531112Y-80778015D01*
X107485357Y-80725211D01*
X107474931Y-80659817D01*
X107483177Y-80586630D01*
X107483177Y-80586625D01*
X107477268Y-80534186D01*
X107489322Y-80465364D01*
X107536671Y-80413984D01*
X107585696Y-80397187D01*
X107661564Y-80388077D01*
X107661569Y-80388074D01*
X107665216Y-80387637D01*
X107694785Y-80387638D01*
G37*
%TD.AperFunction*%
%TD*%
M02*
