%TF.GenerationSoftware,KiCad,Pcbnew,8.0.4*%
%TF.CreationDate,2024-08-20T22:26:34+10:00*%
%TF.ProjectId,banana17_main,62616e61-6e61-4313-975f-6d61696e2e6b,rev?*%
%TF.SameCoordinates,Original*%
%TF.FileFunction,Copper,L1,Top*%
%TF.FilePolarity,Positive*%
%FSLAX46Y46*%
G04 Gerber Fmt 4.6, Leading zero omitted, Abs format (unit mm)*
G04 Created by KiCad (PCBNEW 8.0.4) date 2024-08-20 22:26:34*
%MOMM*%
%LPD*%
G01*
G04 APERTURE LIST*
%TA.AperFunction,ComponentPad*%
%ADD10C,2.000000*%
%TD*%
%TA.AperFunction,ComponentPad*%
%ADD11R,3.200000X2.000000*%
%TD*%
%TA.AperFunction,ComponentPad*%
%ADD12R,2.000000X2.000000*%
%TD*%
%TA.AperFunction,ComponentPad*%
%ADD13C,1.700000*%
%TD*%
%TA.AperFunction,ComponentPad*%
%ADD14R,1.700000X1.700000*%
%TD*%
%TA.AperFunction,ComponentPad*%
%ADD15O,1.100000X2.200000*%
%TD*%
%TA.AperFunction,ComponentPad*%
%ADD16O,1.300000X1.700000*%
%TD*%
%TA.AperFunction,ViaPad*%
%ADD17C,0.600000*%
%TD*%
%TA.AperFunction,Conductor*%
%ADD18C,0.200000*%
%TD*%
%TA.AperFunction,Conductor*%
%ADD19C,0.500000*%
%TD*%
G04 APERTURE END LIST*
D10*
%TO.P,ENC2,S2,S2*%
%TO.N,ROW5*%
X111830000Y-135550000D03*
%TO.P,ENC2,S1,S1*%
%TO.N,Net-(ENC_D2-A)*%
X111830000Y-140550000D03*
D11*
%TO.P,ENC2,MP*%
%TO.N,N/C*%
X104830000Y-143650000D03*
X104830000Y-132450000D03*
D10*
%TO.P,ENC2,C,C*%
%TO.N,GND*%
X97330000Y-138050000D03*
%TO.P,ENC2,B,B*%
%TO.N,ENC2_B*%
X97330000Y-140550000D03*
D12*
%TO.P,ENC2,A,A*%
%TO.N,ENC2_A*%
X97330000Y-135550000D03*
%TD*%
%TO.P,ENC1,A,A*%
%TO.N,ENC1_A*%
X97360000Y-114520000D03*
D10*
%TO.P,ENC1,B,B*%
%TO.N,ENC1_B*%
X97360000Y-119520000D03*
%TO.P,ENC1,C,C*%
%TO.N,GND*%
X97360000Y-117020000D03*
D11*
%TO.P,ENC1,MP*%
%TO.N,N/C*%
X104860000Y-111420000D03*
X104860000Y-122620000D03*
D10*
%TO.P,ENC1,S1,S1*%
%TO.N,Net-(ENC_D1-A)*%
X111860000Y-119520000D03*
%TO.P,ENC1,S2,S2*%
%TO.N,COL0*%
X111860000Y-114520000D03*
%TD*%
D13*
%TO.P,U3,1,SDA*%
%TO.N,OLED_SDA*%
X101049314Y-100858200D03*
%TO.P,U3,2,SCL*%
%TO.N,OLED_SCL*%
X103589314Y-100858200D03*
%TO.P,U3,3,VCC*%
%TO.N,VBUS*%
X106129314Y-100858200D03*
D14*
%TO.P,U3,4,GND*%
%TO.N,GND*%
X108669314Y-100858200D03*
%TD*%
D15*
%TO.P,J1,S1,SHIELD*%
%TO.N,GND*%
X109110000Y-61593200D03*
D16*
X109110000Y-57413200D03*
D15*
X100470000Y-61593200D03*
D16*
X100470000Y-57413200D03*
%TD*%
D17*
%TO.N,GND*%
X113390000Y-85963200D03*
X107110000Y-70713200D03*
X105895547Y-96673410D03*
X103557500Y-71688200D03*
X95329426Y-67951543D03*
X111850000Y-64523200D03*
X107645000Y-81758200D03*
X97458650Y-65174560D03*
X105295000Y-81708200D03*
X103520000Y-89608200D03*
X105295000Y-82908200D03*
X100581157Y-76227202D03*
X112740000Y-78213200D03*
X103529270Y-66087828D03*
X103390000Y-75363200D03*
X106445000Y-84108200D03*
X107620000Y-82908200D03*
X102390000Y-75363200D03*
X100109030Y-79500812D03*
X107620000Y-84108200D03*
X100074066Y-84222490D03*
X112660000Y-69073200D03*
X106530706Y-66075700D03*
X106445000Y-82933200D03*
X105295000Y-84083200D03*
X103760898Y-92286114D03*
X108323058Y-76046258D03*
X106445000Y-81733200D03*
X107130000Y-74813200D03*
X107745000Y-88113200D03*
X109439831Y-92282357D03*
%TO.N,+1V1*%
X104680000Y-80573200D03*
X106677612Y-80586627D03*
X105881741Y-85167329D03*
%TO.N,+3V3*%
X99308581Y-75651395D03*
X102078988Y-80297610D03*
X106190000Y-75643200D03*
X103840000Y-78363200D03*
X99303459Y-72757352D03*
X101380365Y-78170082D03*
X98592127Y-65211215D03*
X99309719Y-69461823D03*
X102390000Y-78163200D03*
X101211095Y-82812483D03*
X112240000Y-79863200D03*
X105940000Y-89913200D03*
X101240000Y-79513200D03*
X107099740Y-73571591D03*
X108850389Y-73443519D03*
X111325000Y-83898200D03*
%TO.N,VBUS*%
X101140000Y-70513200D03*
%TO.N,COL1*%
X134600000Y-59242193D03*
X114565968Y-82098200D03*
X134588887Y-78290753D03*
X134600000Y-97340658D03*
X134600000Y-116387498D03*
%TO.N,COL2*%
X153498451Y-59239807D03*
X153509376Y-116387484D03*
X153498409Y-97345459D03*
X153498451Y-78289504D03*
X150110000Y-135640000D03*
X114540000Y-83213200D03*
%TO.N,COL3*%
X172570000Y-78320000D03*
X113540000Y-83213200D03*
X172580000Y-135440000D03*
X172580000Y-116380000D03*
X172570000Y-97340602D03*
X172560000Y-59240000D03*
%TD*%
D18*
%TO.N,COL1*%
X118750000Y-91800000D02*
X134600000Y-91800000D01*
X116500000Y-89550000D02*
X118750000Y-91800000D01*
X116500000Y-84032232D02*
X116500000Y-89550000D01*
X114565968Y-82098200D02*
X116500000Y-84032232D01*
%TO.N,COL3*%
X172580000Y-143860000D02*
X172580000Y-135440000D01*
X115250000Y-143500000D02*
X117200000Y-145450000D01*
X117200000Y-145450000D02*
X170990000Y-145450000D01*
X170990000Y-145450000D02*
X172580000Y-143860000D01*
X115250000Y-84923200D02*
X115250000Y-143500000D01*
X113540000Y-83213200D02*
X115250000Y-84923200D01*
%TO.N,COL2*%
X117870000Y-129370000D02*
X153509376Y-129370000D01*
X114540000Y-83213200D02*
X115860000Y-84533200D01*
X115860000Y-84533200D02*
X115860000Y-127360000D01*
X115860000Y-127360000D02*
X117870000Y-129370000D01*
D19*
%TO.N,VBUS*%
X106129314Y-98472514D02*
X106129314Y-100858200D01*
X96670000Y-70513200D02*
X95150000Y-72033200D01*
X95150000Y-72033200D02*
X95150000Y-87493200D01*
X101140000Y-70513200D02*
X96670000Y-70513200D01*
X95150000Y-87493200D02*
X106129314Y-98472514D01*
D18*
%TO.N,COL1*%
X134600000Y-91800000D02*
X134600000Y-97340658D01*
X114565968Y-82098200D02*
X114675000Y-82098200D01*
X134600000Y-97340658D02*
X134600000Y-116387498D01*
X134600000Y-59242193D02*
X134600000Y-91800000D01*
%TO.N,COL2*%
X150120000Y-135650000D02*
X150110000Y-135640000D01*
X153498451Y-78289504D02*
X153498451Y-97345417D01*
X153498451Y-59239807D02*
X153498451Y-78289504D01*
X153498409Y-116376517D02*
X153509376Y-116387484D01*
X153509376Y-116387484D02*
X153509376Y-132240624D01*
X153509376Y-132240624D02*
X150110000Y-135640000D01*
X153498409Y-97345459D02*
X153498409Y-116376517D01*
X153498451Y-97345417D02*
X153498409Y-97345459D01*
%TO.N,COL3*%
X172560000Y-78310000D02*
X172570000Y-78320000D01*
X172580000Y-116380000D02*
X172580000Y-135440000D01*
X172570000Y-97340602D02*
X172580000Y-97350602D01*
X172560000Y-59240000D02*
X172560000Y-78310000D01*
X172580000Y-97350602D02*
X172580000Y-116380000D01*
X172570000Y-78320000D02*
X172570000Y-97340602D01*
%TD*%
M02*
