M48
; DRILL file {KiCad 8.0.4} date 2024-08-11T19:17:19+1000
; FORMAT={-:-/ absolute / inch / decimal}
; #@! TF.CreationDate,2024-08-11T19:17:19+10:00
; #@! TF.GenerationSoftware,Kicad,Pcbnew,8.0.4
; #@! TF.FileFunction,Plated,1,4,PTH
FMAT,2
INCH
; #@! TA.AperFunction,Plated,PTH,ViaDrill
T1C0.0118
; #@! TA.AperFunction,Plated,PTH,ComponentDrill
T2C0.0236
; #@! TA.AperFunction,Plated,PTH,ComponentDrill
T3C0.0394
; #@! TA.AperFunction,Plated,PTH,ComponentDrill
T4C0.0591
%
G90
G05
T1
X3.7791Y-2.5763
X3.8629Y-2.467
X3.9076Y-2.4684
X3.9356Y-2.7655
X3.9358Y-2.8795
X3.9358Y-2.6358
X3.9659Y-3.2169
X3.9673Y-3.031
X3.9859Y-2.9021
X4.0079Y-2.6772
X4.0107Y-3.1614
X4.0118Y-3.0315
X4.0173Y-2.9786
X4.0448Y-3.0624
X4.0571Y-2.8681
X4.0571Y-2.9783
X4.0874Y-2.5343
X4.0965Y-2.8681
X4.1016Y-3.4289
X4.1031Y-2.7234
X4.1142Y-2.9862
X4.1162Y-3.4837
X4.1472Y-3.0732
X4.1715Y-3.1179
X4.1715Y-3.1652
X4.1715Y-3.2114
X4.1946Y-3.2541
X4.1969Y-3.4409
X4.2002Y-3.6564
X4.2167Y-3.1189
X4.2167Y-3.1661
X4.2167Y-3.2124
X4.2259Y-3.0738
X4.2425Y-2.7976
X4.2429Y-2.685
X4.2437Y-2.8465
X4.2442Y-2.5395
X4.263Y-3.1652
X4.263Y-3.2124
X4.264Y-3.1199
X4.2679Y-3.3701
X4.2907Y-2.895
X4.3114Y-2.7925
X4.3398Y-3.4835
X4.4089Y-3.2041
X4.4295Y-2.4413
X4.4449Y-3.0453
X4.4614Y-2.6205
X4.4646Y-2.9803
X4.4882Y-3.2205
X4.4902Y-3.2854
X4.4961Y-3.1772
X4.5354Y-3.1772
X4.5365Y-3.1333
X5.2988Y-3.0823
X5.2992Y-2.3324
X5.2992Y-3.8323
X5.2992Y-4.5822
X5.9098Y-5.3402
X6.0432Y-3.8325
X6.0432Y-2.3323
X6.0432Y-3.0823
X6.0437Y-4.5822
X6.7937Y-2.3323
X6.7941Y-3.0835
X6.7941Y-3.8323
X6.7945Y-4.5819
X6.7945Y-5.3323
X7.5772Y-4.9571
X7.5773Y-2.3322
X7.5773Y-3.4575
T3
X3.8602Y-4.3819
X3.8602Y-4.4803
X3.8602Y-4.5787
X3.8602Y-5.2323
X3.8602Y-5.3307
X3.8602Y-5.4291
X4.0043Y-3.9358
X4.1043Y-3.9358
X4.2043Y-3.9358
X4.3043Y-3.9358
X4.4311Y-4.3819
X4.4311Y-4.5787
X4.4311Y-5.2323
X4.4311Y-5.4291
T2
G00X3.9819Y-2.1676
M15
G01X3.9819Y-2.1912
M16
G05
G00X3.9819Y-2.3223
M15
G01X3.9819Y-2.3656
M16
G05
G00X4.3221Y-2.1676
M15
G01X4.3221Y-2.1912
M16
G05
G00X4.3221Y-2.3223
M15
G01X4.3221Y-2.3656
M16
G05
T4
G00X4.1299Y-4.2598
M15
G01X4.1811Y-4.2598
M16
G05
G00X4.1299Y-4.7008
M15
G01X4.1811Y-4.7008
M16
G05
G00X4.1299Y-5.1102
M15
G01X4.1811Y-5.1102
M16
G05
G00X4.1299Y-5.5512
M15
G01X4.1811Y-5.5512
M16
G05
M30
