%TF.GenerationSoftware,KiCad,Pcbnew,8.0.1*%
%TF.CreationDate,2024-08-08T15:56:38+10:00*%
%TF.ProjectId,banana17_main,62616e61-6e61-4313-975f-6d61696e2e6b,rev?*%
%TF.SameCoordinates,Original*%
%TF.FileFunction,Drillmap*%
%TF.FilePolarity,Positive*%
%FSLAX45Y45*%
G04 Gerber Fmt 4.5, Leading zero omitted, Abs format (unit mm)*
G04 Created by KiCad (PCBNEW 8.0.1) date 2024-08-08 15:56:38*
%MOMM*%
%LPD*%
G01*
G04 APERTURE LIST*
%ADD10C,0.050000*%
%ADD11C,0.200000*%
%ADD12C,0.100000*%
%ADD13C,0.170180*%
%ADD14C,0.300000*%
%ADD15C,0.304800*%
%ADD16C,0.398780*%
G04 APERTURE END LIST*
D10*
X9500000Y-5610000D02*
G75*
G02*
X9810126Y-5299740I310260J0D01*
G01*
X9800000Y-15300000D02*
G75*
G02*
X9500000Y-15000000I0J300000D01*
G01*
X9810126Y-5299736D02*
X19190000Y-5300000D01*
X19500000Y-14989736D02*
G75*
G02*
X19189874Y-15300000I-310260J-4D01*
G01*
X9500000Y-15000000D02*
X9500000Y-5610000D01*
X9800000Y-15300000D02*
X19189874Y-15300000D01*
X19190000Y-5300000D02*
G75*
G02*
X19500260Y-5610126I0J-310260D01*
G01*
X19500264Y-5610126D02*
X19500000Y-14989736D01*
D11*
D12*
X10216986Y-5878500D02*
X10281986Y-5943500D01*
X10281986Y-5878500D02*
X10216986Y-5943500D01*
X10794986Y-5878500D02*
X10859986Y-5943500D01*
X10859986Y-5878500D02*
X10794986Y-5943500D01*
D13*
X12197890Y-6432000D02*
G75*
G02*
X12027710Y-6432000I-85090J0D01*
G01*
X12027710Y-6432000D02*
G75*
G02*
X12197890Y-6432000I85090J0D01*
G01*
X12197890Y-8337000D02*
G75*
G02*
X12027710Y-8337000I-85090J0D01*
G01*
X12027710Y-8337000D02*
G75*
G02*
X12197890Y-8337000I85090J0D01*
G01*
X12197890Y-10242000D02*
G75*
G02*
X12027710Y-10242000I-85090J0D01*
G01*
X12027710Y-10242000D02*
G75*
G02*
X12197890Y-10242000I85090J0D01*
G01*
X12197890Y-12147000D02*
G75*
G02*
X12027710Y-12147000I-85090J0D01*
G01*
X12027710Y-12147000D02*
G75*
G02*
X12197890Y-12147000I85090J0D01*
G01*
X13150390Y-14052000D02*
G75*
G02*
X12980210Y-14052000I-85090J0D01*
G01*
X12980210Y-14052000D02*
G75*
G02*
X13150390Y-14052000I85090J0D01*
G01*
X13213890Y-6432000D02*
G75*
G02*
X13043710Y-6432000I-85090J0D01*
G01*
X13043710Y-6432000D02*
G75*
G02*
X13213890Y-6432000I85090J0D01*
G01*
X13213890Y-8337000D02*
G75*
G02*
X13043710Y-8337000I-85090J0D01*
G01*
X13043710Y-8337000D02*
G75*
G02*
X13213890Y-8337000I85090J0D01*
G01*
X13213890Y-10242000D02*
G75*
G02*
X13043710Y-10242000I-85090J0D01*
G01*
X13043710Y-10242000D02*
G75*
G02*
X13213890Y-10242000I85090J0D01*
G01*
X13213890Y-12147000D02*
G75*
G02*
X13043710Y-12147000I-85090J0D01*
G01*
X13043710Y-12147000D02*
G75*
G02*
X13213890Y-12147000I85090J0D01*
G01*
X14102890Y-6432000D02*
G75*
G02*
X13932710Y-6432000I-85090J0D01*
G01*
X13932710Y-6432000D02*
G75*
G02*
X14102890Y-6432000I85090J0D01*
G01*
X14102890Y-8337000D02*
G75*
G02*
X13932710Y-8337000I-85090J0D01*
G01*
X13932710Y-8337000D02*
G75*
G02*
X14102890Y-8337000I85090J0D01*
G01*
X14102890Y-10242000D02*
G75*
G02*
X13932710Y-10242000I-85090J0D01*
G01*
X13932710Y-10242000D02*
G75*
G02*
X14102890Y-10242000I85090J0D01*
G01*
X14102890Y-12147000D02*
G75*
G02*
X13932710Y-12147000I-85090J0D01*
G01*
X13932710Y-12147000D02*
G75*
G02*
X14102890Y-12147000I85090J0D01*
G01*
X14166390Y-14052000D02*
G75*
G02*
X13996210Y-14052000I-85090J0D01*
G01*
X13996210Y-14052000D02*
G75*
G02*
X14166390Y-14052000I85090J0D01*
G01*
X15118890Y-6432000D02*
G75*
G02*
X14948710Y-6432000I-85090J0D01*
G01*
X14948710Y-6432000D02*
G75*
G02*
X15118890Y-6432000I85090J0D01*
G01*
X15118890Y-8337000D02*
G75*
G02*
X14948710Y-8337000I-85090J0D01*
G01*
X14948710Y-8337000D02*
G75*
G02*
X15118890Y-8337000I85090J0D01*
G01*
X15118890Y-10242000D02*
G75*
G02*
X14948710Y-10242000I-85090J0D01*
G01*
X14948710Y-10242000D02*
G75*
G02*
X15118890Y-10242000I85090J0D01*
G01*
X15118890Y-12147000D02*
G75*
G02*
X14948710Y-12147000I-85090J0D01*
G01*
X14948710Y-12147000D02*
G75*
G02*
X15118890Y-12147000I85090J0D01*
G01*
X16007890Y-6432000D02*
G75*
G02*
X15837710Y-6432000I-85090J0D01*
G01*
X15837710Y-6432000D02*
G75*
G02*
X16007890Y-6432000I85090J0D01*
G01*
X16007890Y-8337000D02*
G75*
G02*
X15837710Y-8337000I-85090J0D01*
G01*
X15837710Y-8337000D02*
G75*
G02*
X16007890Y-8337000I85090J0D01*
G01*
X16007890Y-10242000D02*
G75*
G02*
X15837710Y-10242000I-85090J0D01*
G01*
X15837710Y-10242000D02*
G75*
G02*
X16007890Y-10242000I85090J0D01*
G01*
X16007890Y-12147000D02*
G75*
G02*
X15837710Y-12147000I-85090J0D01*
G01*
X15837710Y-12147000D02*
G75*
G02*
X16007890Y-12147000I85090J0D01*
G01*
X16007890Y-14052000D02*
G75*
G02*
X15837710Y-14052000I-85090J0D01*
G01*
X15837710Y-14052000D02*
G75*
G02*
X16007890Y-14052000I85090J0D01*
G01*
X17023890Y-6432000D02*
G75*
G02*
X16853710Y-6432000I-85090J0D01*
G01*
X16853710Y-6432000D02*
G75*
G02*
X17023890Y-6432000I85090J0D01*
G01*
X17023890Y-8337000D02*
G75*
G02*
X16853710Y-8337000I-85090J0D01*
G01*
X16853710Y-8337000D02*
G75*
G02*
X17023890Y-8337000I85090J0D01*
G01*
X17023890Y-10242000D02*
G75*
G02*
X16853710Y-10242000I-85090J0D01*
G01*
X16853710Y-10242000D02*
G75*
G02*
X17023890Y-10242000I85090J0D01*
G01*
X17023890Y-12147000D02*
G75*
G02*
X16853710Y-12147000I-85090J0D01*
G01*
X16853710Y-12147000D02*
G75*
G02*
X17023890Y-12147000I85090J0D01*
G01*
X17023890Y-14052000D02*
G75*
G02*
X16853710Y-14052000I-85090J0D01*
G01*
X16853710Y-14052000D02*
G75*
G02*
X17023890Y-14052000I85090J0D01*
G01*
X17912890Y-6432000D02*
G75*
G02*
X17742710Y-6432000I-85090J0D01*
G01*
X17742710Y-6432000D02*
G75*
G02*
X17912890Y-6432000I85090J0D01*
G01*
X17912890Y-9289500D02*
G75*
G02*
X17742710Y-9289500I-85090J0D01*
G01*
X17742710Y-9289500D02*
G75*
G02*
X17912890Y-9289500I85090J0D01*
G01*
X17912890Y-13099500D02*
G75*
G02*
X17742710Y-13099500I-85090J0D01*
G01*
X17742710Y-13099500D02*
G75*
G02*
X17912890Y-13099500I85090J0D01*
G01*
X18928890Y-6432000D02*
G75*
G02*
X18758710Y-6432000I-85090J0D01*
G01*
X18758710Y-6432000D02*
G75*
G02*
X18928890Y-6432000I85090J0D01*
G01*
X18928890Y-9289500D02*
G75*
G02*
X18758710Y-9289500I-85090J0D01*
G01*
X18758710Y-9289500D02*
G75*
G02*
X18928890Y-9289500I85090J0D01*
G01*
X18928890Y-13099500D02*
G75*
G02*
X18758710Y-13099500I-85090J0D01*
G01*
X18758710Y-13099500D02*
G75*
G02*
X18928890Y-13099500I85090J0D01*
G01*
D14*
X12239800Y-6028000D02*
X12239800Y-6328000D01*
X12089800Y-6178000D02*
X12389800Y-6178000D01*
X12239800Y-7933000D02*
X12239800Y-8233000D01*
X12089800Y-8083000D02*
X12389800Y-8083000D01*
X12239800Y-9838000D02*
X12239800Y-10138000D01*
X12089800Y-9988000D02*
X12389800Y-9988000D01*
X12239800Y-11743000D02*
X12239800Y-12043000D01*
X12089800Y-11893000D02*
X12389800Y-11893000D01*
X12874800Y-5774000D02*
X12874800Y-6074000D01*
X12724800Y-5924000D02*
X13024800Y-5924000D01*
X12874800Y-7679000D02*
X12874800Y-7979000D01*
X12724800Y-7829000D02*
X13024800Y-7829000D01*
X12874800Y-9584000D02*
X12874800Y-9884000D01*
X12724800Y-9734000D02*
X13024800Y-9734000D01*
X12874800Y-11489000D02*
X12874800Y-11789000D01*
X12724800Y-11639000D02*
X13024800Y-11639000D01*
X13192300Y-13648000D02*
X13192300Y-13948000D01*
X13042300Y-13798000D02*
X13342300Y-13798000D01*
X13827300Y-13394000D02*
X13827300Y-13694000D01*
X13677300Y-13544000D02*
X13977300Y-13544000D01*
X14144800Y-6028000D02*
X14144800Y-6328000D01*
X13994800Y-6178000D02*
X14294800Y-6178000D01*
X14144800Y-7933000D02*
X14144800Y-8233000D01*
X13994800Y-8083000D02*
X14294800Y-8083000D01*
X14144800Y-9838000D02*
X14144800Y-10138000D01*
X13994800Y-9988000D02*
X14294800Y-9988000D01*
X14144800Y-11743000D02*
X14144800Y-12043000D01*
X13994800Y-11893000D02*
X14294800Y-11893000D01*
X14779800Y-5774000D02*
X14779800Y-6074000D01*
X14629800Y-5924000D02*
X14929800Y-5924000D01*
X14779800Y-7679000D02*
X14779800Y-7979000D01*
X14629800Y-7829000D02*
X14929800Y-7829000D01*
X14779800Y-9584000D02*
X14779800Y-9884000D01*
X14629800Y-9734000D02*
X14929800Y-9734000D01*
X14779800Y-11489000D02*
X14779800Y-11789000D01*
X14629800Y-11639000D02*
X14929800Y-11639000D01*
X16049800Y-6028000D02*
X16049800Y-6328000D01*
X15899800Y-6178000D02*
X16199800Y-6178000D01*
X16049800Y-7933000D02*
X16049800Y-8233000D01*
X15899800Y-8083000D02*
X16199800Y-8083000D01*
X16049800Y-9838000D02*
X16049800Y-10138000D01*
X15899800Y-9988000D02*
X16199800Y-9988000D01*
X16049800Y-11743000D02*
X16049800Y-12043000D01*
X15899800Y-11893000D02*
X16199800Y-11893000D01*
X16049800Y-13648000D02*
X16049800Y-13948000D01*
X15899800Y-13798000D02*
X16199800Y-13798000D01*
X16684800Y-5774000D02*
X16684800Y-6074000D01*
X16534800Y-5924000D02*
X16834800Y-5924000D01*
X16684800Y-7679000D02*
X16684800Y-7979000D01*
X16534800Y-7829000D02*
X16834800Y-7829000D01*
X16684800Y-9584000D02*
X16684800Y-9884000D01*
X16534800Y-9734000D02*
X16834800Y-9734000D01*
X16684800Y-11489000D02*
X16684800Y-11789000D01*
X16534800Y-11639000D02*
X16834800Y-11639000D01*
X16684800Y-13394000D02*
X16684800Y-13694000D01*
X16534800Y-13544000D02*
X16834800Y-13544000D01*
X17954800Y-6028000D02*
X17954800Y-6328000D01*
X17804800Y-6178000D02*
X18104800Y-6178000D01*
X17954800Y-8885500D02*
X17954800Y-9185500D01*
X17804800Y-9035500D02*
X18104800Y-9035500D01*
X17954800Y-12695500D02*
X17954800Y-12995500D01*
X17804800Y-12845500D02*
X18104800Y-12845500D01*
X18589800Y-5774000D02*
X18589800Y-6074000D01*
X18439800Y-5924000D02*
X18739800Y-5924000D01*
X18589800Y-8631500D02*
X18589800Y-8931500D01*
X18439800Y-8781500D02*
X18739800Y-8781500D01*
X18589800Y-12441500D02*
X18589800Y-12741500D01*
X18439800Y-12591500D02*
X18739800Y-12591500D01*
D15*
X12487264Y-13461264D02*
X12487264Y-13245736D01*
X12271736Y-13245736D01*
X12271736Y-13461264D01*
X12487264Y-13461264D01*
X14874864Y-13461264D02*
X14874864Y-13245736D01*
X14659336Y-13245736D01*
X14659336Y-13461264D01*
X14874864Y-13461264D01*
X19142064Y-8203464D02*
X19142064Y-7987936D01*
X18926536Y-7987936D01*
X18926536Y-8203464D01*
X19142064Y-8203464D01*
X19142064Y-10591064D02*
X19142064Y-10375536D01*
X18926536Y-10375536D01*
X18926536Y-10591064D01*
X19142064Y-10591064D01*
X19142064Y-12013464D02*
X19142064Y-11797936D01*
X18926536Y-11797936D01*
X18926536Y-12013464D01*
X19142064Y-12013464D01*
X19142064Y-14401064D02*
X19142064Y-14185536D01*
X18926536Y-14185536D01*
X18926536Y-14401064D01*
X19142064Y-14401064D01*
D16*
X12379500Y-15076890D02*
X12578890Y-14877500D01*
X12379500Y-14678110D01*
X12180110Y-14877500D01*
X12379500Y-15076890D01*
X12620800Y-6631390D02*
X12820190Y-6432000D01*
X12620800Y-6232610D01*
X12421410Y-6432000D01*
X12620800Y-6631390D01*
X12620800Y-8536390D02*
X12820190Y-8337000D01*
X12620800Y-8137610D01*
X12421410Y-8337000D01*
X12620800Y-8536390D01*
X12620800Y-10441390D02*
X12820190Y-10242000D01*
X12620800Y-10042610D01*
X12421410Y-10242000D01*
X12620800Y-10441390D01*
X12620800Y-12346390D02*
X12820190Y-12147000D01*
X12620800Y-11947610D01*
X12421410Y-12147000D01*
X12620800Y-12346390D01*
X13573300Y-14251390D02*
X13772690Y-14052000D01*
X13573300Y-13852610D01*
X13373910Y-14052000D01*
X13573300Y-14251390D01*
X14525800Y-6631390D02*
X14725190Y-6432000D01*
X14525800Y-6232610D01*
X14326410Y-6432000D01*
X14525800Y-6631390D01*
X14525800Y-8536390D02*
X14725190Y-8337000D01*
X14525800Y-8137610D01*
X14326410Y-8337000D01*
X14525800Y-8536390D01*
X14525800Y-10441390D02*
X14725190Y-10242000D01*
X14525800Y-10042610D01*
X14326410Y-10242000D01*
X14525800Y-10441390D01*
X14525800Y-12346390D02*
X14725190Y-12147000D01*
X14525800Y-11947610D01*
X14326410Y-12147000D01*
X14525800Y-12346390D01*
X14767100Y-15076890D02*
X14966490Y-14877500D01*
X14767100Y-14678110D01*
X14567710Y-14877500D01*
X14767100Y-15076890D01*
X16430800Y-6631390D02*
X16630190Y-6432000D01*
X16430800Y-6232610D01*
X16231410Y-6432000D01*
X16430800Y-6631390D01*
X16430800Y-8536390D02*
X16630190Y-8337000D01*
X16430800Y-8137610D01*
X16231410Y-8337000D01*
X16430800Y-8536390D01*
X16430800Y-10441390D02*
X16630190Y-10242000D01*
X16430800Y-10042610D01*
X16231410Y-10242000D01*
X16430800Y-10441390D01*
X16430800Y-12346390D02*
X16630190Y-12147000D01*
X16430800Y-11947610D01*
X16231410Y-12147000D01*
X16430800Y-12346390D01*
X16430800Y-14251390D02*
X16630190Y-14052000D01*
X16430800Y-13852610D01*
X16231410Y-14052000D01*
X16430800Y-14251390D01*
X17510300Y-8295090D02*
X17709690Y-8095700D01*
X17510300Y-7896310D01*
X17310910Y-8095700D01*
X17510300Y-8295090D01*
X17510300Y-10682690D02*
X17709690Y-10483300D01*
X17510300Y-10283910D01*
X17310910Y-10483300D01*
X17510300Y-10682690D01*
X17510300Y-12105090D02*
X17709690Y-11905700D01*
X17510300Y-11706310D01*
X17310910Y-11905700D01*
X17510300Y-12105090D01*
X17510300Y-14492690D02*
X17709690Y-14293300D01*
X17510300Y-14093910D01*
X17310910Y-14293300D01*
X17510300Y-14492690D01*
X18335800Y-6631390D02*
X18535190Y-6432000D01*
X18335800Y-6232610D01*
X18136410Y-6432000D01*
X18335800Y-6631390D01*
X18335800Y-9488890D02*
X18535190Y-9289500D01*
X18335800Y-9090110D01*
X18136410Y-9289500D01*
X18335800Y-9488890D01*
X18335800Y-13298890D02*
X18535190Y-13099500D01*
X18335800Y-12900110D01*
X18136410Y-13099500D01*
X18335800Y-13298890D01*
D11*
X9758277Y-15613984D02*
X9758277Y-15413984D01*
X9758277Y-15413984D02*
X9805896Y-15413984D01*
X9805896Y-15413984D02*
X9834467Y-15423508D01*
X9834467Y-15423508D02*
X9853515Y-15442555D01*
X9853515Y-15442555D02*
X9863039Y-15461603D01*
X9863039Y-15461603D02*
X9872563Y-15499698D01*
X9872563Y-15499698D02*
X9872563Y-15528269D01*
X9872563Y-15528269D02*
X9863039Y-15566365D01*
X9863039Y-15566365D02*
X9853515Y-15585412D01*
X9853515Y-15585412D02*
X9834467Y-15604460D01*
X9834467Y-15604460D02*
X9805896Y-15613984D01*
X9805896Y-15613984D02*
X9758277Y-15613984D01*
X9958277Y-15613984D02*
X9958277Y-15480650D01*
X9958277Y-15518746D02*
X9967801Y-15499698D01*
X9967801Y-15499698D02*
X9977324Y-15490174D01*
X9977324Y-15490174D02*
X9996372Y-15480650D01*
X9996372Y-15480650D02*
X10015420Y-15480650D01*
X10082086Y-15613984D02*
X10082086Y-15480650D01*
X10082086Y-15413984D02*
X10072563Y-15423508D01*
X10072563Y-15423508D02*
X10082086Y-15433031D01*
X10082086Y-15433031D02*
X10091610Y-15423508D01*
X10091610Y-15423508D02*
X10082086Y-15413984D01*
X10082086Y-15413984D02*
X10082086Y-15433031D01*
X10205896Y-15613984D02*
X10186848Y-15604460D01*
X10186848Y-15604460D02*
X10177324Y-15585412D01*
X10177324Y-15585412D02*
X10177324Y-15413984D01*
X10310658Y-15613984D02*
X10291610Y-15604460D01*
X10291610Y-15604460D02*
X10282086Y-15585412D01*
X10282086Y-15585412D02*
X10282086Y-15413984D01*
X10539229Y-15613984D02*
X10539229Y-15413984D01*
X10539229Y-15413984D02*
X10605896Y-15556841D01*
X10605896Y-15556841D02*
X10672563Y-15413984D01*
X10672563Y-15413984D02*
X10672563Y-15613984D01*
X10853515Y-15613984D02*
X10853515Y-15509222D01*
X10853515Y-15509222D02*
X10843991Y-15490174D01*
X10843991Y-15490174D02*
X10824944Y-15480650D01*
X10824944Y-15480650D02*
X10786848Y-15480650D01*
X10786848Y-15480650D02*
X10767801Y-15490174D01*
X10853515Y-15604460D02*
X10834467Y-15613984D01*
X10834467Y-15613984D02*
X10786848Y-15613984D01*
X10786848Y-15613984D02*
X10767801Y-15604460D01*
X10767801Y-15604460D02*
X10758277Y-15585412D01*
X10758277Y-15585412D02*
X10758277Y-15566365D01*
X10758277Y-15566365D02*
X10767801Y-15547317D01*
X10767801Y-15547317D02*
X10786848Y-15537793D01*
X10786848Y-15537793D02*
X10834467Y-15537793D01*
X10834467Y-15537793D02*
X10853515Y-15528269D01*
X10948753Y-15480650D02*
X10948753Y-15680650D01*
X10948753Y-15490174D02*
X10967801Y-15480650D01*
X10967801Y-15480650D02*
X11005896Y-15480650D01*
X11005896Y-15480650D02*
X11024944Y-15490174D01*
X11024944Y-15490174D02*
X11034467Y-15499698D01*
X11034467Y-15499698D02*
X11043991Y-15518746D01*
X11043991Y-15518746D02*
X11043991Y-15575888D01*
X11043991Y-15575888D02*
X11034467Y-15594936D01*
X11034467Y-15594936D02*
X11024944Y-15604460D01*
X11024944Y-15604460D02*
X11005896Y-15613984D01*
X11005896Y-15613984D02*
X10967801Y-15613984D01*
X10967801Y-15613984D02*
X10948753Y-15604460D01*
X11129705Y-15594936D02*
X11139229Y-15604460D01*
X11139229Y-15604460D02*
X11129705Y-15613984D01*
X11129705Y-15613984D02*
X11120182Y-15604460D01*
X11120182Y-15604460D02*
X11129705Y-15594936D01*
X11129705Y-15594936D02*
X11129705Y-15613984D01*
X11129705Y-15490174D02*
X11139229Y-15499698D01*
X11139229Y-15499698D02*
X11129705Y-15509222D01*
X11129705Y-15509222D02*
X11120182Y-15499698D01*
X11120182Y-15499698D02*
X11129705Y-15490174D01*
X11129705Y-15490174D02*
X11129705Y-15509222D01*
D12*
X9432500Y-15910000D02*
X9497500Y-15975000D01*
X9497500Y-15910000D02*
X9432500Y-15975000D01*
D11*
X9796372Y-15833984D02*
X9815420Y-15833984D01*
X9815420Y-15833984D02*
X9834467Y-15843508D01*
X9834467Y-15843508D02*
X9843991Y-15853031D01*
X9843991Y-15853031D02*
X9853515Y-15872079D01*
X9853515Y-15872079D02*
X9863039Y-15910174D01*
X9863039Y-15910174D02*
X9863039Y-15957793D01*
X9863039Y-15957793D02*
X9853515Y-15995888D01*
X9853515Y-15995888D02*
X9843991Y-16014936D01*
X9843991Y-16014936D02*
X9834467Y-16024460D01*
X9834467Y-16024460D02*
X9815420Y-16033984D01*
X9815420Y-16033984D02*
X9796372Y-16033984D01*
X9796372Y-16033984D02*
X9777324Y-16024460D01*
X9777324Y-16024460D02*
X9767801Y-16014936D01*
X9767801Y-16014936D02*
X9758277Y-15995888D01*
X9758277Y-15995888D02*
X9748753Y-15957793D01*
X9748753Y-15957793D02*
X9748753Y-15910174D01*
X9748753Y-15910174D02*
X9758277Y-15872079D01*
X9758277Y-15872079D02*
X9767801Y-15853031D01*
X9767801Y-15853031D02*
X9777324Y-15843508D01*
X9777324Y-15843508D02*
X9796372Y-15833984D01*
X9948753Y-16014936D02*
X9958277Y-16024460D01*
X9958277Y-16024460D02*
X9948753Y-16033984D01*
X9948753Y-16033984D02*
X9939229Y-16024460D01*
X9939229Y-16024460D02*
X9948753Y-16014936D01*
X9948753Y-16014936D02*
X9948753Y-16033984D01*
X10129705Y-15833984D02*
X10091610Y-15833984D01*
X10091610Y-15833984D02*
X10072563Y-15843508D01*
X10072563Y-15843508D02*
X10063039Y-15853031D01*
X10063039Y-15853031D02*
X10043991Y-15881603D01*
X10043991Y-15881603D02*
X10034467Y-15919698D01*
X10034467Y-15919698D02*
X10034467Y-15995888D01*
X10034467Y-15995888D02*
X10043991Y-16014936D01*
X10043991Y-16014936D02*
X10053515Y-16024460D01*
X10053515Y-16024460D02*
X10072563Y-16033984D01*
X10072563Y-16033984D02*
X10110658Y-16033984D01*
X10110658Y-16033984D02*
X10129705Y-16024460D01*
X10129705Y-16024460D02*
X10139229Y-16014936D01*
X10139229Y-16014936D02*
X10148753Y-15995888D01*
X10148753Y-15995888D02*
X10148753Y-15948269D01*
X10148753Y-15948269D02*
X10139229Y-15929222D01*
X10139229Y-15929222D02*
X10129705Y-15919698D01*
X10129705Y-15919698D02*
X10110658Y-15910174D01*
X10110658Y-15910174D02*
X10072563Y-15910174D01*
X10072563Y-15910174D02*
X10053515Y-15919698D01*
X10053515Y-15919698D02*
X10043991Y-15929222D01*
X10043991Y-15929222D02*
X10034467Y-15948269D01*
X10329705Y-15833984D02*
X10234467Y-15833984D01*
X10234467Y-15833984D02*
X10224944Y-15929222D01*
X10224944Y-15929222D02*
X10234467Y-15919698D01*
X10234467Y-15919698D02*
X10253515Y-15910174D01*
X10253515Y-15910174D02*
X10301134Y-15910174D01*
X10301134Y-15910174D02*
X10320182Y-15919698D01*
X10320182Y-15919698D02*
X10329705Y-15929222D01*
X10329705Y-15929222D02*
X10339229Y-15948269D01*
X10339229Y-15948269D02*
X10339229Y-15995888D01*
X10339229Y-15995888D02*
X10329705Y-16014936D01*
X10329705Y-16014936D02*
X10320182Y-16024460D01*
X10320182Y-16024460D02*
X10301134Y-16033984D01*
X10301134Y-16033984D02*
X10253515Y-16033984D01*
X10253515Y-16033984D02*
X10234467Y-16024460D01*
X10234467Y-16024460D02*
X10224944Y-16014936D01*
X10463039Y-15833984D02*
X10482086Y-15833984D01*
X10482086Y-15833984D02*
X10501134Y-15843508D01*
X10501134Y-15843508D02*
X10510658Y-15853031D01*
X10510658Y-15853031D02*
X10520182Y-15872079D01*
X10520182Y-15872079D02*
X10529705Y-15910174D01*
X10529705Y-15910174D02*
X10529705Y-15957793D01*
X10529705Y-15957793D02*
X10520182Y-15995888D01*
X10520182Y-15995888D02*
X10510658Y-16014936D01*
X10510658Y-16014936D02*
X10501134Y-16024460D01*
X10501134Y-16024460D02*
X10482086Y-16033984D01*
X10482086Y-16033984D02*
X10463039Y-16033984D01*
X10463039Y-16033984D02*
X10443991Y-16024460D01*
X10443991Y-16024460D02*
X10434467Y-16014936D01*
X10434467Y-16014936D02*
X10424944Y-15995888D01*
X10424944Y-15995888D02*
X10415420Y-15957793D01*
X10415420Y-15957793D02*
X10415420Y-15910174D01*
X10415420Y-15910174D02*
X10424944Y-15872079D01*
X10424944Y-15872079D02*
X10434467Y-15853031D01*
X10434467Y-15853031D02*
X10443991Y-15843508D01*
X10443991Y-15843508D02*
X10463039Y-15833984D01*
X10615420Y-16033984D02*
X10615420Y-15900650D01*
X10615420Y-15919698D02*
X10624944Y-15910174D01*
X10624944Y-15910174D02*
X10643991Y-15900650D01*
X10643991Y-15900650D02*
X10672563Y-15900650D01*
X10672563Y-15900650D02*
X10691610Y-15910174D01*
X10691610Y-15910174D02*
X10701134Y-15929222D01*
X10701134Y-15929222D02*
X10701134Y-16033984D01*
X10701134Y-15929222D02*
X10710658Y-15910174D01*
X10710658Y-15910174D02*
X10729705Y-15900650D01*
X10729705Y-15900650D02*
X10758277Y-15900650D01*
X10758277Y-15900650D02*
X10777325Y-15910174D01*
X10777325Y-15910174D02*
X10786848Y-15929222D01*
X10786848Y-15929222D02*
X10786848Y-16033984D01*
X10882086Y-16033984D02*
X10882086Y-15900650D01*
X10882086Y-15919698D02*
X10891610Y-15910174D01*
X10891610Y-15910174D02*
X10910658Y-15900650D01*
X10910658Y-15900650D02*
X10939229Y-15900650D01*
X10939229Y-15900650D02*
X10958277Y-15910174D01*
X10958277Y-15910174D02*
X10967801Y-15929222D01*
X10967801Y-15929222D02*
X10967801Y-16033984D01*
X10967801Y-15929222D02*
X10977325Y-15910174D01*
X10977325Y-15910174D02*
X10996372Y-15900650D01*
X10996372Y-15900650D02*
X11024944Y-15900650D01*
X11024944Y-15900650D02*
X11043991Y-15910174D01*
X11043991Y-15910174D02*
X11053515Y-15929222D01*
X11053515Y-15929222D02*
X11053515Y-16033984D01*
X11443991Y-15824460D02*
X11272563Y-16081603D01*
X11701134Y-15833984D02*
X11720182Y-15833984D01*
X11720182Y-15833984D02*
X11739229Y-15843508D01*
X11739229Y-15843508D02*
X11748753Y-15853031D01*
X11748753Y-15853031D02*
X11758277Y-15872079D01*
X11758277Y-15872079D02*
X11767801Y-15910174D01*
X11767801Y-15910174D02*
X11767801Y-15957793D01*
X11767801Y-15957793D02*
X11758277Y-15995888D01*
X11758277Y-15995888D02*
X11748753Y-16014936D01*
X11748753Y-16014936D02*
X11739229Y-16024460D01*
X11739229Y-16024460D02*
X11720182Y-16033984D01*
X11720182Y-16033984D02*
X11701134Y-16033984D01*
X11701134Y-16033984D02*
X11682086Y-16024460D01*
X11682086Y-16024460D02*
X11672563Y-16014936D01*
X11672563Y-16014936D02*
X11663039Y-15995888D01*
X11663039Y-15995888D02*
X11653515Y-15957793D01*
X11653515Y-15957793D02*
X11653515Y-15910174D01*
X11653515Y-15910174D02*
X11663039Y-15872079D01*
X11663039Y-15872079D02*
X11672563Y-15853031D01*
X11672563Y-15853031D02*
X11682086Y-15843508D01*
X11682086Y-15843508D02*
X11701134Y-15833984D01*
X11853515Y-16014936D02*
X11863039Y-16024460D01*
X11863039Y-16024460D02*
X11853515Y-16033984D01*
X11853515Y-16033984D02*
X11843991Y-16024460D01*
X11843991Y-16024460D02*
X11853515Y-16014936D01*
X11853515Y-16014936D02*
X11853515Y-16033984D01*
X11986848Y-15833984D02*
X12005896Y-15833984D01*
X12005896Y-15833984D02*
X12024944Y-15843508D01*
X12024944Y-15843508D02*
X12034467Y-15853031D01*
X12034467Y-15853031D02*
X12043991Y-15872079D01*
X12043991Y-15872079D02*
X12053515Y-15910174D01*
X12053515Y-15910174D02*
X12053515Y-15957793D01*
X12053515Y-15957793D02*
X12043991Y-15995888D01*
X12043991Y-15995888D02*
X12034467Y-16014936D01*
X12034467Y-16014936D02*
X12024944Y-16024460D01*
X12024944Y-16024460D02*
X12005896Y-16033984D01*
X12005896Y-16033984D02*
X11986848Y-16033984D01*
X11986848Y-16033984D02*
X11967801Y-16024460D01*
X11967801Y-16024460D02*
X11958277Y-16014936D01*
X11958277Y-16014936D02*
X11948753Y-15995888D01*
X11948753Y-15995888D02*
X11939229Y-15957793D01*
X11939229Y-15957793D02*
X11939229Y-15910174D01*
X11939229Y-15910174D02*
X11948753Y-15872079D01*
X11948753Y-15872079D02*
X11958277Y-15853031D01*
X11958277Y-15853031D02*
X11967801Y-15843508D01*
X11967801Y-15843508D02*
X11986848Y-15833984D01*
X12129706Y-15853031D02*
X12139229Y-15843508D01*
X12139229Y-15843508D02*
X12158277Y-15833984D01*
X12158277Y-15833984D02*
X12205896Y-15833984D01*
X12205896Y-15833984D02*
X12224944Y-15843508D01*
X12224944Y-15843508D02*
X12234467Y-15853031D01*
X12234467Y-15853031D02*
X12243991Y-15872079D01*
X12243991Y-15872079D02*
X12243991Y-15891127D01*
X12243991Y-15891127D02*
X12234467Y-15919698D01*
X12234467Y-15919698D02*
X12120182Y-16033984D01*
X12120182Y-16033984D02*
X12243991Y-16033984D01*
X12424944Y-15833984D02*
X12329706Y-15833984D01*
X12329706Y-15833984D02*
X12320182Y-15929222D01*
X12320182Y-15929222D02*
X12329706Y-15919698D01*
X12329706Y-15919698D02*
X12348753Y-15910174D01*
X12348753Y-15910174D02*
X12396372Y-15910174D01*
X12396372Y-15910174D02*
X12415420Y-15919698D01*
X12415420Y-15919698D02*
X12424944Y-15929222D01*
X12424944Y-15929222D02*
X12434467Y-15948269D01*
X12434467Y-15948269D02*
X12434467Y-15995888D01*
X12434467Y-15995888D02*
X12424944Y-16014936D01*
X12424944Y-16014936D02*
X12415420Y-16024460D01*
X12415420Y-16024460D02*
X12396372Y-16033984D01*
X12396372Y-16033984D02*
X12348753Y-16033984D01*
X12348753Y-16033984D02*
X12329706Y-16024460D01*
X12329706Y-16024460D02*
X12320182Y-16014936D01*
X12605896Y-15833984D02*
X12567801Y-15833984D01*
X12567801Y-15833984D02*
X12548753Y-15843508D01*
X12548753Y-15843508D02*
X12539229Y-15853031D01*
X12539229Y-15853031D02*
X12520182Y-15881603D01*
X12520182Y-15881603D02*
X12510658Y-15919698D01*
X12510658Y-15919698D02*
X12510658Y-15995888D01*
X12510658Y-15995888D02*
X12520182Y-16014936D01*
X12520182Y-16014936D02*
X12529706Y-16024460D01*
X12529706Y-16024460D02*
X12548753Y-16033984D01*
X12548753Y-16033984D02*
X12586848Y-16033984D01*
X12586848Y-16033984D02*
X12605896Y-16024460D01*
X12605896Y-16024460D02*
X12615420Y-16014936D01*
X12615420Y-16014936D02*
X12624944Y-15995888D01*
X12624944Y-15995888D02*
X12624944Y-15948269D01*
X12624944Y-15948269D02*
X12615420Y-15929222D01*
X12615420Y-15929222D02*
X12605896Y-15919698D01*
X12605896Y-15919698D02*
X12586848Y-15910174D01*
X12586848Y-15910174D02*
X12548753Y-15910174D01*
X12548753Y-15910174D02*
X12529706Y-15919698D01*
X12529706Y-15919698D02*
X12520182Y-15929222D01*
X12520182Y-15929222D02*
X12510658Y-15948269D01*
X12701134Y-15833984D02*
X12701134Y-15872079D01*
X12777325Y-15833984D02*
X12777325Y-15872079D01*
X13072563Y-16110174D02*
X13063039Y-16100650D01*
X13063039Y-16100650D02*
X13043991Y-16072079D01*
X13043991Y-16072079D02*
X13034468Y-16053031D01*
X13034468Y-16053031D02*
X13024944Y-16024460D01*
X13024944Y-16024460D02*
X13015420Y-15976841D01*
X13015420Y-15976841D02*
X13015420Y-15938746D01*
X13015420Y-15938746D02*
X13024944Y-15891127D01*
X13024944Y-15891127D02*
X13034468Y-15862555D01*
X13034468Y-15862555D02*
X13043991Y-15843508D01*
X13043991Y-15843508D02*
X13063039Y-15814936D01*
X13063039Y-15814936D02*
X13072563Y-15805412D01*
X13139229Y-15853031D02*
X13148753Y-15843508D01*
X13148753Y-15843508D02*
X13167801Y-15833984D01*
X13167801Y-15833984D02*
X13215420Y-15833984D01*
X13215420Y-15833984D02*
X13234468Y-15843508D01*
X13234468Y-15843508D02*
X13243991Y-15853031D01*
X13243991Y-15853031D02*
X13253515Y-15872079D01*
X13253515Y-15872079D02*
X13253515Y-15891127D01*
X13253515Y-15891127D02*
X13243991Y-15919698D01*
X13243991Y-15919698D02*
X13129706Y-16033984D01*
X13129706Y-16033984D02*
X13253515Y-16033984D01*
X13491610Y-16033984D02*
X13491610Y-15833984D01*
X13577325Y-16033984D02*
X13577325Y-15929222D01*
X13577325Y-15929222D02*
X13567801Y-15910174D01*
X13567801Y-15910174D02*
X13548753Y-15900650D01*
X13548753Y-15900650D02*
X13520182Y-15900650D01*
X13520182Y-15900650D02*
X13501134Y-15910174D01*
X13501134Y-15910174D02*
X13491610Y-15919698D01*
X13701134Y-16033984D02*
X13682087Y-16024460D01*
X13682087Y-16024460D02*
X13672563Y-16014936D01*
X13672563Y-16014936D02*
X13663039Y-15995888D01*
X13663039Y-15995888D02*
X13663039Y-15938746D01*
X13663039Y-15938746D02*
X13672563Y-15919698D01*
X13672563Y-15919698D02*
X13682087Y-15910174D01*
X13682087Y-15910174D02*
X13701134Y-15900650D01*
X13701134Y-15900650D02*
X13729706Y-15900650D01*
X13729706Y-15900650D02*
X13748753Y-15910174D01*
X13748753Y-15910174D02*
X13758277Y-15919698D01*
X13758277Y-15919698D02*
X13767801Y-15938746D01*
X13767801Y-15938746D02*
X13767801Y-15995888D01*
X13767801Y-15995888D02*
X13758277Y-16014936D01*
X13758277Y-16014936D02*
X13748753Y-16024460D01*
X13748753Y-16024460D02*
X13729706Y-16033984D01*
X13729706Y-16033984D02*
X13701134Y-16033984D01*
X13882087Y-16033984D02*
X13863039Y-16024460D01*
X13863039Y-16024460D02*
X13853515Y-16005412D01*
X13853515Y-16005412D02*
X13853515Y-15833984D01*
X14034468Y-16024460D02*
X14015420Y-16033984D01*
X14015420Y-16033984D02*
X13977325Y-16033984D01*
X13977325Y-16033984D02*
X13958277Y-16024460D01*
X13958277Y-16024460D02*
X13948753Y-16005412D01*
X13948753Y-16005412D02*
X13948753Y-15929222D01*
X13948753Y-15929222D02*
X13958277Y-15910174D01*
X13958277Y-15910174D02*
X13977325Y-15900650D01*
X13977325Y-15900650D02*
X14015420Y-15900650D01*
X14015420Y-15900650D02*
X14034468Y-15910174D01*
X14034468Y-15910174D02*
X14043991Y-15929222D01*
X14043991Y-15929222D02*
X14043991Y-15948269D01*
X14043991Y-15948269D02*
X13948753Y-15967317D01*
X14120182Y-16024460D02*
X14139230Y-16033984D01*
X14139230Y-16033984D02*
X14177325Y-16033984D01*
X14177325Y-16033984D02*
X14196372Y-16024460D01*
X14196372Y-16024460D02*
X14205896Y-16005412D01*
X14205896Y-16005412D02*
X14205896Y-15995888D01*
X14205896Y-15995888D02*
X14196372Y-15976841D01*
X14196372Y-15976841D02*
X14177325Y-15967317D01*
X14177325Y-15967317D02*
X14148753Y-15967317D01*
X14148753Y-15967317D02*
X14129706Y-15957793D01*
X14129706Y-15957793D02*
X14120182Y-15938746D01*
X14120182Y-15938746D02*
X14120182Y-15929222D01*
X14120182Y-15929222D02*
X14129706Y-15910174D01*
X14129706Y-15910174D02*
X14148753Y-15900650D01*
X14148753Y-15900650D02*
X14177325Y-15900650D01*
X14177325Y-15900650D02*
X14196372Y-15910174D01*
X14272563Y-16110174D02*
X14282087Y-16100650D01*
X14282087Y-16100650D02*
X14301134Y-16072079D01*
X14301134Y-16072079D02*
X14310658Y-16053031D01*
X14310658Y-16053031D02*
X14320182Y-16024460D01*
X14320182Y-16024460D02*
X14329706Y-15976841D01*
X14329706Y-15976841D02*
X14329706Y-15938746D01*
X14329706Y-15938746D02*
X14320182Y-15891127D01*
X14320182Y-15891127D02*
X14310658Y-15862555D01*
X14310658Y-15862555D02*
X14301134Y-15843508D01*
X14301134Y-15843508D02*
X14282087Y-15814936D01*
X14282087Y-15814936D02*
X14272563Y-15805412D01*
X14634468Y-16110174D02*
X14624944Y-16100650D01*
X14624944Y-16100650D02*
X14605896Y-16072079D01*
X14605896Y-16072079D02*
X14596372Y-16053031D01*
X14596372Y-16053031D02*
X14586849Y-16024460D01*
X14586849Y-16024460D02*
X14577325Y-15976841D01*
X14577325Y-15976841D02*
X14577325Y-15938746D01*
X14577325Y-15938746D02*
X14586849Y-15891127D01*
X14586849Y-15891127D02*
X14596372Y-15862555D01*
X14596372Y-15862555D02*
X14605896Y-15843508D01*
X14605896Y-15843508D02*
X14624944Y-15814936D01*
X14624944Y-15814936D02*
X14634468Y-15805412D01*
X14710658Y-15900650D02*
X14710658Y-16033984D01*
X14710658Y-15919698D02*
X14720182Y-15910174D01*
X14720182Y-15910174D02*
X14739230Y-15900650D01*
X14739230Y-15900650D02*
X14767801Y-15900650D01*
X14767801Y-15900650D02*
X14786849Y-15910174D01*
X14786849Y-15910174D02*
X14796372Y-15929222D01*
X14796372Y-15929222D02*
X14796372Y-16033984D01*
X14920182Y-16033984D02*
X14901134Y-16024460D01*
X14901134Y-16024460D02*
X14891611Y-16014936D01*
X14891611Y-16014936D02*
X14882087Y-15995888D01*
X14882087Y-15995888D02*
X14882087Y-15938746D01*
X14882087Y-15938746D02*
X14891611Y-15919698D01*
X14891611Y-15919698D02*
X14901134Y-15910174D01*
X14901134Y-15910174D02*
X14920182Y-15900650D01*
X14920182Y-15900650D02*
X14948753Y-15900650D01*
X14948753Y-15900650D02*
X14967801Y-15910174D01*
X14967801Y-15910174D02*
X14977325Y-15919698D01*
X14977325Y-15919698D02*
X14986849Y-15938746D01*
X14986849Y-15938746D02*
X14986849Y-15995888D01*
X14986849Y-15995888D02*
X14977325Y-16014936D01*
X14977325Y-16014936D02*
X14967801Y-16024460D01*
X14967801Y-16024460D02*
X14948753Y-16033984D01*
X14948753Y-16033984D02*
X14920182Y-16033984D01*
X15043992Y-15900650D02*
X15120182Y-15900650D01*
X15072563Y-15833984D02*
X15072563Y-16005412D01*
X15072563Y-16005412D02*
X15082087Y-16024460D01*
X15082087Y-16024460D02*
X15101134Y-16033984D01*
X15101134Y-16033984D02*
X15120182Y-16033984D01*
X15339230Y-15900650D02*
X15339230Y-16100650D01*
X15339230Y-15910174D02*
X15358277Y-15900650D01*
X15358277Y-15900650D02*
X15396373Y-15900650D01*
X15396373Y-15900650D02*
X15415420Y-15910174D01*
X15415420Y-15910174D02*
X15424944Y-15919698D01*
X15424944Y-15919698D02*
X15434468Y-15938746D01*
X15434468Y-15938746D02*
X15434468Y-15995888D01*
X15434468Y-15995888D02*
X15424944Y-16014936D01*
X15424944Y-16014936D02*
X15415420Y-16024460D01*
X15415420Y-16024460D02*
X15396373Y-16033984D01*
X15396373Y-16033984D02*
X15358277Y-16033984D01*
X15358277Y-16033984D02*
X15339230Y-16024460D01*
X15548753Y-16033984D02*
X15529706Y-16024460D01*
X15529706Y-16024460D02*
X15520182Y-16005412D01*
X15520182Y-16005412D02*
X15520182Y-15833984D01*
X15710658Y-16033984D02*
X15710658Y-15929222D01*
X15710658Y-15929222D02*
X15701134Y-15910174D01*
X15701134Y-15910174D02*
X15682087Y-15900650D01*
X15682087Y-15900650D02*
X15643992Y-15900650D01*
X15643992Y-15900650D02*
X15624944Y-15910174D01*
X15710658Y-16024460D02*
X15691611Y-16033984D01*
X15691611Y-16033984D02*
X15643992Y-16033984D01*
X15643992Y-16033984D02*
X15624944Y-16024460D01*
X15624944Y-16024460D02*
X15615420Y-16005412D01*
X15615420Y-16005412D02*
X15615420Y-15986365D01*
X15615420Y-15986365D02*
X15624944Y-15967317D01*
X15624944Y-15967317D02*
X15643992Y-15957793D01*
X15643992Y-15957793D02*
X15691611Y-15957793D01*
X15691611Y-15957793D02*
X15710658Y-15948269D01*
X15777325Y-15900650D02*
X15853515Y-15900650D01*
X15805896Y-15833984D02*
X15805896Y-16005412D01*
X15805896Y-16005412D02*
X15815420Y-16024460D01*
X15815420Y-16024460D02*
X15834468Y-16033984D01*
X15834468Y-16033984D02*
X15853515Y-16033984D01*
X15996373Y-16024460D02*
X15977325Y-16033984D01*
X15977325Y-16033984D02*
X15939230Y-16033984D01*
X15939230Y-16033984D02*
X15920182Y-16024460D01*
X15920182Y-16024460D02*
X15910658Y-16005412D01*
X15910658Y-16005412D02*
X15910658Y-15929222D01*
X15910658Y-15929222D02*
X15920182Y-15910174D01*
X15920182Y-15910174D02*
X15939230Y-15900650D01*
X15939230Y-15900650D02*
X15977325Y-15900650D01*
X15977325Y-15900650D02*
X15996373Y-15910174D01*
X15996373Y-15910174D02*
X16005896Y-15929222D01*
X16005896Y-15929222D02*
X16005896Y-15948269D01*
X16005896Y-15948269D02*
X15910658Y-15967317D01*
X16177325Y-16033984D02*
X16177325Y-15833984D01*
X16177325Y-16024460D02*
X16158277Y-16033984D01*
X16158277Y-16033984D02*
X16120182Y-16033984D01*
X16120182Y-16033984D02*
X16101134Y-16024460D01*
X16101134Y-16024460D02*
X16091611Y-16014936D01*
X16091611Y-16014936D02*
X16082087Y-15995888D01*
X16082087Y-15995888D02*
X16082087Y-15938746D01*
X16082087Y-15938746D02*
X16091611Y-15919698D01*
X16091611Y-15919698D02*
X16101134Y-15910174D01*
X16101134Y-15910174D02*
X16120182Y-15900650D01*
X16120182Y-15900650D02*
X16158277Y-15900650D01*
X16158277Y-15900650D02*
X16177325Y-15910174D01*
X16253515Y-16110174D02*
X16263039Y-16100650D01*
X16263039Y-16100650D02*
X16282087Y-16072079D01*
X16282087Y-16072079D02*
X16291611Y-16053031D01*
X16291611Y-16053031D02*
X16301134Y-16024460D01*
X16301134Y-16024460D02*
X16310658Y-15976841D01*
X16310658Y-15976841D02*
X16310658Y-15938746D01*
X16310658Y-15938746D02*
X16301134Y-15891127D01*
X16301134Y-15891127D02*
X16291611Y-15862555D01*
X16291611Y-15862555D02*
X16282087Y-15843508D01*
X16282087Y-15843508D02*
X16263039Y-15814936D01*
X16263039Y-15814936D02*
X16253515Y-15805412D01*
D13*
X9497500Y-16206500D02*
G75*
G02*
X9327320Y-16206500I-85090J0D01*
G01*
X9327320Y-16206500D02*
G75*
G02*
X9497500Y-16206500I85090J0D01*
G01*
D11*
X9863039Y-16297984D02*
X9748753Y-16297984D01*
X9805896Y-16297984D02*
X9805896Y-16097984D01*
X9805896Y-16097984D02*
X9786848Y-16126555D01*
X9786848Y-16126555D02*
X9767801Y-16145603D01*
X9767801Y-16145603D02*
X9748753Y-16155127D01*
X9948753Y-16278936D02*
X9958277Y-16288460D01*
X9958277Y-16288460D02*
X9948753Y-16297984D01*
X9948753Y-16297984D02*
X9939229Y-16288460D01*
X9939229Y-16288460D02*
X9948753Y-16278936D01*
X9948753Y-16278936D02*
X9948753Y-16297984D01*
X10024944Y-16097984D02*
X10158277Y-16097984D01*
X10158277Y-16097984D02*
X10072563Y-16297984D01*
X10272563Y-16097984D02*
X10291610Y-16097984D01*
X10291610Y-16097984D02*
X10310658Y-16107508D01*
X10310658Y-16107508D02*
X10320182Y-16117031D01*
X10320182Y-16117031D02*
X10329705Y-16136079D01*
X10329705Y-16136079D02*
X10339229Y-16174174D01*
X10339229Y-16174174D02*
X10339229Y-16221793D01*
X10339229Y-16221793D02*
X10329705Y-16259888D01*
X10329705Y-16259888D02*
X10320182Y-16278936D01*
X10320182Y-16278936D02*
X10310658Y-16288460D01*
X10310658Y-16288460D02*
X10291610Y-16297984D01*
X10291610Y-16297984D02*
X10272563Y-16297984D01*
X10272563Y-16297984D02*
X10253515Y-16288460D01*
X10253515Y-16288460D02*
X10243991Y-16278936D01*
X10243991Y-16278936D02*
X10234467Y-16259888D01*
X10234467Y-16259888D02*
X10224944Y-16221793D01*
X10224944Y-16221793D02*
X10224944Y-16174174D01*
X10224944Y-16174174D02*
X10234467Y-16136079D01*
X10234467Y-16136079D02*
X10243991Y-16117031D01*
X10243991Y-16117031D02*
X10253515Y-16107508D01*
X10253515Y-16107508D02*
X10272563Y-16097984D01*
X10415420Y-16117031D02*
X10424944Y-16107508D01*
X10424944Y-16107508D02*
X10443991Y-16097984D01*
X10443991Y-16097984D02*
X10491610Y-16097984D01*
X10491610Y-16097984D02*
X10510658Y-16107508D01*
X10510658Y-16107508D02*
X10520182Y-16117031D01*
X10520182Y-16117031D02*
X10529705Y-16136079D01*
X10529705Y-16136079D02*
X10529705Y-16155127D01*
X10529705Y-16155127D02*
X10520182Y-16183698D01*
X10520182Y-16183698D02*
X10405896Y-16297984D01*
X10405896Y-16297984D02*
X10529705Y-16297984D01*
X10615420Y-16297984D02*
X10615420Y-16164650D01*
X10615420Y-16183698D02*
X10624944Y-16174174D01*
X10624944Y-16174174D02*
X10643991Y-16164650D01*
X10643991Y-16164650D02*
X10672563Y-16164650D01*
X10672563Y-16164650D02*
X10691610Y-16174174D01*
X10691610Y-16174174D02*
X10701134Y-16193222D01*
X10701134Y-16193222D02*
X10701134Y-16297984D01*
X10701134Y-16193222D02*
X10710658Y-16174174D01*
X10710658Y-16174174D02*
X10729705Y-16164650D01*
X10729705Y-16164650D02*
X10758277Y-16164650D01*
X10758277Y-16164650D02*
X10777325Y-16174174D01*
X10777325Y-16174174D02*
X10786848Y-16193222D01*
X10786848Y-16193222D02*
X10786848Y-16297984D01*
X10882086Y-16297984D02*
X10882086Y-16164650D01*
X10882086Y-16183698D02*
X10891610Y-16174174D01*
X10891610Y-16174174D02*
X10910658Y-16164650D01*
X10910658Y-16164650D02*
X10939229Y-16164650D01*
X10939229Y-16164650D02*
X10958277Y-16174174D01*
X10958277Y-16174174D02*
X10967801Y-16193222D01*
X10967801Y-16193222D02*
X10967801Y-16297984D01*
X10967801Y-16193222D02*
X10977325Y-16174174D01*
X10977325Y-16174174D02*
X10996372Y-16164650D01*
X10996372Y-16164650D02*
X11024944Y-16164650D01*
X11024944Y-16164650D02*
X11043991Y-16174174D01*
X11043991Y-16174174D02*
X11053515Y-16193222D01*
X11053515Y-16193222D02*
X11053515Y-16297984D01*
X11443991Y-16088460D02*
X11272563Y-16345603D01*
X11701134Y-16097984D02*
X11720182Y-16097984D01*
X11720182Y-16097984D02*
X11739229Y-16107508D01*
X11739229Y-16107508D02*
X11748753Y-16117031D01*
X11748753Y-16117031D02*
X11758277Y-16136079D01*
X11758277Y-16136079D02*
X11767801Y-16174174D01*
X11767801Y-16174174D02*
X11767801Y-16221793D01*
X11767801Y-16221793D02*
X11758277Y-16259888D01*
X11758277Y-16259888D02*
X11748753Y-16278936D01*
X11748753Y-16278936D02*
X11739229Y-16288460D01*
X11739229Y-16288460D02*
X11720182Y-16297984D01*
X11720182Y-16297984D02*
X11701134Y-16297984D01*
X11701134Y-16297984D02*
X11682086Y-16288460D01*
X11682086Y-16288460D02*
X11672563Y-16278936D01*
X11672563Y-16278936D02*
X11663039Y-16259888D01*
X11663039Y-16259888D02*
X11653515Y-16221793D01*
X11653515Y-16221793D02*
X11653515Y-16174174D01*
X11653515Y-16174174D02*
X11663039Y-16136079D01*
X11663039Y-16136079D02*
X11672563Y-16117031D01*
X11672563Y-16117031D02*
X11682086Y-16107508D01*
X11682086Y-16107508D02*
X11701134Y-16097984D01*
X11853515Y-16278936D02*
X11863039Y-16288460D01*
X11863039Y-16288460D02*
X11853515Y-16297984D01*
X11853515Y-16297984D02*
X11843991Y-16288460D01*
X11843991Y-16288460D02*
X11853515Y-16278936D01*
X11853515Y-16278936D02*
X11853515Y-16297984D01*
X11986848Y-16097984D02*
X12005896Y-16097984D01*
X12005896Y-16097984D02*
X12024944Y-16107508D01*
X12024944Y-16107508D02*
X12034467Y-16117031D01*
X12034467Y-16117031D02*
X12043991Y-16136079D01*
X12043991Y-16136079D02*
X12053515Y-16174174D01*
X12053515Y-16174174D02*
X12053515Y-16221793D01*
X12053515Y-16221793D02*
X12043991Y-16259888D01*
X12043991Y-16259888D02*
X12034467Y-16278936D01*
X12034467Y-16278936D02*
X12024944Y-16288460D01*
X12024944Y-16288460D02*
X12005896Y-16297984D01*
X12005896Y-16297984D02*
X11986848Y-16297984D01*
X11986848Y-16297984D02*
X11967801Y-16288460D01*
X11967801Y-16288460D02*
X11958277Y-16278936D01*
X11958277Y-16278936D02*
X11948753Y-16259888D01*
X11948753Y-16259888D02*
X11939229Y-16221793D01*
X11939229Y-16221793D02*
X11939229Y-16174174D01*
X11939229Y-16174174D02*
X11948753Y-16136079D01*
X11948753Y-16136079D02*
X11958277Y-16117031D01*
X11958277Y-16117031D02*
X11967801Y-16107508D01*
X11967801Y-16107508D02*
X11986848Y-16097984D01*
X12224944Y-16097984D02*
X12186848Y-16097984D01*
X12186848Y-16097984D02*
X12167801Y-16107508D01*
X12167801Y-16107508D02*
X12158277Y-16117031D01*
X12158277Y-16117031D02*
X12139229Y-16145603D01*
X12139229Y-16145603D02*
X12129706Y-16183698D01*
X12129706Y-16183698D02*
X12129706Y-16259888D01*
X12129706Y-16259888D02*
X12139229Y-16278936D01*
X12139229Y-16278936D02*
X12148753Y-16288460D01*
X12148753Y-16288460D02*
X12167801Y-16297984D01*
X12167801Y-16297984D02*
X12205896Y-16297984D01*
X12205896Y-16297984D02*
X12224944Y-16288460D01*
X12224944Y-16288460D02*
X12234467Y-16278936D01*
X12234467Y-16278936D02*
X12243991Y-16259888D01*
X12243991Y-16259888D02*
X12243991Y-16212269D01*
X12243991Y-16212269D02*
X12234467Y-16193222D01*
X12234467Y-16193222D02*
X12224944Y-16183698D01*
X12224944Y-16183698D02*
X12205896Y-16174174D01*
X12205896Y-16174174D02*
X12167801Y-16174174D01*
X12167801Y-16174174D02*
X12148753Y-16183698D01*
X12148753Y-16183698D02*
X12139229Y-16193222D01*
X12139229Y-16193222D02*
X12129706Y-16212269D01*
X12310658Y-16097984D02*
X12443991Y-16097984D01*
X12443991Y-16097984D02*
X12358277Y-16297984D01*
X12558277Y-16097984D02*
X12577325Y-16097984D01*
X12577325Y-16097984D02*
X12596372Y-16107508D01*
X12596372Y-16107508D02*
X12605896Y-16117031D01*
X12605896Y-16117031D02*
X12615420Y-16136079D01*
X12615420Y-16136079D02*
X12624944Y-16174174D01*
X12624944Y-16174174D02*
X12624944Y-16221793D01*
X12624944Y-16221793D02*
X12615420Y-16259888D01*
X12615420Y-16259888D02*
X12605896Y-16278936D01*
X12605896Y-16278936D02*
X12596372Y-16288460D01*
X12596372Y-16288460D02*
X12577325Y-16297984D01*
X12577325Y-16297984D02*
X12558277Y-16297984D01*
X12558277Y-16297984D02*
X12539229Y-16288460D01*
X12539229Y-16288460D02*
X12529706Y-16278936D01*
X12529706Y-16278936D02*
X12520182Y-16259888D01*
X12520182Y-16259888D02*
X12510658Y-16221793D01*
X12510658Y-16221793D02*
X12510658Y-16174174D01*
X12510658Y-16174174D02*
X12520182Y-16136079D01*
X12520182Y-16136079D02*
X12529706Y-16117031D01*
X12529706Y-16117031D02*
X12539229Y-16107508D01*
X12539229Y-16107508D02*
X12558277Y-16097984D01*
X12701134Y-16097984D02*
X12701134Y-16136079D01*
X12777325Y-16097984D02*
X12777325Y-16136079D01*
X13072563Y-16374174D02*
X13063039Y-16364650D01*
X13063039Y-16364650D02*
X13043991Y-16336079D01*
X13043991Y-16336079D02*
X13034468Y-16317031D01*
X13034468Y-16317031D02*
X13024944Y-16288460D01*
X13024944Y-16288460D02*
X13015420Y-16240841D01*
X13015420Y-16240841D02*
X13015420Y-16202746D01*
X13015420Y-16202746D02*
X13024944Y-16155127D01*
X13024944Y-16155127D02*
X13034468Y-16126555D01*
X13034468Y-16126555D02*
X13043991Y-16107508D01*
X13043991Y-16107508D02*
X13063039Y-16078936D01*
X13063039Y-16078936D02*
X13072563Y-16069412D01*
X13129706Y-16097984D02*
X13253515Y-16097984D01*
X13253515Y-16097984D02*
X13186848Y-16174174D01*
X13186848Y-16174174D02*
X13215420Y-16174174D01*
X13215420Y-16174174D02*
X13234468Y-16183698D01*
X13234468Y-16183698D02*
X13243991Y-16193222D01*
X13243991Y-16193222D02*
X13253515Y-16212269D01*
X13253515Y-16212269D02*
X13253515Y-16259888D01*
X13253515Y-16259888D02*
X13243991Y-16278936D01*
X13243991Y-16278936D02*
X13234468Y-16288460D01*
X13234468Y-16288460D02*
X13215420Y-16297984D01*
X13215420Y-16297984D02*
X13158277Y-16297984D01*
X13158277Y-16297984D02*
X13139229Y-16288460D01*
X13139229Y-16288460D02*
X13129706Y-16278936D01*
X13424944Y-16164650D02*
X13424944Y-16297984D01*
X13377325Y-16088460D02*
X13329706Y-16231317D01*
X13329706Y-16231317D02*
X13453515Y-16231317D01*
X13682087Y-16297984D02*
X13682087Y-16097984D01*
X13767801Y-16297984D02*
X13767801Y-16193222D01*
X13767801Y-16193222D02*
X13758277Y-16174174D01*
X13758277Y-16174174D02*
X13739230Y-16164650D01*
X13739230Y-16164650D02*
X13710658Y-16164650D01*
X13710658Y-16164650D02*
X13691610Y-16174174D01*
X13691610Y-16174174D02*
X13682087Y-16183698D01*
X13891610Y-16297984D02*
X13872563Y-16288460D01*
X13872563Y-16288460D02*
X13863039Y-16278936D01*
X13863039Y-16278936D02*
X13853515Y-16259888D01*
X13853515Y-16259888D02*
X13853515Y-16202746D01*
X13853515Y-16202746D02*
X13863039Y-16183698D01*
X13863039Y-16183698D02*
X13872563Y-16174174D01*
X13872563Y-16174174D02*
X13891610Y-16164650D01*
X13891610Y-16164650D02*
X13920182Y-16164650D01*
X13920182Y-16164650D02*
X13939230Y-16174174D01*
X13939230Y-16174174D02*
X13948753Y-16183698D01*
X13948753Y-16183698D02*
X13958277Y-16202746D01*
X13958277Y-16202746D02*
X13958277Y-16259888D01*
X13958277Y-16259888D02*
X13948753Y-16278936D01*
X13948753Y-16278936D02*
X13939230Y-16288460D01*
X13939230Y-16288460D02*
X13920182Y-16297984D01*
X13920182Y-16297984D02*
X13891610Y-16297984D01*
X14072563Y-16297984D02*
X14053515Y-16288460D01*
X14053515Y-16288460D02*
X14043991Y-16269412D01*
X14043991Y-16269412D02*
X14043991Y-16097984D01*
X14224944Y-16288460D02*
X14205896Y-16297984D01*
X14205896Y-16297984D02*
X14167801Y-16297984D01*
X14167801Y-16297984D02*
X14148753Y-16288460D01*
X14148753Y-16288460D02*
X14139230Y-16269412D01*
X14139230Y-16269412D02*
X14139230Y-16193222D01*
X14139230Y-16193222D02*
X14148753Y-16174174D01*
X14148753Y-16174174D02*
X14167801Y-16164650D01*
X14167801Y-16164650D02*
X14205896Y-16164650D01*
X14205896Y-16164650D02*
X14224944Y-16174174D01*
X14224944Y-16174174D02*
X14234468Y-16193222D01*
X14234468Y-16193222D02*
X14234468Y-16212269D01*
X14234468Y-16212269D02*
X14139230Y-16231317D01*
X14310658Y-16288460D02*
X14329706Y-16297984D01*
X14329706Y-16297984D02*
X14367801Y-16297984D01*
X14367801Y-16297984D02*
X14386849Y-16288460D01*
X14386849Y-16288460D02*
X14396372Y-16269412D01*
X14396372Y-16269412D02*
X14396372Y-16259888D01*
X14396372Y-16259888D02*
X14386849Y-16240841D01*
X14386849Y-16240841D02*
X14367801Y-16231317D01*
X14367801Y-16231317D02*
X14339230Y-16231317D01*
X14339230Y-16231317D02*
X14320182Y-16221793D01*
X14320182Y-16221793D02*
X14310658Y-16202746D01*
X14310658Y-16202746D02*
X14310658Y-16193222D01*
X14310658Y-16193222D02*
X14320182Y-16174174D01*
X14320182Y-16174174D02*
X14339230Y-16164650D01*
X14339230Y-16164650D02*
X14367801Y-16164650D01*
X14367801Y-16164650D02*
X14386849Y-16174174D01*
X14463039Y-16374174D02*
X14472563Y-16364650D01*
X14472563Y-16364650D02*
X14491611Y-16336079D01*
X14491611Y-16336079D02*
X14501134Y-16317031D01*
X14501134Y-16317031D02*
X14510658Y-16288460D01*
X14510658Y-16288460D02*
X14520182Y-16240841D01*
X14520182Y-16240841D02*
X14520182Y-16202746D01*
X14520182Y-16202746D02*
X14510658Y-16155127D01*
X14510658Y-16155127D02*
X14501134Y-16126555D01*
X14501134Y-16126555D02*
X14491611Y-16107508D01*
X14491611Y-16107508D02*
X14472563Y-16078936D01*
X14472563Y-16078936D02*
X14463039Y-16069412D01*
X14824944Y-16374174D02*
X14815420Y-16364650D01*
X14815420Y-16364650D02*
X14796372Y-16336079D01*
X14796372Y-16336079D02*
X14786849Y-16317031D01*
X14786849Y-16317031D02*
X14777325Y-16288460D01*
X14777325Y-16288460D02*
X14767801Y-16240841D01*
X14767801Y-16240841D02*
X14767801Y-16202746D01*
X14767801Y-16202746D02*
X14777325Y-16155127D01*
X14777325Y-16155127D02*
X14786849Y-16126555D01*
X14786849Y-16126555D02*
X14796372Y-16107508D01*
X14796372Y-16107508D02*
X14815420Y-16078936D01*
X14815420Y-16078936D02*
X14824944Y-16069412D01*
X14901134Y-16164650D02*
X14901134Y-16297984D01*
X14901134Y-16183698D02*
X14910658Y-16174174D01*
X14910658Y-16174174D02*
X14929706Y-16164650D01*
X14929706Y-16164650D02*
X14958277Y-16164650D01*
X14958277Y-16164650D02*
X14977325Y-16174174D01*
X14977325Y-16174174D02*
X14986849Y-16193222D01*
X14986849Y-16193222D02*
X14986849Y-16297984D01*
X15110658Y-16297984D02*
X15091611Y-16288460D01*
X15091611Y-16288460D02*
X15082087Y-16278936D01*
X15082087Y-16278936D02*
X15072563Y-16259888D01*
X15072563Y-16259888D02*
X15072563Y-16202746D01*
X15072563Y-16202746D02*
X15082087Y-16183698D01*
X15082087Y-16183698D02*
X15091611Y-16174174D01*
X15091611Y-16174174D02*
X15110658Y-16164650D01*
X15110658Y-16164650D02*
X15139230Y-16164650D01*
X15139230Y-16164650D02*
X15158277Y-16174174D01*
X15158277Y-16174174D02*
X15167801Y-16183698D01*
X15167801Y-16183698D02*
X15177325Y-16202746D01*
X15177325Y-16202746D02*
X15177325Y-16259888D01*
X15177325Y-16259888D02*
X15167801Y-16278936D01*
X15167801Y-16278936D02*
X15158277Y-16288460D01*
X15158277Y-16288460D02*
X15139230Y-16297984D01*
X15139230Y-16297984D02*
X15110658Y-16297984D01*
X15234468Y-16164650D02*
X15310658Y-16164650D01*
X15263039Y-16097984D02*
X15263039Y-16269412D01*
X15263039Y-16269412D02*
X15272563Y-16288460D01*
X15272563Y-16288460D02*
X15291611Y-16297984D01*
X15291611Y-16297984D02*
X15310658Y-16297984D01*
X15529706Y-16164650D02*
X15529706Y-16364650D01*
X15529706Y-16174174D02*
X15548753Y-16164650D01*
X15548753Y-16164650D02*
X15586849Y-16164650D01*
X15586849Y-16164650D02*
X15605896Y-16174174D01*
X15605896Y-16174174D02*
X15615420Y-16183698D01*
X15615420Y-16183698D02*
X15624944Y-16202746D01*
X15624944Y-16202746D02*
X15624944Y-16259888D01*
X15624944Y-16259888D02*
X15615420Y-16278936D01*
X15615420Y-16278936D02*
X15605896Y-16288460D01*
X15605896Y-16288460D02*
X15586849Y-16297984D01*
X15586849Y-16297984D02*
X15548753Y-16297984D01*
X15548753Y-16297984D02*
X15529706Y-16288460D01*
X15739230Y-16297984D02*
X15720182Y-16288460D01*
X15720182Y-16288460D02*
X15710658Y-16269412D01*
X15710658Y-16269412D02*
X15710658Y-16097984D01*
X15901134Y-16297984D02*
X15901134Y-16193222D01*
X15901134Y-16193222D02*
X15891611Y-16174174D01*
X15891611Y-16174174D02*
X15872563Y-16164650D01*
X15872563Y-16164650D02*
X15834468Y-16164650D01*
X15834468Y-16164650D02*
X15815420Y-16174174D01*
X15901134Y-16288460D02*
X15882087Y-16297984D01*
X15882087Y-16297984D02*
X15834468Y-16297984D01*
X15834468Y-16297984D02*
X15815420Y-16288460D01*
X15815420Y-16288460D02*
X15805896Y-16269412D01*
X15805896Y-16269412D02*
X15805896Y-16250365D01*
X15805896Y-16250365D02*
X15815420Y-16231317D01*
X15815420Y-16231317D02*
X15834468Y-16221793D01*
X15834468Y-16221793D02*
X15882087Y-16221793D01*
X15882087Y-16221793D02*
X15901134Y-16212269D01*
X15967801Y-16164650D02*
X16043992Y-16164650D01*
X15996373Y-16097984D02*
X15996373Y-16269412D01*
X15996373Y-16269412D02*
X16005896Y-16288460D01*
X16005896Y-16288460D02*
X16024944Y-16297984D01*
X16024944Y-16297984D02*
X16043992Y-16297984D01*
X16186849Y-16288460D02*
X16167801Y-16297984D01*
X16167801Y-16297984D02*
X16129706Y-16297984D01*
X16129706Y-16297984D02*
X16110658Y-16288460D01*
X16110658Y-16288460D02*
X16101134Y-16269412D01*
X16101134Y-16269412D02*
X16101134Y-16193222D01*
X16101134Y-16193222D02*
X16110658Y-16174174D01*
X16110658Y-16174174D02*
X16129706Y-16164650D01*
X16129706Y-16164650D02*
X16167801Y-16164650D01*
X16167801Y-16164650D02*
X16186849Y-16174174D01*
X16186849Y-16174174D02*
X16196373Y-16193222D01*
X16196373Y-16193222D02*
X16196373Y-16212269D01*
X16196373Y-16212269D02*
X16101134Y-16231317D01*
X16367801Y-16297984D02*
X16367801Y-16097984D01*
X16367801Y-16288460D02*
X16348754Y-16297984D01*
X16348754Y-16297984D02*
X16310658Y-16297984D01*
X16310658Y-16297984D02*
X16291611Y-16288460D01*
X16291611Y-16288460D02*
X16282087Y-16278936D01*
X16282087Y-16278936D02*
X16272563Y-16259888D01*
X16272563Y-16259888D02*
X16272563Y-16202746D01*
X16272563Y-16202746D02*
X16282087Y-16183698D01*
X16282087Y-16183698D02*
X16291611Y-16174174D01*
X16291611Y-16174174D02*
X16310658Y-16164650D01*
X16310658Y-16164650D02*
X16348754Y-16164650D01*
X16348754Y-16164650D02*
X16367801Y-16174174D01*
X16443992Y-16374174D02*
X16453515Y-16364650D01*
X16453515Y-16364650D02*
X16472563Y-16336079D01*
X16472563Y-16336079D02*
X16482087Y-16317031D01*
X16482087Y-16317031D02*
X16491611Y-16288460D01*
X16491611Y-16288460D02*
X16501134Y-16240841D01*
X16501134Y-16240841D02*
X16501134Y-16202746D01*
X16501134Y-16202746D02*
X16491611Y-16155127D01*
X16491611Y-16155127D02*
X16482087Y-16126555D01*
X16482087Y-16126555D02*
X16472563Y-16107508D01*
X16472563Y-16107508D02*
X16453515Y-16078936D01*
X16453515Y-16078936D02*
X16443992Y-16069412D01*
X9397500Y-16396680D02*
X9397500Y-16596680D01*
X9297500Y-16496680D02*
X9497500Y-16496680D01*
X9739229Y-16388164D02*
X9863039Y-16388164D01*
X9863039Y-16388164D02*
X9796372Y-16464354D01*
X9796372Y-16464354D02*
X9824944Y-16464354D01*
X9824944Y-16464354D02*
X9843991Y-16473878D01*
X9843991Y-16473878D02*
X9853515Y-16483402D01*
X9853515Y-16483402D02*
X9863039Y-16502449D01*
X9863039Y-16502449D02*
X9863039Y-16550068D01*
X9863039Y-16550068D02*
X9853515Y-16569116D01*
X9853515Y-16569116D02*
X9843991Y-16578640D01*
X9843991Y-16578640D02*
X9824944Y-16588164D01*
X9824944Y-16588164D02*
X9767801Y-16588164D01*
X9767801Y-16588164D02*
X9748753Y-16578640D01*
X9748753Y-16578640D02*
X9739229Y-16569116D01*
X9948753Y-16569116D02*
X9958277Y-16578640D01*
X9958277Y-16578640D02*
X9948753Y-16588164D01*
X9948753Y-16588164D02*
X9939229Y-16578640D01*
X9939229Y-16578640D02*
X9948753Y-16569116D01*
X9948753Y-16569116D02*
X9948753Y-16588164D01*
X10082086Y-16388164D02*
X10101134Y-16388164D01*
X10101134Y-16388164D02*
X10120182Y-16397688D01*
X10120182Y-16397688D02*
X10129705Y-16407211D01*
X10129705Y-16407211D02*
X10139229Y-16426259D01*
X10139229Y-16426259D02*
X10148753Y-16464354D01*
X10148753Y-16464354D02*
X10148753Y-16511973D01*
X10148753Y-16511973D02*
X10139229Y-16550068D01*
X10139229Y-16550068D02*
X10129705Y-16569116D01*
X10129705Y-16569116D02*
X10120182Y-16578640D01*
X10120182Y-16578640D02*
X10101134Y-16588164D01*
X10101134Y-16588164D02*
X10082086Y-16588164D01*
X10082086Y-16588164D02*
X10063039Y-16578640D01*
X10063039Y-16578640D02*
X10053515Y-16569116D01*
X10053515Y-16569116D02*
X10043991Y-16550068D01*
X10043991Y-16550068D02*
X10034467Y-16511973D01*
X10034467Y-16511973D02*
X10034467Y-16464354D01*
X10034467Y-16464354D02*
X10043991Y-16426259D01*
X10043991Y-16426259D02*
X10053515Y-16407211D01*
X10053515Y-16407211D02*
X10063039Y-16397688D01*
X10063039Y-16397688D02*
X10082086Y-16388164D01*
X10272563Y-16388164D02*
X10291610Y-16388164D01*
X10291610Y-16388164D02*
X10310658Y-16397688D01*
X10310658Y-16397688D02*
X10320182Y-16407211D01*
X10320182Y-16407211D02*
X10329705Y-16426259D01*
X10329705Y-16426259D02*
X10339229Y-16464354D01*
X10339229Y-16464354D02*
X10339229Y-16511973D01*
X10339229Y-16511973D02*
X10329705Y-16550068D01*
X10329705Y-16550068D02*
X10320182Y-16569116D01*
X10320182Y-16569116D02*
X10310658Y-16578640D01*
X10310658Y-16578640D02*
X10291610Y-16588164D01*
X10291610Y-16588164D02*
X10272563Y-16588164D01*
X10272563Y-16588164D02*
X10253515Y-16578640D01*
X10253515Y-16578640D02*
X10243991Y-16569116D01*
X10243991Y-16569116D02*
X10234467Y-16550068D01*
X10234467Y-16550068D02*
X10224944Y-16511973D01*
X10224944Y-16511973D02*
X10224944Y-16464354D01*
X10224944Y-16464354D02*
X10234467Y-16426259D01*
X10234467Y-16426259D02*
X10243991Y-16407211D01*
X10243991Y-16407211D02*
X10253515Y-16397688D01*
X10253515Y-16397688D02*
X10272563Y-16388164D01*
X10463039Y-16388164D02*
X10482086Y-16388164D01*
X10482086Y-16388164D02*
X10501134Y-16397688D01*
X10501134Y-16397688D02*
X10510658Y-16407211D01*
X10510658Y-16407211D02*
X10520182Y-16426259D01*
X10520182Y-16426259D02*
X10529705Y-16464354D01*
X10529705Y-16464354D02*
X10529705Y-16511973D01*
X10529705Y-16511973D02*
X10520182Y-16550068D01*
X10520182Y-16550068D02*
X10510658Y-16569116D01*
X10510658Y-16569116D02*
X10501134Y-16578640D01*
X10501134Y-16578640D02*
X10482086Y-16588164D01*
X10482086Y-16588164D02*
X10463039Y-16588164D01*
X10463039Y-16588164D02*
X10443991Y-16578640D01*
X10443991Y-16578640D02*
X10434467Y-16569116D01*
X10434467Y-16569116D02*
X10424944Y-16550068D01*
X10424944Y-16550068D02*
X10415420Y-16511973D01*
X10415420Y-16511973D02*
X10415420Y-16464354D01*
X10415420Y-16464354D02*
X10424944Y-16426259D01*
X10424944Y-16426259D02*
X10434467Y-16407211D01*
X10434467Y-16407211D02*
X10443991Y-16397688D01*
X10443991Y-16397688D02*
X10463039Y-16388164D01*
X10615420Y-16588164D02*
X10615420Y-16454830D01*
X10615420Y-16473878D02*
X10624944Y-16464354D01*
X10624944Y-16464354D02*
X10643991Y-16454830D01*
X10643991Y-16454830D02*
X10672563Y-16454830D01*
X10672563Y-16454830D02*
X10691610Y-16464354D01*
X10691610Y-16464354D02*
X10701134Y-16483402D01*
X10701134Y-16483402D02*
X10701134Y-16588164D01*
X10701134Y-16483402D02*
X10710658Y-16464354D01*
X10710658Y-16464354D02*
X10729705Y-16454830D01*
X10729705Y-16454830D02*
X10758277Y-16454830D01*
X10758277Y-16454830D02*
X10777325Y-16464354D01*
X10777325Y-16464354D02*
X10786848Y-16483402D01*
X10786848Y-16483402D02*
X10786848Y-16588164D01*
X10882086Y-16588164D02*
X10882086Y-16454830D01*
X10882086Y-16473878D02*
X10891610Y-16464354D01*
X10891610Y-16464354D02*
X10910658Y-16454830D01*
X10910658Y-16454830D02*
X10939229Y-16454830D01*
X10939229Y-16454830D02*
X10958277Y-16464354D01*
X10958277Y-16464354D02*
X10967801Y-16483402D01*
X10967801Y-16483402D02*
X10967801Y-16588164D01*
X10967801Y-16483402D02*
X10977325Y-16464354D01*
X10977325Y-16464354D02*
X10996372Y-16454830D01*
X10996372Y-16454830D02*
X11024944Y-16454830D01*
X11024944Y-16454830D02*
X11043991Y-16464354D01*
X11043991Y-16464354D02*
X11053515Y-16483402D01*
X11053515Y-16483402D02*
X11053515Y-16588164D01*
X11443991Y-16378640D02*
X11272563Y-16635783D01*
X11701134Y-16388164D02*
X11720182Y-16388164D01*
X11720182Y-16388164D02*
X11739229Y-16397688D01*
X11739229Y-16397688D02*
X11748753Y-16407211D01*
X11748753Y-16407211D02*
X11758277Y-16426259D01*
X11758277Y-16426259D02*
X11767801Y-16464354D01*
X11767801Y-16464354D02*
X11767801Y-16511973D01*
X11767801Y-16511973D02*
X11758277Y-16550068D01*
X11758277Y-16550068D02*
X11748753Y-16569116D01*
X11748753Y-16569116D02*
X11739229Y-16578640D01*
X11739229Y-16578640D02*
X11720182Y-16588164D01*
X11720182Y-16588164D02*
X11701134Y-16588164D01*
X11701134Y-16588164D02*
X11682086Y-16578640D01*
X11682086Y-16578640D02*
X11672563Y-16569116D01*
X11672563Y-16569116D02*
X11663039Y-16550068D01*
X11663039Y-16550068D02*
X11653515Y-16511973D01*
X11653515Y-16511973D02*
X11653515Y-16464354D01*
X11653515Y-16464354D02*
X11663039Y-16426259D01*
X11663039Y-16426259D02*
X11672563Y-16407211D01*
X11672563Y-16407211D02*
X11682086Y-16397688D01*
X11682086Y-16397688D02*
X11701134Y-16388164D01*
X11853515Y-16569116D02*
X11863039Y-16578640D01*
X11863039Y-16578640D02*
X11853515Y-16588164D01*
X11853515Y-16588164D02*
X11843991Y-16578640D01*
X11843991Y-16578640D02*
X11853515Y-16569116D01*
X11853515Y-16569116D02*
X11853515Y-16588164D01*
X12053515Y-16588164D02*
X11939229Y-16588164D01*
X11996372Y-16588164D02*
X11996372Y-16388164D01*
X11996372Y-16388164D02*
X11977325Y-16416735D01*
X11977325Y-16416735D02*
X11958277Y-16435783D01*
X11958277Y-16435783D02*
X11939229Y-16445307D01*
X12243991Y-16588164D02*
X12129706Y-16588164D01*
X12186848Y-16588164D02*
X12186848Y-16388164D01*
X12186848Y-16388164D02*
X12167801Y-16416735D01*
X12167801Y-16416735D02*
X12148753Y-16435783D01*
X12148753Y-16435783D02*
X12129706Y-16445307D01*
X12358277Y-16473878D02*
X12339229Y-16464354D01*
X12339229Y-16464354D02*
X12329706Y-16454830D01*
X12329706Y-16454830D02*
X12320182Y-16435783D01*
X12320182Y-16435783D02*
X12320182Y-16426259D01*
X12320182Y-16426259D02*
X12329706Y-16407211D01*
X12329706Y-16407211D02*
X12339229Y-16397688D01*
X12339229Y-16397688D02*
X12358277Y-16388164D01*
X12358277Y-16388164D02*
X12396372Y-16388164D01*
X12396372Y-16388164D02*
X12415420Y-16397688D01*
X12415420Y-16397688D02*
X12424944Y-16407211D01*
X12424944Y-16407211D02*
X12434467Y-16426259D01*
X12434467Y-16426259D02*
X12434467Y-16435783D01*
X12434467Y-16435783D02*
X12424944Y-16454830D01*
X12424944Y-16454830D02*
X12415420Y-16464354D01*
X12415420Y-16464354D02*
X12396372Y-16473878D01*
X12396372Y-16473878D02*
X12358277Y-16473878D01*
X12358277Y-16473878D02*
X12339229Y-16483402D01*
X12339229Y-16483402D02*
X12329706Y-16492926D01*
X12329706Y-16492926D02*
X12320182Y-16511973D01*
X12320182Y-16511973D02*
X12320182Y-16550068D01*
X12320182Y-16550068D02*
X12329706Y-16569116D01*
X12329706Y-16569116D02*
X12339229Y-16578640D01*
X12339229Y-16578640D02*
X12358277Y-16588164D01*
X12358277Y-16588164D02*
X12396372Y-16588164D01*
X12396372Y-16588164D02*
X12415420Y-16578640D01*
X12415420Y-16578640D02*
X12424944Y-16569116D01*
X12424944Y-16569116D02*
X12434467Y-16550068D01*
X12434467Y-16550068D02*
X12434467Y-16511973D01*
X12434467Y-16511973D02*
X12424944Y-16492926D01*
X12424944Y-16492926D02*
X12415420Y-16483402D01*
X12415420Y-16483402D02*
X12396372Y-16473878D01*
X12624944Y-16588164D02*
X12510658Y-16588164D01*
X12567801Y-16588164D02*
X12567801Y-16388164D01*
X12567801Y-16388164D02*
X12548753Y-16416735D01*
X12548753Y-16416735D02*
X12529706Y-16435783D01*
X12529706Y-16435783D02*
X12510658Y-16445307D01*
X12701134Y-16388164D02*
X12701134Y-16426259D01*
X12777325Y-16388164D02*
X12777325Y-16426259D01*
X13072563Y-16664354D02*
X13063039Y-16654830D01*
X13063039Y-16654830D02*
X13043991Y-16626259D01*
X13043991Y-16626259D02*
X13034468Y-16607211D01*
X13034468Y-16607211D02*
X13024944Y-16578640D01*
X13024944Y-16578640D02*
X13015420Y-16531021D01*
X13015420Y-16531021D02*
X13015420Y-16492926D01*
X13015420Y-16492926D02*
X13024944Y-16445307D01*
X13024944Y-16445307D02*
X13034468Y-16416735D01*
X13034468Y-16416735D02*
X13043991Y-16397688D01*
X13043991Y-16397688D02*
X13063039Y-16369116D01*
X13063039Y-16369116D02*
X13072563Y-16359592D01*
X13129706Y-16388164D02*
X13253515Y-16388164D01*
X13253515Y-16388164D02*
X13186848Y-16464354D01*
X13186848Y-16464354D02*
X13215420Y-16464354D01*
X13215420Y-16464354D02*
X13234468Y-16473878D01*
X13234468Y-16473878D02*
X13243991Y-16483402D01*
X13243991Y-16483402D02*
X13253515Y-16502449D01*
X13253515Y-16502449D02*
X13253515Y-16550068D01*
X13253515Y-16550068D02*
X13243991Y-16569116D01*
X13243991Y-16569116D02*
X13234468Y-16578640D01*
X13234468Y-16578640D02*
X13215420Y-16588164D01*
X13215420Y-16588164D02*
X13158277Y-16588164D01*
X13158277Y-16588164D02*
X13139229Y-16578640D01*
X13139229Y-16578640D02*
X13129706Y-16569116D01*
X13424944Y-16454830D02*
X13424944Y-16588164D01*
X13377325Y-16378640D02*
X13329706Y-16521497D01*
X13329706Y-16521497D02*
X13453515Y-16521497D01*
X13682087Y-16588164D02*
X13682087Y-16388164D01*
X13767801Y-16588164D02*
X13767801Y-16483402D01*
X13767801Y-16483402D02*
X13758277Y-16464354D01*
X13758277Y-16464354D02*
X13739230Y-16454830D01*
X13739230Y-16454830D02*
X13710658Y-16454830D01*
X13710658Y-16454830D02*
X13691610Y-16464354D01*
X13691610Y-16464354D02*
X13682087Y-16473878D01*
X13891610Y-16588164D02*
X13872563Y-16578640D01*
X13872563Y-16578640D02*
X13863039Y-16569116D01*
X13863039Y-16569116D02*
X13853515Y-16550068D01*
X13853515Y-16550068D02*
X13853515Y-16492926D01*
X13853515Y-16492926D02*
X13863039Y-16473878D01*
X13863039Y-16473878D02*
X13872563Y-16464354D01*
X13872563Y-16464354D02*
X13891610Y-16454830D01*
X13891610Y-16454830D02*
X13920182Y-16454830D01*
X13920182Y-16454830D02*
X13939230Y-16464354D01*
X13939230Y-16464354D02*
X13948753Y-16473878D01*
X13948753Y-16473878D02*
X13958277Y-16492926D01*
X13958277Y-16492926D02*
X13958277Y-16550068D01*
X13958277Y-16550068D02*
X13948753Y-16569116D01*
X13948753Y-16569116D02*
X13939230Y-16578640D01*
X13939230Y-16578640D02*
X13920182Y-16588164D01*
X13920182Y-16588164D02*
X13891610Y-16588164D01*
X14072563Y-16588164D02*
X14053515Y-16578640D01*
X14053515Y-16578640D02*
X14043991Y-16559592D01*
X14043991Y-16559592D02*
X14043991Y-16388164D01*
X14224944Y-16578640D02*
X14205896Y-16588164D01*
X14205896Y-16588164D02*
X14167801Y-16588164D01*
X14167801Y-16588164D02*
X14148753Y-16578640D01*
X14148753Y-16578640D02*
X14139230Y-16559592D01*
X14139230Y-16559592D02*
X14139230Y-16483402D01*
X14139230Y-16483402D02*
X14148753Y-16464354D01*
X14148753Y-16464354D02*
X14167801Y-16454830D01*
X14167801Y-16454830D02*
X14205896Y-16454830D01*
X14205896Y-16454830D02*
X14224944Y-16464354D01*
X14224944Y-16464354D02*
X14234468Y-16483402D01*
X14234468Y-16483402D02*
X14234468Y-16502449D01*
X14234468Y-16502449D02*
X14139230Y-16521497D01*
X14310658Y-16578640D02*
X14329706Y-16588164D01*
X14329706Y-16588164D02*
X14367801Y-16588164D01*
X14367801Y-16588164D02*
X14386849Y-16578640D01*
X14386849Y-16578640D02*
X14396372Y-16559592D01*
X14396372Y-16559592D02*
X14396372Y-16550068D01*
X14396372Y-16550068D02*
X14386849Y-16531021D01*
X14386849Y-16531021D02*
X14367801Y-16521497D01*
X14367801Y-16521497D02*
X14339230Y-16521497D01*
X14339230Y-16521497D02*
X14320182Y-16511973D01*
X14320182Y-16511973D02*
X14310658Y-16492926D01*
X14310658Y-16492926D02*
X14310658Y-16483402D01*
X14310658Y-16483402D02*
X14320182Y-16464354D01*
X14320182Y-16464354D02*
X14339230Y-16454830D01*
X14339230Y-16454830D02*
X14367801Y-16454830D01*
X14367801Y-16454830D02*
X14386849Y-16464354D01*
X14463039Y-16664354D02*
X14472563Y-16654830D01*
X14472563Y-16654830D02*
X14491611Y-16626259D01*
X14491611Y-16626259D02*
X14501134Y-16607211D01*
X14501134Y-16607211D02*
X14510658Y-16578640D01*
X14510658Y-16578640D02*
X14520182Y-16531021D01*
X14520182Y-16531021D02*
X14520182Y-16492926D01*
X14520182Y-16492926D02*
X14510658Y-16445307D01*
X14510658Y-16445307D02*
X14501134Y-16416735D01*
X14501134Y-16416735D02*
X14491611Y-16397688D01*
X14491611Y-16397688D02*
X14472563Y-16369116D01*
X14472563Y-16369116D02*
X14463039Y-16359592D01*
X14824944Y-16664354D02*
X14815420Y-16654830D01*
X14815420Y-16654830D02*
X14796372Y-16626259D01*
X14796372Y-16626259D02*
X14786849Y-16607211D01*
X14786849Y-16607211D02*
X14777325Y-16578640D01*
X14777325Y-16578640D02*
X14767801Y-16531021D01*
X14767801Y-16531021D02*
X14767801Y-16492926D01*
X14767801Y-16492926D02*
X14777325Y-16445307D01*
X14777325Y-16445307D02*
X14786849Y-16416735D01*
X14786849Y-16416735D02*
X14796372Y-16397688D01*
X14796372Y-16397688D02*
X14815420Y-16369116D01*
X14815420Y-16369116D02*
X14824944Y-16359592D01*
X14901134Y-16454830D02*
X14901134Y-16588164D01*
X14901134Y-16473878D02*
X14910658Y-16464354D01*
X14910658Y-16464354D02*
X14929706Y-16454830D01*
X14929706Y-16454830D02*
X14958277Y-16454830D01*
X14958277Y-16454830D02*
X14977325Y-16464354D01*
X14977325Y-16464354D02*
X14986849Y-16483402D01*
X14986849Y-16483402D02*
X14986849Y-16588164D01*
X15110658Y-16588164D02*
X15091611Y-16578640D01*
X15091611Y-16578640D02*
X15082087Y-16569116D01*
X15082087Y-16569116D02*
X15072563Y-16550068D01*
X15072563Y-16550068D02*
X15072563Y-16492926D01*
X15072563Y-16492926D02*
X15082087Y-16473878D01*
X15082087Y-16473878D02*
X15091611Y-16464354D01*
X15091611Y-16464354D02*
X15110658Y-16454830D01*
X15110658Y-16454830D02*
X15139230Y-16454830D01*
X15139230Y-16454830D02*
X15158277Y-16464354D01*
X15158277Y-16464354D02*
X15167801Y-16473878D01*
X15167801Y-16473878D02*
X15177325Y-16492926D01*
X15177325Y-16492926D02*
X15177325Y-16550068D01*
X15177325Y-16550068D02*
X15167801Y-16569116D01*
X15167801Y-16569116D02*
X15158277Y-16578640D01*
X15158277Y-16578640D02*
X15139230Y-16588164D01*
X15139230Y-16588164D02*
X15110658Y-16588164D01*
X15234468Y-16454830D02*
X15310658Y-16454830D01*
X15263039Y-16388164D02*
X15263039Y-16559592D01*
X15263039Y-16559592D02*
X15272563Y-16578640D01*
X15272563Y-16578640D02*
X15291611Y-16588164D01*
X15291611Y-16588164D02*
X15310658Y-16588164D01*
X15529706Y-16454830D02*
X15529706Y-16654830D01*
X15529706Y-16464354D02*
X15548753Y-16454830D01*
X15548753Y-16454830D02*
X15586849Y-16454830D01*
X15586849Y-16454830D02*
X15605896Y-16464354D01*
X15605896Y-16464354D02*
X15615420Y-16473878D01*
X15615420Y-16473878D02*
X15624944Y-16492926D01*
X15624944Y-16492926D02*
X15624944Y-16550068D01*
X15624944Y-16550068D02*
X15615420Y-16569116D01*
X15615420Y-16569116D02*
X15605896Y-16578640D01*
X15605896Y-16578640D02*
X15586849Y-16588164D01*
X15586849Y-16588164D02*
X15548753Y-16588164D01*
X15548753Y-16588164D02*
X15529706Y-16578640D01*
X15739230Y-16588164D02*
X15720182Y-16578640D01*
X15720182Y-16578640D02*
X15710658Y-16559592D01*
X15710658Y-16559592D02*
X15710658Y-16388164D01*
X15901134Y-16588164D02*
X15901134Y-16483402D01*
X15901134Y-16483402D02*
X15891611Y-16464354D01*
X15891611Y-16464354D02*
X15872563Y-16454830D01*
X15872563Y-16454830D02*
X15834468Y-16454830D01*
X15834468Y-16454830D02*
X15815420Y-16464354D01*
X15901134Y-16578640D02*
X15882087Y-16588164D01*
X15882087Y-16588164D02*
X15834468Y-16588164D01*
X15834468Y-16588164D02*
X15815420Y-16578640D01*
X15815420Y-16578640D02*
X15805896Y-16559592D01*
X15805896Y-16559592D02*
X15805896Y-16540545D01*
X15805896Y-16540545D02*
X15815420Y-16521497D01*
X15815420Y-16521497D02*
X15834468Y-16511973D01*
X15834468Y-16511973D02*
X15882087Y-16511973D01*
X15882087Y-16511973D02*
X15901134Y-16502449D01*
X15967801Y-16454830D02*
X16043992Y-16454830D01*
X15996373Y-16388164D02*
X15996373Y-16559592D01*
X15996373Y-16559592D02*
X16005896Y-16578640D01*
X16005896Y-16578640D02*
X16024944Y-16588164D01*
X16024944Y-16588164D02*
X16043992Y-16588164D01*
X16186849Y-16578640D02*
X16167801Y-16588164D01*
X16167801Y-16588164D02*
X16129706Y-16588164D01*
X16129706Y-16588164D02*
X16110658Y-16578640D01*
X16110658Y-16578640D02*
X16101134Y-16559592D01*
X16101134Y-16559592D02*
X16101134Y-16483402D01*
X16101134Y-16483402D02*
X16110658Y-16464354D01*
X16110658Y-16464354D02*
X16129706Y-16454830D01*
X16129706Y-16454830D02*
X16167801Y-16454830D01*
X16167801Y-16454830D02*
X16186849Y-16464354D01*
X16186849Y-16464354D02*
X16196373Y-16483402D01*
X16196373Y-16483402D02*
X16196373Y-16502449D01*
X16196373Y-16502449D02*
X16101134Y-16521497D01*
X16367801Y-16588164D02*
X16367801Y-16388164D01*
X16367801Y-16578640D02*
X16348754Y-16588164D01*
X16348754Y-16588164D02*
X16310658Y-16588164D01*
X16310658Y-16588164D02*
X16291611Y-16578640D01*
X16291611Y-16578640D02*
X16282087Y-16569116D01*
X16282087Y-16569116D02*
X16272563Y-16550068D01*
X16272563Y-16550068D02*
X16272563Y-16492926D01*
X16272563Y-16492926D02*
X16282087Y-16473878D01*
X16282087Y-16473878D02*
X16291611Y-16464354D01*
X16291611Y-16464354D02*
X16310658Y-16454830D01*
X16310658Y-16454830D02*
X16348754Y-16454830D01*
X16348754Y-16454830D02*
X16367801Y-16464354D01*
X16443992Y-16664354D02*
X16453515Y-16654830D01*
X16453515Y-16654830D02*
X16472563Y-16626259D01*
X16472563Y-16626259D02*
X16482087Y-16607211D01*
X16482087Y-16607211D02*
X16491611Y-16578640D01*
X16491611Y-16578640D02*
X16501134Y-16531021D01*
X16501134Y-16531021D02*
X16501134Y-16492926D01*
X16501134Y-16492926D02*
X16491611Y-16445307D01*
X16491611Y-16445307D02*
X16482087Y-16416735D01*
X16482087Y-16416735D02*
X16472563Y-16397688D01*
X16472563Y-16397688D02*
X16453515Y-16369116D01*
X16453515Y-16369116D02*
X16443992Y-16359592D01*
X9468211Y-16887391D02*
X9468211Y-16745969D01*
X9326789Y-16745969D01*
X9326789Y-16887391D01*
X9468211Y-16887391D01*
X9739229Y-16708164D02*
X9863039Y-16708164D01*
X9863039Y-16708164D02*
X9796372Y-16784354D01*
X9796372Y-16784354D02*
X9824944Y-16784354D01*
X9824944Y-16784354D02*
X9843991Y-16793878D01*
X9843991Y-16793878D02*
X9853515Y-16803402D01*
X9853515Y-16803402D02*
X9863039Y-16822450D01*
X9863039Y-16822450D02*
X9863039Y-16870069D01*
X9863039Y-16870069D02*
X9853515Y-16889116D01*
X9853515Y-16889116D02*
X9843991Y-16898640D01*
X9843991Y-16898640D02*
X9824944Y-16908164D01*
X9824944Y-16908164D02*
X9767801Y-16908164D01*
X9767801Y-16908164D02*
X9748753Y-16898640D01*
X9748753Y-16898640D02*
X9739229Y-16889116D01*
X9948753Y-16889116D02*
X9958277Y-16898640D01*
X9958277Y-16898640D02*
X9948753Y-16908164D01*
X9948753Y-16908164D02*
X9939229Y-16898640D01*
X9939229Y-16898640D02*
X9948753Y-16889116D01*
X9948753Y-16889116D02*
X9948753Y-16908164D01*
X10082086Y-16708164D02*
X10101134Y-16708164D01*
X10101134Y-16708164D02*
X10120182Y-16717688D01*
X10120182Y-16717688D02*
X10129705Y-16727211D01*
X10129705Y-16727211D02*
X10139229Y-16746259D01*
X10139229Y-16746259D02*
X10148753Y-16784354D01*
X10148753Y-16784354D02*
X10148753Y-16831973D01*
X10148753Y-16831973D02*
X10139229Y-16870069D01*
X10139229Y-16870069D02*
X10129705Y-16889116D01*
X10129705Y-16889116D02*
X10120182Y-16898640D01*
X10120182Y-16898640D02*
X10101134Y-16908164D01*
X10101134Y-16908164D02*
X10082086Y-16908164D01*
X10082086Y-16908164D02*
X10063039Y-16898640D01*
X10063039Y-16898640D02*
X10053515Y-16889116D01*
X10053515Y-16889116D02*
X10043991Y-16870069D01*
X10043991Y-16870069D02*
X10034467Y-16831973D01*
X10034467Y-16831973D02*
X10034467Y-16784354D01*
X10034467Y-16784354D02*
X10043991Y-16746259D01*
X10043991Y-16746259D02*
X10053515Y-16727211D01*
X10053515Y-16727211D02*
X10063039Y-16717688D01*
X10063039Y-16717688D02*
X10082086Y-16708164D01*
X10320182Y-16774830D02*
X10320182Y-16908164D01*
X10272563Y-16698640D02*
X10224944Y-16841497D01*
X10224944Y-16841497D02*
X10348753Y-16841497D01*
X10453515Y-16793878D02*
X10434467Y-16784354D01*
X10434467Y-16784354D02*
X10424944Y-16774830D01*
X10424944Y-16774830D02*
X10415420Y-16755783D01*
X10415420Y-16755783D02*
X10415420Y-16746259D01*
X10415420Y-16746259D02*
X10424944Y-16727211D01*
X10424944Y-16727211D02*
X10434467Y-16717688D01*
X10434467Y-16717688D02*
X10453515Y-16708164D01*
X10453515Y-16708164D02*
X10491610Y-16708164D01*
X10491610Y-16708164D02*
X10510658Y-16717688D01*
X10510658Y-16717688D02*
X10520182Y-16727211D01*
X10520182Y-16727211D02*
X10529705Y-16746259D01*
X10529705Y-16746259D02*
X10529705Y-16755783D01*
X10529705Y-16755783D02*
X10520182Y-16774830D01*
X10520182Y-16774830D02*
X10510658Y-16784354D01*
X10510658Y-16784354D02*
X10491610Y-16793878D01*
X10491610Y-16793878D02*
X10453515Y-16793878D01*
X10453515Y-16793878D02*
X10434467Y-16803402D01*
X10434467Y-16803402D02*
X10424944Y-16812926D01*
X10424944Y-16812926D02*
X10415420Y-16831973D01*
X10415420Y-16831973D02*
X10415420Y-16870069D01*
X10415420Y-16870069D02*
X10424944Y-16889116D01*
X10424944Y-16889116D02*
X10434467Y-16898640D01*
X10434467Y-16898640D02*
X10453515Y-16908164D01*
X10453515Y-16908164D02*
X10491610Y-16908164D01*
X10491610Y-16908164D02*
X10510658Y-16898640D01*
X10510658Y-16898640D02*
X10520182Y-16889116D01*
X10520182Y-16889116D02*
X10529705Y-16870069D01*
X10529705Y-16870069D02*
X10529705Y-16831973D01*
X10529705Y-16831973D02*
X10520182Y-16812926D01*
X10520182Y-16812926D02*
X10510658Y-16803402D01*
X10510658Y-16803402D02*
X10491610Y-16793878D01*
X10615420Y-16908164D02*
X10615420Y-16774830D01*
X10615420Y-16793878D02*
X10624944Y-16784354D01*
X10624944Y-16784354D02*
X10643991Y-16774830D01*
X10643991Y-16774830D02*
X10672563Y-16774830D01*
X10672563Y-16774830D02*
X10691610Y-16784354D01*
X10691610Y-16784354D02*
X10701134Y-16803402D01*
X10701134Y-16803402D02*
X10701134Y-16908164D01*
X10701134Y-16803402D02*
X10710658Y-16784354D01*
X10710658Y-16784354D02*
X10729705Y-16774830D01*
X10729705Y-16774830D02*
X10758277Y-16774830D01*
X10758277Y-16774830D02*
X10777325Y-16784354D01*
X10777325Y-16784354D02*
X10786848Y-16803402D01*
X10786848Y-16803402D02*
X10786848Y-16908164D01*
X10882086Y-16908164D02*
X10882086Y-16774830D01*
X10882086Y-16793878D02*
X10891610Y-16784354D01*
X10891610Y-16784354D02*
X10910658Y-16774830D01*
X10910658Y-16774830D02*
X10939229Y-16774830D01*
X10939229Y-16774830D02*
X10958277Y-16784354D01*
X10958277Y-16784354D02*
X10967801Y-16803402D01*
X10967801Y-16803402D02*
X10967801Y-16908164D01*
X10967801Y-16803402D02*
X10977325Y-16784354D01*
X10977325Y-16784354D02*
X10996372Y-16774830D01*
X10996372Y-16774830D02*
X11024944Y-16774830D01*
X11024944Y-16774830D02*
X11043991Y-16784354D01*
X11043991Y-16784354D02*
X11053515Y-16803402D01*
X11053515Y-16803402D02*
X11053515Y-16908164D01*
X11443991Y-16698640D02*
X11272563Y-16955783D01*
X11701134Y-16708164D02*
X11720182Y-16708164D01*
X11720182Y-16708164D02*
X11739229Y-16717688D01*
X11739229Y-16717688D02*
X11748753Y-16727211D01*
X11748753Y-16727211D02*
X11758277Y-16746259D01*
X11758277Y-16746259D02*
X11767801Y-16784354D01*
X11767801Y-16784354D02*
X11767801Y-16831973D01*
X11767801Y-16831973D02*
X11758277Y-16870069D01*
X11758277Y-16870069D02*
X11748753Y-16889116D01*
X11748753Y-16889116D02*
X11739229Y-16898640D01*
X11739229Y-16898640D02*
X11720182Y-16908164D01*
X11720182Y-16908164D02*
X11701134Y-16908164D01*
X11701134Y-16908164D02*
X11682086Y-16898640D01*
X11682086Y-16898640D02*
X11672563Y-16889116D01*
X11672563Y-16889116D02*
X11663039Y-16870069D01*
X11663039Y-16870069D02*
X11653515Y-16831973D01*
X11653515Y-16831973D02*
X11653515Y-16784354D01*
X11653515Y-16784354D02*
X11663039Y-16746259D01*
X11663039Y-16746259D02*
X11672563Y-16727211D01*
X11672563Y-16727211D02*
X11682086Y-16717688D01*
X11682086Y-16717688D02*
X11701134Y-16708164D01*
X11853515Y-16889116D02*
X11863039Y-16898640D01*
X11863039Y-16898640D02*
X11853515Y-16908164D01*
X11853515Y-16908164D02*
X11843991Y-16898640D01*
X11843991Y-16898640D02*
X11853515Y-16889116D01*
X11853515Y-16889116D02*
X11853515Y-16908164D01*
X12053515Y-16908164D02*
X11939229Y-16908164D01*
X11996372Y-16908164D02*
X11996372Y-16708164D01*
X11996372Y-16708164D02*
X11977325Y-16736735D01*
X11977325Y-16736735D02*
X11958277Y-16755783D01*
X11958277Y-16755783D02*
X11939229Y-16765307D01*
X12129706Y-16727211D02*
X12139229Y-16717688D01*
X12139229Y-16717688D02*
X12158277Y-16708164D01*
X12158277Y-16708164D02*
X12205896Y-16708164D01*
X12205896Y-16708164D02*
X12224944Y-16717688D01*
X12224944Y-16717688D02*
X12234467Y-16727211D01*
X12234467Y-16727211D02*
X12243991Y-16746259D01*
X12243991Y-16746259D02*
X12243991Y-16765307D01*
X12243991Y-16765307D02*
X12234467Y-16793878D01*
X12234467Y-16793878D02*
X12120182Y-16908164D01*
X12120182Y-16908164D02*
X12243991Y-16908164D01*
X12367801Y-16708164D02*
X12386848Y-16708164D01*
X12386848Y-16708164D02*
X12405896Y-16717688D01*
X12405896Y-16717688D02*
X12415420Y-16727211D01*
X12415420Y-16727211D02*
X12424944Y-16746259D01*
X12424944Y-16746259D02*
X12434467Y-16784354D01*
X12434467Y-16784354D02*
X12434467Y-16831973D01*
X12434467Y-16831973D02*
X12424944Y-16870069D01*
X12424944Y-16870069D02*
X12415420Y-16889116D01*
X12415420Y-16889116D02*
X12405896Y-16898640D01*
X12405896Y-16898640D02*
X12386848Y-16908164D01*
X12386848Y-16908164D02*
X12367801Y-16908164D01*
X12367801Y-16908164D02*
X12348753Y-16898640D01*
X12348753Y-16898640D02*
X12339229Y-16889116D01*
X12339229Y-16889116D02*
X12329706Y-16870069D01*
X12329706Y-16870069D02*
X12320182Y-16831973D01*
X12320182Y-16831973D02*
X12320182Y-16784354D01*
X12320182Y-16784354D02*
X12329706Y-16746259D01*
X12329706Y-16746259D02*
X12339229Y-16727211D01*
X12339229Y-16727211D02*
X12348753Y-16717688D01*
X12348753Y-16717688D02*
X12367801Y-16708164D01*
X12558277Y-16708164D02*
X12577325Y-16708164D01*
X12577325Y-16708164D02*
X12596372Y-16717688D01*
X12596372Y-16717688D02*
X12605896Y-16727211D01*
X12605896Y-16727211D02*
X12615420Y-16746259D01*
X12615420Y-16746259D02*
X12624944Y-16784354D01*
X12624944Y-16784354D02*
X12624944Y-16831973D01*
X12624944Y-16831973D02*
X12615420Y-16870069D01*
X12615420Y-16870069D02*
X12605896Y-16889116D01*
X12605896Y-16889116D02*
X12596372Y-16898640D01*
X12596372Y-16898640D02*
X12577325Y-16908164D01*
X12577325Y-16908164D02*
X12558277Y-16908164D01*
X12558277Y-16908164D02*
X12539229Y-16898640D01*
X12539229Y-16898640D02*
X12529706Y-16889116D01*
X12529706Y-16889116D02*
X12520182Y-16870069D01*
X12520182Y-16870069D02*
X12510658Y-16831973D01*
X12510658Y-16831973D02*
X12510658Y-16784354D01*
X12510658Y-16784354D02*
X12520182Y-16746259D01*
X12520182Y-16746259D02*
X12529706Y-16727211D01*
X12529706Y-16727211D02*
X12539229Y-16717688D01*
X12539229Y-16717688D02*
X12558277Y-16708164D01*
X12701134Y-16708164D02*
X12701134Y-16746259D01*
X12777325Y-16708164D02*
X12777325Y-16746259D01*
X13072563Y-16984354D02*
X13063039Y-16974830D01*
X13063039Y-16974830D02*
X13043991Y-16946259D01*
X13043991Y-16946259D02*
X13034468Y-16927211D01*
X13034468Y-16927211D02*
X13024944Y-16898640D01*
X13024944Y-16898640D02*
X13015420Y-16851021D01*
X13015420Y-16851021D02*
X13015420Y-16812926D01*
X13015420Y-16812926D02*
X13024944Y-16765307D01*
X13024944Y-16765307D02*
X13034468Y-16736735D01*
X13034468Y-16736735D02*
X13043991Y-16717688D01*
X13043991Y-16717688D02*
X13063039Y-16689116D01*
X13063039Y-16689116D02*
X13072563Y-16679592D01*
X13234468Y-16708164D02*
X13196372Y-16708164D01*
X13196372Y-16708164D02*
X13177325Y-16717688D01*
X13177325Y-16717688D02*
X13167801Y-16727211D01*
X13167801Y-16727211D02*
X13148753Y-16755783D01*
X13148753Y-16755783D02*
X13139229Y-16793878D01*
X13139229Y-16793878D02*
X13139229Y-16870069D01*
X13139229Y-16870069D02*
X13148753Y-16889116D01*
X13148753Y-16889116D02*
X13158277Y-16898640D01*
X13158277Y-16898640D02*
X13177325Y-16908164D01*
X13177325Y-16908164D02*
X13215420Y-16908164D01*
X13215420Y-16908164D02*
X13234468Y-16898640D01*
X13234468Y-16898640D02*
X13243991Y-16889116D01*
X13243991Y-16889116D02*
X13253515Y-16870069D01*
X13253515Y-16870069D02*
X13253515Y-16822450D01*
X13253515Y-16822450D02*
X13243991Y-16803402D01*
X13243991Y-16803402D02*
X13234468Y-16793878D01*
X13234468Y-16793878D02*
X13215420Y-16784354D01*
X13215420Y-16784354D02*
X13177325Y-16784354D01*
X13177325Y-16784354D02*
X13158277Y-16793878D01*
X13158277Y-16793878D02*
X13148753Y-16803402D01*
X13148753Y-16803402D02*
X13139229Y-16822450D01*
X13491610Y-16908164D02*
X13491610Y-16708164D01*
X13577325Y-16908164D02*
X13577325Y-16803402D01*
X13577325Y-16803402D02*
X13567801Y-16784354D01*
X13567801Y-16784354D02*
X13548753Y-16774830D01*
X13548753Y-16774830D02*
X13520182Y-16774830D01*
X13520182Y-16774830D02*
X13501134Y-16784354D01*
X13501134Y-16784354D02*
X13491610Y-16793878D01*
X13701134Y-16908164D02*
X13682087Y-16898640D01*
X13682087Y-16898640D02*
X13672563Y-16889116D01*
X13672563Y-16889116D02*
X13663039Y-16870069D01*
X13663039Y-16870069D02*
X13663039Y-16812926D01*
X13663039Y-16812926D02*
X13672563Y-16793878D01*
X13672563Y-16793878D02*
X13682087Y-16784354D01*
X13682087Y-16784354D02*
X13701134Y-16774830D01*
X13701134Y-16774830D02*
X13729706Y-16774830D01*
X13729706Y-16774830D02*
X13748753Y-16784354D01*
X13748753Y-16784354D02*
X13758277Y-16793878D01*
X13758277Y-16793878D02*
X13767801Y-16812926D01*
X13767801Y-16812926D02*
X13767801Y-16870069D01*
X13767801Y-16870069D02*
X13758277Y-16889116D01*
X13758277Y-16889116D02*
X13748753Y-16898640D01*
X13748753Y-16898640D02*
X13729706Y-16908164D01*
X13729706Y-16908164D02*
X13701134Y-16908164D01*
X13882087Y-16908164D02*
X13863039Y-16898640D01*
X13863039Y-16898640D02*
X13853515Y-16879592D01*
X13853515Y-16879592D02*
X13853515Y-16708164D01*
X14034468Y-16898640D02*
X14015420Y-16908164D01*
X14015420Y-16908164D02*
X13977325Y-16908164D01*
X13977325Y-16908164D02*
X13958277Y-16898640D01*
X13958277Y-16898640D02*
X13948753Y-16879592D01*
X13948753Y-16879592D02*
X13948753Y-16803402D01*
X13948753Y-16803402D02*
X13958277Y-16784354D01*
X13958277Y-16784354D02*
X13977325Y-16774830D01*
X13977325Y-16774830D02*
X14015420Y-16774830D01*
X14015420Y-16774830D02*
X14034468Y-16784354D01*
X14034468Y-16784354D02*
X14043991Y-16803402D01*
X14043991Y-16803402D02*
X14043991Y-16822450D01*
X14043991Y-16822450D02*
X13948753Y-16841497D01*
X14120182Y-16898640D02*
X14139230Y-16908164D01*
X14139230Y-16908164D02*
X14177325Y-16908164D01*
X14177325Y-16908164D02*
X14196372Y-16898640D01*
X14196372Y-16898640D02*
X14205896Y-16879592D01*
X14205896Y-16879592D02*
X14205896Y-16870069D01*
X14205896Y-16870069D02*
X14196372Y-16851021D01*
X14196372Y-16851021D02*
X14177325Y-16841497D01*
X14177325Y-16841497D02*
X14148753Y-16841497D01*
X14148753Y-16841497D02*
X14129706Y-16831973D01*
X14129706Y-16831973D02*
X14120182Y-16812926D01*
X14120182Y-16812926D02*
X14120182Y-16803402D01*
X14120182Y-16803402D02*
X14129706Y-16784354D01*
X14129706Y-16784354D02*
X14148753Y-16774830D01*
X14148753Y-16774830D02*
X14177325Y-16774830D01*
X14177325Y-16774830D02*
X14196372Y-16784354D01*
X14272563Y-16984354D02*
X14282087Y-16974830D01*
X14282087Y-16974830D02*
X14301134Y-16946259D01*
X14301134Y-16946259D02*
X14310658Y-16927211D01*
X14310658Y-16927211D02*
X14320182Y-16898640D01*
X14320182Y-16898640D02*
X14329706Y-16851021D01*
X14329706Y-16851021D02*
X14329706Y-16812926D01*
X14329706Y-16812926D02*
X14320182Y-16765307D01*
X14320182Y-16765307D02*
X14310658Y-16736735D01*
X14310658Y-16736735D02*
X14301134Y-16717688D01*
X14301134Y-16717688D02*
X14282087Y-16689116D01*
X14282087Y-16689116D02*
X14272563Y-16679592D01*
X14634468Y-16984354D02*
X14624944Y-16974830D01*
X14624944Y-16974830D02*
X14605896Y-16946259D01*
X14605896Y-16946259D02*
X14596372Y-16927211D01*
X14596372Y-16927211D02*
X14586849Y-16898640D01*
X14586849Y-16898640D02*
X14577325Y-16851021D01*
X14577325Y-16851021D02*
X14577325Y-16812926D01*
X14577325Y-16812926D02*
X14586849Y-16765307D01*
X14586849Y-16765307D02*
X14596372Y-16736735D01*
X14596372Y-16736735D02*
X14605896Y-16717688D01*
X14605896Y-16717688D02*
X14624944Y-16689116D01*
X14624944Y-16689116D02*
X14634468Y-16679592D01*
X14710658Y-16774830D02*
X14710658Y-16908164D01*
X14710658Y-16793878D02*
X14720182Y-16784354D01*
X14720182Y-16784354D02*
X14739230Y-16774830D01*
X14739230Y-16774830D02*
X14767801Y-16774830D01*
X14767801Y-16774830D02*
X14786849Y-16784354D01*
X14786849Y-16784354D02*
X14796372Y-16803402D01*
X14796372Y-16803402D02*
X14796372Y-16908164D01*
X14920182Y-16908164D02*
X14901134Y-16898640D01*
X14901134Y-16898640D02*
X14891611Y-16889116D01*
X14891611Y-16889116D02*
X14882087Y-16870069D01*
X14882087Y-16870069D02*
X14882087Y-16812926D01*
X14882087Y-16812926D02*
X14891611Y-16793878D01*
X14891611Y-16793878D02*
X14901134Y-16784354D01*
X14901134Y-16784354D02*
X14920182Y-16774830D01*
X14920182Y-16774830D02*
X14948753Y-16774830D01*
X14948753Y-16774830D02*
X14967801Y-16784354D01*
X14967801Y-16784354D02*
X14977325Y-16793878D01*
X14977325Y-16793878D02*
X14986849Y-16812926D01*
X14986849Y-16812926D02*
X14986849Y-16870069D01*
X14986849Y-16870069D02*
X14977325Y-16889116D01*
X14977325Y-16889116D02*
X14967801Y-16898640D01*
X14967801Y-16898640D02*
X14948753Y-16908164D01*
X14948753Y-16908164D02*
X14920182Y-16908164D01*
X15043992Y-16774830D02*
X15120182Y-16774830D01*
X15072563Y-16708164D02*
X15072563Y-16879592D01*
X15072563Y-16879592D02*
X15082087Y-16898640D01*
X15082087Y-16898640D02*
X15101134Y-16908164D01*
X15101134Y-16908164D02*
X15120182Y-16908164D01*
X15339230Y-16774830D02*
X15339230Y-16974830D01*
X15339230Y-16784354D02*
X15358277Y-16774830D01*
X15358277Y-16774830D02*
X15396373Y-16774830D01*
X15396373Y-16774830D02*
X15415420Y-16784354D01*
X15415420Y-16784354D02*
X15424944Y-16793878D01*
X15424944Y-16793878D02*
X15434468Y-16812926D01*
X15434468Y-16812926D02*
X15434468Y-16870069D01*
X15434468Y-16870069D02*
X15424944Y-16889116D01*
X15424944Y-16889116D02*
X15415420Y-16898640D01*
X15415420Y-16898640D02*
X15396373Y-16908164D01*
X15396373Y-16908164D02*
X15358277Y-16908164D01*
X15358277Y-16908164D02*
X15339230Y-16898640D01*
X15548753Y-16908164D02*
X15529706Y-16898640D01*
X15529706Y-16898640D02*
X15520182Y-16879592D01*
X15520182Y-16879592D02*
X15520182Y-16708164D01*
X15710658Y-16908164D02*
X15710658Y-16803402D01*
X15710658Y-16803402D02*
X15701134Y-16784354D01*
X15701134Y-16784354D02*
X15682087Y-16774830D01*
X15682087Y-16774830D02*
X15643992Y-16774830D01*
X15643992Y-16774830D02*
X15624944Y-16784354D01*
X15710658Y-16898640D02*
X15691611Y-16908164D01*
X15691611Y-16908164D02*
X15643992Y-16908164D01*
X15643992Y-16908164D02*
X15624944Y-16898640D01*
X15624944Y-16898640D02*
X15615420Y-16879592D01*
X15615420Y-16879592D02*
X15615420Y-16860545D01*
X15615420Y-16860545D02*
X15624944Y-16841497D01*
X15624944Y-16841497D02*
X15643992Y-16831973D01*
X15643992Y-16831973D02*
X15691611Y-16831973D01*
X15691611Y-16831973D02*
X15710658Y-16822450D01*
X15777325Y-16774830D02*
X15853515Y-16774830D01*
X15805896Y-16708164D02*
X15805896Y-16879592D01*
X15805896Y-16879592D02*
X15815420Y-16898640D01*
X15815420Y-16898640D02*
X15834468Y-16908164D01*
X15834468Y-16908164D02*
X15853515Y-16908164D01*
X15996373Y-16898640D02*
X15977325Y-16908164D01*
X15977325Y-16908164D02*
X15939230Y-16908164D01*
X15939230Y-16908164D02*
X15920182Y-16898640D01*
X15920182Y-16898640D02*
X15910658Y-16879592D01*
X15910658Y-16879592D02*
X15910658Y-16803402D01*
X15910658Y-16803402D02*
X15920182Y-16784354D01*
X15920182Y-16784354D02*
X15939230Y-16774830D01*
X15939230Y-16774830D02*
X15977325Y-16774830D01*
X15977325Y-16774830D02*
X15996373Y-16784354D01*
X15996373Y-16784354D02*
X16005896Y-16803402D01*
X16005896Y-16803402D02*
X16005896Y-16822450D01*
X16005896Y-16822450D02*
X15910658Y-16841497D01*
X16177325Y-16908164D02*
X16177325Y-16708164D01*
X16177325Y-16898640D02*
X16158277Y-16908164D01*
X16158277Y-16908164D02*
X16120182Y-16908164D01*
X16120182Y-16908164D02*
X16101134Y-16898640D01*
X16101134Y-16898640D02*
X16091611Y-16889116D01*
X16091611Y-16889116D02*
X16082087Y-16870069D01*
X16082087Y-16870069D02*
X16082087Y-16812926D01*
X16082087Y-16812926D02*
X16091611Y-16793878D01*
X16091611Y-16793878D02*
X16101134Y-16784354D01*
X16101134Y-16784354D02*
X16120182Y-16774830D01*
X16120182Y-16774830D02*
X16158277Y-16774830D01*
X16158277Y-16774830D02*
X16177325Y-16784354D01*
X16253515Y-16984354D02*
X16263039Y-16974830D01*
X16263039Y-16974830D02*
X16282087Y-16946259D01*
X16282087Y-16946259D02*
X16291611Y-16927211D01*
X16291611Y-16927211D02*
X16301134Y-16898640D01*
X16301134Y-16898640D02*
X16310658Y-16851021D01*
X16310658Y-16851021D02*
X16310658Y-16812926D01*
X16310658Y-16812926D02*
X16301134Y-16765307D01*
X16301134Y-16765307D02*
X16291611Y-16736735D01*
X16291611Y-16736735D02*
X16282087Y-16717688D01*
X16282087Y-16717688D02*
X16263039Y-16689116D01*
X16263039Y-16689116D02*
X16253515Y-16679592D01*
X9397500Y-17236680D02*
X9497500Y-17136680D01*
X9397500Y-17036680D01*
X9297500Y-17136680D01*
X9397500Y-17236680D01*
X9739229Y-17028164D02*
X9863039Y-17028164D01*
X9863039Y-17028164D02*
X9796372Y-17104354D01*
X9796372Y-17104354D02*
X9824944Y-17104354D01*
X9824944Y-17104354D02*
X9843991Y-17113878D01*
X9843991Y-17113878D02*
X9853515Y-17123402D01*
X9853515Y-17123402D02*
X9863039Y-17142450D01*
X9863039Y-17142450D02*
X9863039Y-17190069D01*
X9863039Y-17190069D02*
X9853515Y-17209116D01*
X9853515Y-17209116D02*
X9843991Y-17218640D01*
X9843991Y-17218640D02*
X9824944Y-17228164D01*
X9824944Y-17228164D02*
X9767801Y-17228164D01*
X9767801Y-17228164D02*
X9748753Y-17218640D01*
X9748753Y-17218640D02*
X9739229Y-17209116D01*
X9948753Y-17209116D02*
X9958277Y-17218640D01*
X9958277Y-17218640D02*
X9948753Y-17228164D01*
X9948753Y-17228164D02*
X9939229Y-17218640D01*
X9939229Y-17218640D02*
X9948753Y-17209116D01*
X9948753Y-17209116D02*
X9948753Y-17228164D01*
X10053515Y-17228164D02*
X10091610Y-17228164D01*
X10091610Y-17228164D02*
X10110658Y-17218640D01*
X10110658Y-17218640D02*
X10120182Y-17209116D01*
X10120182Y-17209116D02*
X10139229Y-17180545D01*
X10139229Y-17180545D02*
X10148753Y-17142450D01*
X10148753Y-17142450D02*
X10148753Y-17066259D01*
X10148753Y-17066259D02*
X10139229Y-17047211D01*
X10139229Y-17047211D02*
X10129705Y-17037688D01*
X10129705Y-17037688D02*
X10110658Y-17028164D01*
X10110658Y-17028164D02*
X10072563Y-17028164D01*
X10072563Y-17028164D02*
X10053515Y-17037688D01*
X10053515Y-17037688D02*
X10043991Y-17047211D01*
X10043991Y-17047211D02*
X10034467Y-17066259D01*
X10034467Y-17066259D02*
X10034467Y-17113878D01*
X10034467Y-17113878D02*
X10043991Y-17132926D01*
X10043991Y-17132926D02*
X10053515Y-17142450D01*
X10053515Y-17142450D02*
X10072563Y-17151973D01*
X10072563Y-17151973D02*
X10110658Y-17151973D01*
X10110658Y-17151973D02*
X10129705Y-17142450D01*
X10129705Y-17142450D02*
X10139229Y-17132926D01*
X10139229Y-17132926D02*
X10148753Y-17113878D01*
X10263039Y-17113878D02*
X10243991Y-17104354D01*
X10243991Y-17104354D02*
X10234467Y-17094830D01*
X10234467Y-17094830D02*
X10224944Y-17075783D01*
X10224944Y-17075783D02*
X10224944Y-17066259D01*
X10224944Y-17066259D02*
X10234467Y-17047211D01*
X10234467Y-17047211D02*
X10243991Y-17037688D01*
X10243991Y-17037688D02*
X10263039Y-17028164D01*
X10263039Y-17028164D02*
X10301134Y-17028164D01*
X10301134Y-17028164D02*
X10320182Y-17037688D01*
X10320182Y-17037688D02*
X10329705Y-17047211D01*
X10329705Y-17047211D02*
X10339229Y-17066259D01*
X10339229Y-17066259D02*
X10339229Y-17075783D01*
X10339229Y-17075783D02*
X10329705Y-17094830D01*
X10329705Y-17094830D02*
X10320182Y-17104354D01*
X10320182Y-17104354D02*
X10301134Y-17113878D01*
X10301134Y-17113878D02*
X10263039Y-17113878D01*
X10263039Y-17113878D02*
X10243991Y-17123402D01*
X10243991Y-17123402D02*
X10234467Y-17132926D01*
X10234467Y-17132926D02*
X10224944Y-17151973D01*
X10224944Y-17151973D02*
X10224944Y-17190069D01*
X10224944Y-17190069D02*
X10234467Y-17209116D01*
X10234467Y-17209116D02*
X10243991Y-17218640D01*
X10243991Y-17218640D02*
X10263039Y-17228164D01*
X10263039Y-17228164D02*
X10301134Y-17228164D01*
X10301134Y-17228164D02*
X10320182Y-17218640D01*
X10320182Y-17218640D02*
X10329705Y-17209116D01*
X10329705Y-17209116D02*
X10339229Y-17190069D01*
X10339229Y-17190069D02*
X10339229Y-17151973D01*
X10339229Y-17151973D02*
X10329705Y-17132926D01*
X10329705Y-17132926D02*
X10320182Y-17123402D01*
X10320182Y-17123402D02*
X10301134Y-17113878D01*
X10453515Y-17113878D02*
X10434467Y-17104354D01*
X10434467Y-17104354D02*
X10424944Y-17094830D01*
X10424944Y-17094830D02*
X10415420Y-17075783D01*
X10415420Y-17075783D02*
X10415420Y-17066259D01*
X10415420Y-17066259D02*
X10424944Y-17047211D01*
X10424944Y-17047211D02*
X10434467Y-17037688D01*
X10434467Y-17037688D02*
X10453515Y-17028164D01*
X10453515Y-17028164D02*
X10491610Y-17028164D01*
X10491610Y-17028164D02*
X10510658Y-17037688D01*
X10510658Y-17037688D02*
X10520182Y-17047211D01*
X10520182Y-17047211D02*
X10529705Y-17066259D01*
X10529705Y-17066259D02*
X10529705Y-17075783D01*
X10529705Y-17075783D02*
X10520182Y-17094830D01*
X10520182Y-17094830D02*
X10510658Y-17104354D01*
X10510658Y-17104354D02*
X10491610Y-17113878D01*
X10491610Y-17113878D02*
X10453515Y-17113878D01*
X10453515Y-17113878D02*
X10434467Y-17123402D01*
X10434467Y-17123402D02*
X10424944Y-17132926D01*
X10424944Y-17132926D02*
X10415420Y-17151973D01*
X10415420Y-17151973D02*
X10415420Y-17190069D01*
X10415420Y-17190069D02*
X10424944Y-17209116D01*
X10424944Y-17209116D02*
X10434467Y-17218640D01*
X10434467Y-17218640D02*
X10453515Y-17228164D01*
X10453515Y-17228164D02*
X10491610Y-17228164D01*
X10491610Y-17228164D02*
X10510658Y-17218640D01*
X10510658Y-17218640D02*
X10520182Y-17209116D01*
X10520182Y-17209116D02*
X10529705Y-17190069D01*
X10529705Y-17190069D02*
X10529705Y-17151973D01*
X10529705Y-17151973D02*
X10520182Y-17132926D01*
X10520182Y-17132926D02*
X10510658Y-17123402D01*
X10510658Y-17123402D02*
X10491610Y-17113878D01*
X10615420Y-17228164D02*
X10615420Y-17094830D01*
X10615420Y-17113878D02*
X10624944Y-17104354D01*
X10624944Y-17104354D02*
X10643991Y-17094830D01*
X10643991Y-17094830D02*
X10672563Y-17094830D01*
X10672563Y-17094830D02*
X10691610Y-17104354D01*
X10691610Y-17104354D02*
X10701134Y-17123402D01*
X10701134Y-17123402D02*
X10701134Y-17228164D01*
X10701134Y-17123402D02*
X10710658Y-17104354D01*
X10710658Y-17104354D02*
X10729705Y-17094830D01*
X10729705Y-17094830D02*
X10758277Y-17094830D01*
X10758277Y-17094830D02*
X10777325Y-17104354D01*
X10777325Y-17104354D02*
X10786848Y-17123402D01*
X10786848Y-17123402D02*
X10786848Y-17228164D01*
X10882086Y-17228164D02*
X10882086Y-17094830D01*
X10882086Y-17113878D02*
X10891610Y-17104354D01*
X10891610Y-17104354D02*
X10910658Y-17094830D01*
X10910658Y-17094830D02*
X10939229Y-17094830D01*
X10939229Y-17094830D02*
X10958277Y-17104354D01*
X10958277Y-17104354D02*
X10967801Y-17123402D01*
X10967801Y-17123402D02*
X10967801Y-17228164D01*
X10967801Y-17123402D02*
X10977325Y-17104354D01*
X10977325Y-17104354D02*
X10996372Y-17094830D01*
X10996372Y-17094830D02*
X11024944Y-17094830D01*
X11024944Y-17094830D02*
X11043991Y-17104354D01*
X11043991Y-17104354D02*
X11053515Y-17123402D01*
X11053515Y-17123402D02*
X11053515Y-17228164D01*
X11443991Y-17018640D02*
X11272563Y-17275783D01*
X11701134Y-17028164D02*
X11720182Y-17028164D01*
X11720182Y-17028164D02*
X11739229Y-17037688D01*
X11739229Y-17037688D02*
X11748753Y-17047211D01*
X11748753Y-17047211D02*
X11758277Y-17066259D01*
X11758277Y-17066259D02*
X11767801Y-17104354D01*
X11767801Y-17104354D02*
X11767801Y-17151973D01*
X11767801Y-17151973D02*
X11758277Y-17190069D01*
X11758277Y-17190069D02*
X11748753Y-17209116D01*
X11748753Y-17209116D02*
X11739229Y-17218640D01*
X11739229Y-17218640D02*
X11720182Y-17228164D01*
X11720182Y-17228164D02*
X11701134Y-17228164D01*
X11701134Y-17228164D02*
X11682086Y-17218640D01*
X11682086Y-17218640D02*
X11672563Y-17209116D01*
X11672563Y-17209116D02*
X11663039Y-17190069D01*
X11663039Y-17190069D02*
X11653515Y-17151973D01*
X11653515Y-17151973D02*
X11653515Y-17104354D01*
X11653515Y-17104354D02*
X11663039Y-17066259D01*
X11663039Y-17066259D02*
X11672563Y-17047211D01*
X11672563Y-17047211D02*
X11682086Y-17037688D01*
X11682086Y-17037688D02*
X11701134Y-17028164D01*
X11853515Y-17209116D02*
X11863039Y-17218640D01*
X11863039Y-17218640D02*
X11853515Y-17228164D01*
X11853515Y-17228164D02*
X11843991Y-17218640D01*
X11843991Y-17218640D02*
X11853515Y-17209116D01*
X11853515Y-17209116D02*
X11853515Y-17228164D01*
X12053515Y-17228164D02*
X11939229Y-17228164D01*
X11996372Y-17228164D02*
X11996372Y-17028164D01*
X11996372Y-17028164D02*
X11977325Y-17056735D01*
X11977325Y-17056735D02*
X11958277Y-17075783D01*
X11958277Y-17075783D02*
X11939229Y-17085307D01*
X12234467Y-17028164D02*
X12139229Y-17028164D01*
X12139229Y-17028164D02*
X12129706Y-17123402D01*
X12129706Y-17123402D02*
X12139229Y-17113878D01*
X12139229Y-17113878D02*
X12158277Y-17104354D01*
X12158277Y-17104354D02*
X12205896Y-17104354D01*
X12205896Y-17104354D02*
X12224944Y-17113878D01*
X12224944Y-17113878D02*
X12234467Y-17123402D01*
X12234467Y-17123402D02*
X12243991Y-17142450D01*
X12243991Y-17142450D02*
X12243991Y-17190069D01*
X12243991Y-17190069D02*
X12234467Y-17209116D01*
X12234467Y-17209116D02*
X12224944Y-17218640D01*
X12224944Y-17218640D02*
X12205896Y-17228164D01*
X12205896Y-17228164D02*
X12158277Y-17228164D01*
X12158277Y-17228164D02*
X12139229Y-17218640D01*
X12139229Y-17218640D02*
X12129706Y-17209116D01*
X12310658Y-17028164D02*
X12443991Y-17028164D01*
X12443991Y-17028164D02*
X12358277Y-17228164D01*
X12558277Y-17028164D02*
X12577325Y-17028164D01*
X12577325Y-17028164D02*
X12596372Y-17037688D01*
X12596372Y-17037688D02*
X12605896Y-17047211D01*
X12605896Y-17047211D02*
X12615420Y-17066259D01*
X12615420Y-17066259D02*
X12624944Y-17104354D01*
X12624944Y-17104354D02*
X12624944Y-17151973D01*
X12624944Y-17151973D02*
X12615420Y-17190069D01*
X12615420Y-17190069D02*
X12605896Y-17209116D01*
X12605896Y-17209116D02*
X12596372Y-17218640D01*
X12596372Y-17218640D02*
X12577325Y-17228164D01*
X12577325Y-17228164D02*
X12558277Y-17228164D01*
X12558277Y-17228164D02*
X12539229Y-17218640D01*
X12539229Y-17218640D02*
X12529706Y-17209116D01*
X12529706Y-17209116D02*
X12520182Y-17190069D01*
X12520182Y-17190069D02*
X12510658Y-17151973D01*
X12510658Y-17151973D02*
X12510658Y-17104354D01*
X12510658Y-17104354D02*
X12520182Y-17066259D01*
X12520182Y-17066259D02*
X12529706Y-17047211D01*
X12529706Y-17047211D02*
X12539229Y-17037688D01*
X12539229Y-17037688D02*
X12558277Y-17028164D01*
X12701134Y-17028164D02*
X12701134Y-17066259D01*
X12777325Y-17028164D02*
X12777325Y-17066259D01*
X13072563Y-17304354D02*
X13063039Y-17294830D01*
X13063039Y-17294830D02*
X13043991Y-17266259D01*
X13043991Y-17266259D02*
X13034468Y-17247211D01*
X13034468Y-17247211D02*
X13024944Y-17218640D01*
X13024944Y-17218640D02*
X13015420Y-17171021D01*
X13015420Y-17171021D02*
X13015420Y-17132926D01*
X13015420Y-17132926D02*
X13024944Y-17085307D01*
X13024944Y-17085307D02*
X13034468Y-17056735D01*
X13034468Y-17056735D02*
X13043991Y-17037688D01*
X13043991Y-17037688D02*
X13063039Y-17009116D01*
X13063039Y-17009116D02*
X13072563Y-16999592D01*
X13139229Y-17047211D02*
X13148753Y-17037688D01*
X13148753Y-17037688D02*
X13167801Y-17028164D01*
X13167801Y-17028164D02*
X13215420Y-17028164D01*
X13215420Y-17028164D02*
X13234468Y-17037688D01*
X13234468Y-17037688D02*
X13243991Y-17047211D01*
X13243991Y-17047211D02*
X13253515Y-17066259D01*
X13253515Y-17066259D02*
X13253515Y-17085307D01*
X13253515Y-17085307D02*
X13243991Y-17113878D01*
X13243991Y-17113878D02*
X13129706Y-17228164D01*
X13129706Y-17228164D02*
X13253515Y-17228164D01*
X13320182Y-17028164D02*
X13443991Y-17028164D01*
X13443991Y-17028164D02*
X13377325Y-17104354D01*
X13377325Y-17104354D02*
X13405896Y-17104354D01*
X13405896Y-17104354D02*
X13424944Y-17113878D01*
X13424944Y-17113878D02*
X13434468Y-17123402D01*
X13434468Y-17123402D02*
X13443991Y-17142450D01*
X13443991Y-17142450D02*
X13443991Y-17190069D01*
X13443991Y-17190069D02*
X13434468Y-17209116D01*
X13434468Y-17209116D02*
X13424944Y-17218640D01*
X13424944Y-17218640D02*
X13405896Y-17228164D01*
X13405896Y-17228164D02*
X13348753Y-17228164D01*
X13348753Y-17228164D02*
X13329706Y-17218640D01*
X13329706Y-17218640D02*
X13320182Y-17209116D01*
X13682087Y-17228164D02*
X13682087Y-17028164D01*
X13767801Y-17228164D02*
X13767801Y-17123402D01*
X13767801Y-17123402D02*
X13758277Y-17104354D01*
X13758277Y-17104354D02*
X13739230Y-17094830D01*
X13739230Y-17094830D02*
X13710658Y-17094830D01*
X13710658Y-17094830D02*
X13691610Y-17104354D01*
X13691610Y-17104354D02*
X13682087Y-17113878D01*
X13891610Y-17228164D02*
X13872563Y-17218640D01*
X13872563Y-17218640D02*
X13863039Y-17209116D01*
X13863039Y-17209116D02*
X13853515Y-17190069D01*
X13853515Y-17190069D02*
X13853515Y-17132926D01*
X13853515Y-17132926D02*
X13863039Y-17113878D01*
X13863039Y-17113878D02*
X13872563Y-17104354D01*
X13872563Y-17104354D02*
X13891610Y-17094830D01*
X13891610Y-17094830D02*
X13920182Y-17094830D01*
X13920182Y-17094830D02*
X13939230Y-17104354D01*
X13939230Y-17104354D02*
X13948753Y-17113878D01*
X13948753Y-17113878D02*
X13958277Y-17132926D01*
X13958277Y-17132926D02*
X13958277Y-17190069D01*
X13958277Y-17190069D02*
X13948753Y-17209116D01*
X13948753Y-17209116D02*
X13939230Y-17218640D01*
X13939230Y-17218640D02*
X13920182Y-17228164D01*
X13920182Y-17228164D02*
X13891610Y-17228164D01*
X14072563Y-17228164D02*
X14053515Y-17218640D01*
X14053515Y-17218640D02*
X14043991Y-17199592D01*
X14043991Y-17199592D02*
X14043991Y-17028164D01*
X14224944Y-17218640D02*
X14205896Y-17228164D01*
X14205896Y-17228164D02*
X14167801Y-17228164D01*
X14167801Y-17228164D02*
X14148753Y-17218640D01*
X14148753Y-17218640D02*
X14139230Y-17199592D01*
X14139230Y-17199592D02*
X14139230Y-17123402D01*
X14139230Y-17123402D02*
X14148753Y-17104354D01*
X14148753Y-17104354D02*
X14167801Y-17094830D01*
X14167801Y-17094830D02*
X14205896Y-17094830D01*
X14205896Y-17094830D02*
X14224944Y-17104354D01*
X14224944Y-17104354D02*
X14234468Y-17123402D01*
X14234468Y-17123402D02*
X14234468Y-17142450D01*
X14234468Y-17142450D02*
X14139230Y-17161497D01*
X14310658Y-17218640D02*
X14329706Y-17228164D01*
X14329706Y-17228164D02*
X14367801Y-17228164D01*
X14367801Y-17228164D02*
X14386849Y-17218640D01*
X14386849Y-17218640D02*
X14396372Y-17199592D01*
X14396372Y-17199592D02*
X14396372Y-17190069D01*
X14396372Y-17190069D02*
X14386849Y-17171021D01*
X14386849Y-17171021D02*
X14367801Y-17161497D01*
X14367801Y-17161497D02*
X14339230Y-17161497D01*
X14339230Y-17161497D02*
X14320182Y-17151973D01*
X14320182Y-17151973D02*
X14310658Y-17132926D01*
X14310658Y-17132926D02*
X14310658Y-17123402D01*
X14310658Y-17123402D02*
X14320182Y-17104354D01*
X14320182Y-17104354D02*
X14339230Y-17094830D01*
X14339230Y-17094830D02*
X14367801Y-17094830D01*
X14367801Y-17094830D02*
X14386849Y-17104354D01*
X14463039Y-17304354D02*
X14472563Y-17294830D01*
X14472563Y-17294830D02*
X14491611Y-17266259D01*
X14491611Y-17266259D02*
X14501134Y-17247211D01*
X14501134Y-17247211D02*
X14510658Y-17218640D01*
X14510658Y-17218640D02*
X14520182Y-17171021D01*
X14520182Y-17171021D02*
X14520182Y-17132926D01*
X14520182Y-17132926D02*
X14510658Y-17085307D01*
X14510658Y-17085307D02*
X14501134Y-17056735D01*
X14501134Y-17056735D02*
X14491611Y-17037688D01*
X14491611Y-17037688D02*
X14472563Y-17009116D01*
X14472563Y-17009116D02*
X14463039Y-16999592D01*
X14824944Y-17304354D02*
X14815420Y-17294830D01*
X14815420Y-17294830D02*
X14796372Y-17266259D01*
X14796372Y-17266259D02*
X14786849Y-17247211D01*
X14786849Y-17247211D02*
X14777325Y-17218640D01*
X14777325Y-17218640D02*
X14767801Y-17171021D01*
X14767801Y-17171021D02*
X14767801Y-17132926D01*
X14767801Y-17132926D02*
X14777325Y-17085307D01*
X14777325Y-17085307D02*
X14786849Y-17056735D01*
X14786849Y-17056735D02*
X14796372Y-17037688D01*
X14796372Y-17037688D02*
X14815420Y-17009116D01*
X14815420Y-17009116D02*
X14824944Y-16999592D01*
X14901134Y-17094830D02*
X14901134Y-17228164D01*
X14901134Y-17113878D02*
X14910658Y-17104354D01*
X14910658Y-17104354D02*
X14929706Y-17094830D01*
X14929706Y-17094830D02*
X14958277Y-17094830D01*
X14958277Y-17094830D02*
X14977325Y-17104354D01*
X14977325Y-17104354D02*
X14986849Y-17123402D01*
X14986849Y-17123402D02*
X14986849Y-17228164D01*
X15110658Y-17228164D02*
X15091611Y-17218640D01*
X15091611Y-17218640D02*
X15082087Y-17209116D01*
X15082087Y-17209116D02*
X15072563Y-17190069D01*
X15072563Y-17190069D02*
X15072563Y-17132926D01*
X15072563Y-17132926D02*
X15082087Y-17113878D01*
X15082087Y-17113878D02*
X15091611Y-17104354D01*
X15091611Y-17104354D02*
X15110658Y-17094830D01*
X15110658Y-17094830D02*
X15139230Y-17094830D01*
X15139230Y-17094830D02*
X15158277Y-17104354D01*
X15158277Y-17104354D02*
X15167801Y-17113878D01*
X15167801Y-17113878D02*
X15177325Y-17132926D01*
X15177325Y-17132926D02*
X15177325Y-17190069D01*
X15177325Y-17190069D02*
X15167801Y-17209116D01*
X15167801Y-17209116D02*
X15158277Y-17218640D01*
X15158277Y-17218640D02*
X15139230Y-17228164D01*
X15139230Y-17228164D02*
X15110658Y-17228164D01*
X15234468Y-17094830D02*
X15310658Y-17094830D01*
X15263039Y-17028164D02*
X15263039Y-17199592D01*
X15263039Y-17199592D02*
X15272563Y-17218640D01*
X15272563Y-17218640D02*
X15291611Y-17228164D01*
X15291611Y-17228164D02*
X15310658Y-17228164D01*
X15529706Y-17094830D02*
X15529706Y-17294830D01*
X15529706Y-17104354D02*
X15548753Y-17094830D01*
X15548753Y-17094830D02*
X15586849Y-17094830D01*
X15586849Y-17094830D02*
X15605896Y-17104354D01*
X15605896Y-17104354D02*
X15615420Y-17113878D01*
X15615420Y-17113878D02*
X15624944Y-17132926D01*
X15624944Y-17132926D02*
X15624944Y-17190069D01*
X15624944Y-17190069D02*
X15615420Y-17209116D01*
X15615420Y-17209116D02*
X15605896Y-17218640D01*
X15605896Y-17218640D02*
X15586849Y-17228164D01*
X15586849Y-17228164D02*
X15548753Y-17228164D01*
X15548753Y-17228164D02*
X15529706Y-17218640D01*
X15739230Y-17228164D02*
X15720182Y-17218640D01*
X15720182Y-17218640D02*
X15710658Y-17199592D01*
X15710658Y-17199592D02*
X15710658Y-17028164D01*
X15901134Y-17228164D02*
X15901134Y-17123402D01*
X15901134Y-17123402D02*
X15891611Y-17104354D01*
X15891611Y-17104354D02*
X15872563Y-17094830D01*
X15872563Y-17094830D02*
X15834468Y-17094830D01*
X15834468Y-17094830D02*
X15815420Y-17104354D01*
X15901134Y-17218640D02*
X15882087Y-17228164D01*
X15882087Y-17228164D02*
X15834468Y-17228164D01*
X15834468Y-17228164D02*
X15815420Y-17218640D01*
X15815420Y-17218640D02*
X15805896Y-17199592D01*
X15805896Y-17199592D02*
X15805896Y-17180545D01*
X15805896Y-17180545D02*
X15815420Y-17161497D01*
X15815420Y-17161497D02*
X15834468Y-17151973D01*
X15834468Y-17151973D02*
X15882087Y-17151973D01*
X15882087Y-17151973D02*
X15901134Y-17142450D01*
X15967801Y-17094830D02*
X16043992Y-17094830D01*
X15996373Y-17028164D02*
X15996373Y-17199592D01*
X15996373Y-17199592D02*
X16005896Y-17218640D01*
X16005896Y-17218640D02*
X16024944Y-17228164D01*
X16024944Y-17228164D02*
X16043992Y-17228164D01*
X16186849Y-17218640D02*
X16167801Y-17228164D01*
X16167801Y-17228164D02*
X16129706Y-17228164D01*
X16129706Y-17228164D02*
X16110658Y-17218640D01*
X16110658Y-17218640D02*
X16101134Y-17199592D01*
X16101134Y-17199592D02*
X16101134Y-17123402D01*
X16101134Y-17123402D02*
X16110658Y-17104354D01*
X16110658Y-17104354D02*
X16129706Y-17094830D01*
X16129706Y-17094830D02*
X16167801Y-17094830D01*
X16167801Y-17094830D02*
X16186849Y-17104354D01*
X16186849Y-17104354D02*
X16196373Y-17123402D01*
X16196373Y-17123402D02*
X16196373Y-17142450D01*
X16196373Y-17142450D02*
X16101134Y-17161497D01*
X16367801Y-17228164D02*
X16367801Y-17028164D01*
X16367801Y-17218640D02*
X16348754Y-17228164D01*
X16348754Y-17228164D02*
X16310658Y-17228164D01*
X16310658Y-17228164D02*
X16291611Y-17218640D01*
X16291611Y-17218640D02*
X16282087Y-17209116D01*
X16282087Y-17209116D02*
X16272563Y-17190069D01*
X16272563Y-17190069D02*
X16272563Y-17132926D01*
X16272563Y-17132926D02*
X16282087Y-17113878D01*
X16282087Y-17113878D02*
X16291611Y-17104354D01*
X16291611Y-17104354D02*
X16310658Y-17094830D01*
X16310658Y-17094830D02*
X16348754Y-17094830D01*
X16348754Y-17094830D02*
X16367801Y-17104354D01*
X16443992Y-17304354D02*
X16453515Y-17294830D01*
X16453515Y-17294830D02*
X16472563Y-17266259D01*
X16472563Y-17266259D02*
X16482087Y-17247211D01*
X16482087Y-17247211D02*
X16491611Y-17218640D01*
X16491611Y-17218640D02*
X16501134Y-17171021D01*
X16501134Y-17171021D02*
X16501134Y-17132926D01*
X16501134Y-17132926D02*
X16491611Y-17085307D01*
X16491611Y-17085307D02*
X16482087Y-17056735D01*
X16482087Y-17056735D02*
X16472563Y-17037688D01*
X16472563Y-17037688D02*
X16453515Y-17009116D01*
X16453515Y-17009116D02*
X16443992Y-16999592D01*
M02*
