M48
; DRILL file {KiCad 8.0.4} date 2024-08-20T22:26:37+1000
; FORMAT={-:-/ absolute / inch / decimal}
; #@! TF.CreationDate,2024-08-20T22:26:37+10:00
; #@! TF.GenerationSoftware,Kicad,Pcbnew,8.0.4
; #@! TF.FileFunction,Plated,1,4,PTH
FMAT,2
INCH
; #@! TA.AperFunction,Plated,PTH,ViaDrill
T1C0.0118
; #@! TA.AperFunction,Plated,PTH,ComponentDrill
T2C0.0236
; #@! TA.AperFunction,Plated,PTH,ComponentDrill
T3C0.0394
; #@! TA.AperFunction,Plated,PTH,ComponentDrill
T4C0.0591
%
G90
G05
T1
X3.7531Y-2.6753
X3.837Y-2.5659
X3.8816Y-2.5674
X3.9096Y-2.8645
X3.9098Y-2.9784
X3.9098Y-2.7347
X3.9399Y-3.3158
X3.9413Y-3.13
X3.9599Y-3.0011
X3.9819Y-2.7761
X3.9847Y-3.2603
X3.9858Y-3.1304
X3.9914Y-3.0776
X4.0189Y-3.1613
X4.0311Y-2.9671
X4.0311Y-3.0773
X4.0705Y-2.9671
X4.0756Y-3.5279
X4.076Y-2.6019
X4.0771Y-2.8224
X4.0851Y-3.6333
X4.0882Y-3.0852
X4.1213Y-3.1722
X4.1455Y-3.2169
X4.1455Y-3.2641
X4.1455Y-3.3104
X4.1686Y-3.353
X4.1691Y-3.806
X4.1709Y-3.5399
X4.1807Y-2.9781
X4.1907Y-3.2178
X4.1907Y-3.2651
X4.1907Y-3.3113
X4.1941Y-2.6014
X4.1999Y-3.1727
X4.2165Y-2.8965
X4.2169Y-2.784
X4.2177Y-2.9454
X4.237Y-3.2641
X4.237Y-3.3113
X4.238Y-3.2188
X4.2419Y-3.469
X4.2647Y-2.9939
X4.2854Y-2.8915
X4.3087Y-3.6332
X4.3829Y-3.3031
X4.4035Y-2.5403
X4.4189Y-3.1442
X4.4354Y-2.7194
X4.4386Y-3.0793
X4.4642Y-3.3844
X4.4701Y-3.2761
X4.5094Y-3.2761
X4.5105Y-3.2322
X5.2988Y-3.0823
X5.2992Y-2.3324
X5.2992Y-3.8323
X5.2992Y-4.5822
X5.9098Y-5.3402
X6.0432Y-3.8325
X6.0432Y-2.3323
X6.0432Y-3.0823
X6.0437Y-4.5822
X6.7937Y-2.3323
X6.7941Y-3.0835
X6.7941Y-3.8323
X6.7945Y-4.5819
X6.7945Y-5.3323
T3
X3.8319Y-5.3366
X3.8319Y-5.435
X3.8319Y-5.5335
X3.8331Y-4.5087
X3.8331Y-4.6071
X3.8331Y-4.7055
X3.9783Y-3.9708
X4.0783Y-3.9708
X4.1783Y-3.9708
X4.2783Y-3.9708
X4.4028Y-5.3366
X4.4028Y-5.5335
X4.4039Y-4.5087
X4.4039Y-4.7055
T2
G00X3.9555Y-2.2486
M15
G01X3.9555Y-2.2722
M16
G05
G00X3.9555Y-2.4033
M15
G01X3.9555Y-2.4466
M16
G05
G00X4.2957Y-2.2486
M15
G01X4.2957Y-2.2722
M16
G05
G00X4.2957Y-2.4033
M15
G01X4.2957Y-2.4466
M16
G05
T4
G00X4.1016Y-5.2146
M15
G01X4.1528Y-5.2146
M16
G05
G00X4.1016Y-5.6555
M15
G01X4.1528Y-5.6555
M16
G05
G00X4.1028Y-4.3866
M15
G01X4.1539Y-4.3866
M16
G05
G00X4.1028Y-4.8276
M15
G01X4.1539Y-4.8276
M16
G05
M30
