M48
INCH,TZ
T1C0.0256
T2C0.0670
T3C0.1181
T4C0.1200
T5C0.1570
%
G90
G05
T1
X40352Y-23272
X42628Y-23272
T2
X47688Y-25323
X47688Y-32823
X47688Y-40323
X47688Y-47823
X51438Y-55323
X51688Y-25323
X51688Y-32823
X51688Y-40323
X51688Y-47823
X55188Y-25323
X55188Y-32823
X55188Y-40323
X55188Y-47823
X55438Y-55323
X59188Y-25323
X59188Y-32823
X59188Y-40323
X59188Y-47823
X62688Y-25323
X62688Y-32823
X62688Y-40323
X62688Y-47823
X62688Y-55323
X66688Y-25323
X66688Y-32823
X66688Y-40323
X66688Y-47823
X66688Y-55323
X70188Y-25323
X70188Y-36573
X70188Y-51573
X74188Y-25323
X74188Y-36573
X74188Y-51573
T3
X48188Y-24323
X48188Y-31823
X48188Y-39323
X48188Y-46823
X50688Y-23323
X50688Y-30823
X50688Y-38323
X50688Y-45823
X51938Y-54323
X54438Y-53323
X55688Y-24323
X55688Y-31823
X55688Y-39323
X55688Y-46823
X58188Y-23323
X58188Y-30823
X58188Y-38323
X58188Y-45823
X63188Y-24323
X63188Y-31823
X63188Y-39323
X63188Y-46823
X63188Y-54323
X65688Y-23323
X65688Y-30823
X65688Y-38323
X65688Y-45823
X65688Y-53323
X70688Y-24323
X70688Y-35573
X70688Y-50573
X73188Y-23323
X73188Y-34573
X73188Y-49573
T4
X48738Y-52573
X58138Y-52573
X74938Y-31873
X74938Y-41273
X74938Y-46873
X74938Y-56273
T5
X48738Y-58573
X49688Y-25323
X49688Y-32823
X49688Y-40323
X49688Y-47823
X53438Y-55323
X57188Y-25323
X57188Y-32823
X57188Y-40323
X57188Y-47823
X58138Y-58573
X64688Y-25323
X64688Y-32823
X64688Y-40323
X64688Y-47823
X64688Y-55323
X68938Y-31873
X68938Y-41273
X68938Y-46873
X68938Y-56273
X72188Y-25323
X72188Y-36573
X72188Y-51573
M30
