%TF.GenerationSoftware,KiCad,Pcbnew,8.0.1*%
%TF.CreationDate,2024-08-08T15:56:45+10:00*%
%TF.ProjectId,banana17_main,62616e61-6e61-4313-975f-6d61696e2e6b,rev?*%
%TF.SameCoordinates,Original*%
%TF.FileFunction,Soldermask,Bot*%
%TF.FilePolarity,Negative*%
%FSLAX46Y46*%
G04 Gerber Fmt 4.6, Leading zero omitted, Abs format (unit mm)*
G04 Created by KiCad (PCBNEW 8.0.1) date 2024-08-08 15:56:45*
%MOMM*%
%LPD*%
G01*
G04 APERTURE LIST*
G04 Aperture macros list*
%AMRoundRect*
0 Rectangle with rounded corners*
0 $1 Rounding radius*
0 $2 $3 $4 $5 $6 $7 $8 $9 X,Y pos of 4 corners*
0 Add a 4 corners polygon primitive as box body*
4,1,4,$2,$3,$4,$5,$6,$7,$8,$9,$2,$3,0*
0 Add four circle primitives for the rounded corners*
1,1,$1+$1,$2,$3*
1,1,$1+$1,$4,$5*
1,1,$1+$1,$6,$7*
1,1,$1+$1,$8,$9*
0 Add four rect primitives between the rounded corners*
20,1,$1+$1,$2,$3,$4,$5,0*
20,1,$1+$1,$4,$5,$6,$7,0*
20,1,$1+$1,$6,$7,$8,$9,0*
20,1,$1+$1,$8,$9,$2,$3,0*%
G04 Aperture macros list end*
%ADD10C,1.701800*%
%ADD11C,3.000000*%
%ADD12C,3.987800*%
%ADD13RoundRect,0.200000X-1.075000X-1.050000X1.075000X-1.050000X1.075000X1.050000X-1.075000X1.050000X0*%
%ADD14C,3.048000*%
%ADD15R,2.000000X2.000000*%
%ADD16C,2.000000*%
%ADD17R,3.200000X2.000000*%
%ADD18C,1.700000*%
%ADD19R,1.700000X1.700000*%
%ADD20RoundRect,0.250000X0.450000X-0.325000X0.450000X0.325000X-0.450000X0.325000X-0.450000X-0.325000X0*%
%ADD21RoundRect,0.155000X0.155000X-0.212500X0.155000X0.212500X-0.155000X0.212500X-0.155000X-0.212500X0*%
%ADD22RoundRect,0.160000X-0.160000X0.197500X-0.160000X-0.197500X0.160000X-0.197500X0.160000X0.197500X0*%
%ADD23RoundRect,0.150000X-0.150000X0.650000X-0.150000X-0.650000X0.150000X-0.650000X0.150000X0.650000X0*%
%ADD24C,0.650000*%
%ADD25RoundRect,0.060000X-0.240000X-0.665000X0.240000X-0.665000X0.240000X0.665000X-0.240000X0.665000X0*%
%ADD26RoundRect,0.060000X-0.090000X-0.665000X0.090000X-0.665000X0.090000X0.665000X-0.090000X0.665000X0*%
%ADD27O,1.300000X1.700000*%
%ADD28O,1.100000X2.200000*%
%ADD29RoundRect,0.155000X-0.212500X-0.155000X0.212500X-0.155000X0.212500X0.155000X-0.212500X0.155000X0*%
%ADD30RoundRect,0.160000X0.160000X-0.197500X0.160000X0.197500X-0.160000X0.197500X-0.160000X-0.197500X0*%
%ADD31RoundRect,0.155000X0.259862X-0.040659X-0.040659X0.259862X-0.259862X0.040659X0.040659X-0.259862X0*%
%ADD32RoundRect,0.155000X0.212500X0.155000X-0.212500X0.155000X-0.212500X-0.155000X0.212500X-0.155000X0*%
%ADD33R,0.650000X1.050000*%
%ADD34RoundRect,0.155000X0.040659X0.259862X-0.259862X-0.040659X-0.040659X-0.259862X0.259862X0.040659X0*%
%ADD35RoundRect,0.050000X0.387500X0.050000X-0.387500X0.050000X-0.387500X-0.050000X0.387500X-0.050000X0*%
%ADD36RoundRect,0.050000X0.050000X0.387500X-0.050000X0.387500X-0.050000X-0.387500X0.050000X-0.387500X0*%
%ADD37R,3.200000X3.200000*%
%ADD38RoundRect,0.155000X-0.040659X-0.259862X0.259862X0.040659X0.040659X0.259862X-0.259862X-0.040659X0*%
%ADD39RoundRect,0.155000X-0.259862X0.040659X0.040659X-0.259862X0.259862X-0.040659X-0.040659X0.259862X0*%
%ADD40RoundRect,0.155000X-0.155000X0.212500X-0.155000X-0.212500X0.155000X-0.212500X0.155000X0.212500X0*%
%ADD41RoundRect,0.375000X-0.375000X0.625000X-0.375000X-0.625000X0.375000X-0.625000X0.375000X0.625000X0*%
%ADD42RoundRect,0.500000X-1.400000X0.500000X-1.400000X-0.500000X1.400000X-0.500000X1.400000X0.500000X0*%
%ADD43R,1.400000X1.200000*%
G04 APERTURE END LIST*
D10*
%TO.C,SW10*%
X140178000Y-102420000D03*
D11*
X141448000Y-99880000D03*
D12*
X145258000Y-102420000D03*
D11*
X147798000Y-97340000D03*
D10*
X150338000Y-102420000D03*
D13*
X138173000Y-99880000D03*
X151100000Y-97340000D03*
%TD*%
D14*
%TO.C,SW15*%
X123795000Y-133535000D03*
D12*
X123795000Y-148775000D03*
D10*
X130653000Y-140520000D03*
D11*
X131923000Y-137980000D03*
D12*
X135733000Y-140520000D03*
D11*
X138273000Y-135440000D03*
D10*
X140813000Y-140520000D03*
D14*
X147671000Y-133535000D03*
D12*
X147671000Y-148775000D03*
D13*
X128648000Y-137980000D03*
X141575000Y-135440000D03*
%TD*%
D10*
%TO.C,SW6*%
X140178000Y-83370000D03*
D11*
X141448000Y-80830000D03*
D12*
X145258000Y-83370000D03*
D11*
X147798000Y-78290000D03*
D10*
X150338000Y-83370000D03*
D13*
X138173000Y-80830000D03*
X151100000Y-78290000D03*
%TD*%
D10*
%TO.C,SW9*%
X121128000Y-102420000D03*
D11*
X122398000Y-99880000D03*
D12*
X126208000Y-102420000D03*
D11*
X128748000Y-97340000D03*
D10*
X131288000Y-102420000D03*
D13*
X119123000Y-99880000D03*
X132050000Y-97340000D03*
%TD*%
D10*
%TO.C,SW2*%
X140178000Y-64320000D03*
D11*
X141448000Y-61780000D03*
D12*
X145258000Y-64320000D03*
D11*
X147798000Y-59240000D03*
D10*
X150338000Y-64320000D03*
D13*
X138173000Y-61780000D03*
X151100000Y-59240000D03*
%TD*%
D15*
%TO.C,ENC1*%
X98050000Y-111300000D03*
D16*
X98050000Y-116300000D03*
X98050000Y-113800000D03*
D17*
X105550000Y-108200000D03*
X105550000Y-119400000D03*
D16*
X112550000Y-116300000D03*
X112550000Y-111300000D03*
%TD*%
D10*
%TO.C,SW11*%
X159228000Y-102420000D03*
D11*
X160498000Y-99880000D03*
D12*
X164308000Y-102420000D03*
D11*
X166848000Y-97340000D03*
D10*
X169388000Y-102420000D03*
D13*
X157223000Y-99880000D03*
X170150000Y-97340000D03*
%TD*%
D10*
%TO.C,SW13*%
X140178000Y-121470000D03*
D11*
X141448000Y-118930000D03*
D12*
X145258000Y-121470000D03*
D11*
X147798000Y-116390000D03*
D10*
X150338000Y-121470000D03*
D13*
X138173000Y-118930000D03*
X151100000Y-116390000D03*
%TD*%
D15*
%TO.C,ENC2*%
X98050000Y-132900000D03*
D16*
X98050000Y-137900000D03*
X98050000Y-135400000D03*
D17*
X105550000Y-129800000D03*
X105550000Y-141000000D03*
D16*
X112550000Y-137900000D03*
X112550000Y-132900000D03*
%TD*%
D10*
%TO.C,SW1*%
X121128000Y-64320000D03*
D11*
X122398000Y-61780000D03*
D12*
X126208000Y-64320000D03*
D11*
X128748000Y-59240000D03*
D10*
X131288000Y-64320000D03*
D13*
X119123000Y-61780000D03*
X132050000Y-59240000D03*
%TD*%
D10*
%TO.C,SW4*%
X178278000Y-64320000D03*
D11*
X179548000Y-61780000D03*
D12*
X183358000Y-64320000D03*
D11*
X185898000Y-59240000D03*
D10*
X188438000Y-64320000D03*
D13*
X176273000Y-61780000D03*
X189200000Y-59240000D03*
%TD*%
D12*
%TO.C,SW8*%
X175103000Y-80957000D03*
X175103000Y-104833000D03*
D10*
X178278000Y-92895000D03*
D11*
X179548000Y-90355000D03*
D12*
X183358000Y-92895000D03*
D11*
X185898000Y-87815000D03*
D10*
X188438000Y-92895000D03*
D14*
X190343000Y-80957000D03*
X190343000Y-104833000D03*
D13*
X176273000Y-90355000D03*
X189200000Y-87815000D03*
%TD*%
D10*
%TO.C,SW3*%
X159228000Y-64320000D03*
D11*
X160498000Y-61780000D03*
D12*
X164308000Y-64320000D03*
D11*
X166848000Y-59240000D03*
D10*
X169388000Y-64320000D03*
D13*
X157223000Y-61780000D03*
X170150000Y-59240000D03*
%TD*%
D10*
%TO.C,SW14*%
X159228000Y-121470000D03*
D11*
X160498000Y-118930000D03*
D12*
X164308000Y-121470000D03*
D11*
X166848000Y-116390000D03*
D10*
X169388000Y-121470000D03*
D13*
X157223000Y-118930000D03*
X170150000Y-116390000D03*
%TD*%
D18*
%TO.C,U3*%
X101690000Y-99980000D03*
X104230000Y-99980000D03*
X106770000Y-99980000D03*
D19*
X109310000Y-99980000D03*
%TD*%
D10*
%TO.C,SW5*%
X121128000Y-83370000D03*
D11*
X122398000Y-80830000D03*
D12*
X126208000Y-83370000D03*
D11*
X128748000Y-78290000D03*
D10*
X131288000Y-83370000D03*
D13*
X119123000Y-80830000D03*
X132050000Y-78290000D03*
%TD*%
D10*
%TO.C,SW12*%
X121128000Y-121470000D03*
D11*
X122398000Y-118930000D03*
D12*
X126208000Y-121470000D03*
D11*
X128748000Y-116390000D03*
D10*
X131288000Y-121470000D03*
D13*
X119123000Y-118930000D03*
X132050000Y-116390000D03*
%TD*%
D12*
%TO.C,SW17*%
X175103000Y-119057000D03*
X175103000Y-142933000D03*
D10*
X178278000Y-130995000D03*
D11*
X179548000Y-128455000D03*
D12*
X183358000Y-130995000D03*
D11*
X185898000Y-125915000D03*
D10*
X188438000Y-130995000D03*
D14*
X190343000Y-119057000D03*
X190343000Y-142933000D03*
D13*
X176273000Y-128455000D03*
X189200000Y-125915000D03*
%TD*%
D10*
%TO.C,SW7*%
X159228000Y-83370000D03*
D11*
X160498000Y-80830000D03*
D12*
X164308000Y-83370000D03*
D11*
X166848000Y-78290000D03*
D10*
X169388000Y-83370000D03*
D13*
X157223000Y-80830000D03*
X170150000Y-78290000D03*
%TD*%
D10*
%TO.C,SW16*%
X159228000Y-140520000D03*
D11*
X160498000Y-137980000D03*
D12*
X164308000Y-140520000D03*
D11*
X166848000Y-135440000D03*
D10*
X169388000Y-140520000D03*
D13*
X157223000Y-137980000D03*
X170150000Y-135440000D03*
%TD*%
D20*
%TO.C,D3*%
X157223000Y-68405000D03*
X157223000Y-66355000D03*
%TD*%
D21*
%TO.C,C1*%
X104100000Y-74835000D03*
X104100000Y-73700000D03*
%TD*%
D20*
%TO.C,D9*%
X119123000Y-106505000D03*
X119123000Y-104455000D03*
%TD*%
D22*
%TO.C,R5*%
X115928925Y-62608819D03*
X115928925Y-63803819D03*
%TD*%
D20*
%TO.C,D15*%
X128648000Y-144605000D03*
X128648000Y-142555000D03*
%TD*%
%TO.C,D11*%
X157223000Y-106505000D03*
X157223000Y-104455000D03*
%TD*%
D22*
%TO.C,R2*%
X105287500Y-70570000D03*
X105287500Y-71765000D03*
%TD*%
D20*
%TO.C,D17*%
X176273000Y-135080000D03*
X176273000Y-133030000D03*
%TD*%
%TO.C,D7*%
X157223000Y-87455000D03*
X157223000Y-85405000D03*
%TD*%
D23*
%TO.C,U4*%
X109512500Y-65055000D03*
X110782500Y-65055000D03*
X112052500Y-65055000D03*
X113322500Y-65055000D03*
X113322500Y-72255000D03*
X112052500Y-72255000D03*
X110782500Y-72255000D03*
X109512500Y-72255000D03*
%TD*%
D24*
%TO.C,J1*%
X102494856Y-59110000D03*
X108274856Y-59110000D03*
D25*
X102159856Y-60555000D03*
X102934856Y-60555000D03*
D26*
X104134856Y-60555000D03*
X105134856Y-60555000D03*
X105634856Y-60555000D03*
X106634856Y-60555000D03*
D25*
X108609856Y-60555000D03*
X107834856Y-60555000D03*
D26*
X107134856Y-60555000D03*
X106134856Y-60555000D03*
X104634856Y-60555000D03*
X103634856Y-60555000D03*
D27*
X101064856Y-55460000D03*
D28*
X101064856Y-59640000D03*
D27*
X109704856Y-55460000D03*
D28*
X109704856Y-59640000D03*
%TD*%
D21*
%TO.C,C4*%
X103100000Y-74835000D03*
X103100000Y-73700000D03*
%TD*%
D20*
%TO.C,D14*%
X157223000Y-125555000D03*
X157223000Y-123505000D03*
%TD*%
D29*
%TO.C,C16*%
X105552500Y-88487500D03*
X106687500Y-88487500D03*
%TD*%
D30*
%TO.C,R4*%
X107140000Y-64880000D03*
X107140000Y-63685000D03*
%TD*%
D31*
%TO.C,C9*%
X102176283Y-76921283D03*
X101373717Y-76118717D03*
%TD*%
D20*
%TO.C,D8*%
X176273000Y-96980000D03*
X176273000Y-94930000D03*
%TD*%
%TO.C,D5*%
X119123000Y-87455000D03*
X119123000Y-85405000D03*
%TD*%
D32*
%TO.C,C15*%
X109492500Y-88480000D03*
X108357500Y-88480000D03*
%TD*%
D20*
%TO.C,D4*%
X176273000Y-68405000D03*
X176273000Y-66355000D03*
%TD*%
D22*
%TO.C,R3*%
X104134856Y-63706322D03*
X104134856Y-64901322D03*
%TD*%
D20*
%TO.C,ENC_D2*%
X112548928Y-145450000D03*
X112548928Y-143400000D03*
%TD*%
D32*
%TO.C,C8*%
X101307500Y-81385000D03*
X100172500Y-81385000D03*
%TD*%
D20*
%TO.C,D13*%
X138173000Y-125555000D03*
X138173000Y-123505000D03*
%TD*%
%TO.C,ENC_D1*%
X112535255Y-123818097D03*
X112535255Y-121768097D03*
%TD*%
D33*
%TO.C,BOOT1*%
X112525000Y-56915000D03*
X112525000Y-61065000D03*
X114675000Y-56915000D03*
X114675000Y-61065000D03*
%TD*%
D34*
%TO.C,C7*%
X106466283Y-86318717D03*
X105663717Y-87121283D03*
%TD*%
D20*
%TO.C,D10*%
X138173000Y-106505000D03*
X138173000Y-104455000D03*
%TD*%
D35*
%TO.C,U1*%
X110577500Y-77785000D03*
X110577500Y-78185000D03*
X110577500Y-78585000D03*
X110577500Y-78985000D03*
X110577500Y-79385000D03*
X110577500Y-79785000D03*
X110577500Y-80185000D03*
X110577500Y-80585000D03*
X110577500Y-80985000D03*
X110577500Y-81385000D03*
X110577500Y-81785000D03*
X110577500Y-82185000D03*
X110577500Y-82585000D03*
X110577500Y-82985000D03*
D36*
X109740000Y-83822500D03*
X109340000Y-83822500D03*
X108940000Y-83822500D03*
X108540000Y-83822500D03*
X108140000Y-83822500D03*
X107740000Y-83822500D03*
X107340000Y-83822500D03*
X106940000Y-83822500D03*
X106540000Y-83822500D03*
X106140000Y-83822500D03*
X105740000Y-83822500D03*
X105340000Y-83822500D03*
X104940000Y-83822500D03*
X104540000Y-83822500D03*
D35*
X103702500Y-82985000D03*
X103702500Y-82585000D03*
X103702500Y-82185000D03*
X103702500Y-81785000D03*
X103702500Y-81385000D03*
X103702500Y-80985000D03*
X103702500Y-80585000D03*
X103702500Y-80185000D03*
X103702500Y-79785000D03*
X103702500Y-79385000D03*
X103702500Y-78985000D03*
X103702500Y-78585000D03*
X103702500Y-78185000D03*
X103702500Y-77785000D03*
D36*
X104540000Y-76947500D03*
X104940000Y-76947500D03*
X105340000Y-76947500D03*
X105740000Y-76947500D03*
X106140000Y-76947500D03*
X106540000Y-76947500D03*
X106940000Y-76947500D03*
X107340000Y-76947500D03*
X107740000Y-76947500D03*
X108140000Y-76947500D03*
X108540000Y-76947500D03*
X108940000Y-76947500D03*
X109340000Y-76947500D03*
X109740000Y-76947500D03*
D37*
X107140000Y-80385000D03*
%TD*%
D38*
%TO.C,C2*%
X107676217Y-74826283D03*
X108478783Y-74023717D03*
%TD*%
D20*
%TO.C,D2*%
X138173000Y-68405000D03*
X138173000Y-66355000D03*
%TD*%
%TO.C,D6*%
X138173000Y-87455000D03*
X138173000Y-85405000D03*
%TD*%
D39*
%TO.C,C6*%
X112398717Y-81798717D03*
X113201283Y-82601283D03*
%TD*%
D21*
%TO.C,C11*%
X102090000Y-74835000D03*
X102090000Y-73700000D03*
%TD*%
D32*
%TO.C,C13*%
X99970000Y-63485000D03*
X98835000Y-63485000D03*
%TD*%
D22*
%TO.C,R1*%
X106487500Y-70572500D03*
X106487500Y-71767500D03*
%TD*%
D40*
%TO.C,C12*%
X104210000Y-67097500D03*
X104210000Y-68232500D03*
%TD*%
D21*
%TO.C,C14*%
X107767500Y-70222500D03*
X107767500Y-69087500D03*
%TD*%
D20*
%TO.C,D12*%
X119123000Y-125555000D03*
X119123000Y-123505000D03*
%TD*%
%TO.C,D16*%
X157223000Y-144605000D03*
X157223000Y-142555000D03*
%TD*%
D34*
%TO.C,C3*%
X105716283Y-85568717D03*
X104913717Y-86371283D03*
%TD*%
D20*
%TO.C,D1*%
X119123000Y-68405000D03*
X119123000Y-66355000D03*
%TD*%
D38*
%TO.C,C5*%
X111998717Y-77101283D03*
X112801283Y-76298717D03*
%TD*%
D41*
%TO.C,U2*%
X97670000Y-65435000D03*
X99970000Y-65435000D03*
D42*
X99970000Y-71735000D03*
D41*
X102270000Y-65435000D03*
%TD*%
D38*
%TO.C,C10*%
X107066217Y-74006283D03*
X107868783Y-73203717D03*
%TD*%
D43*
%TO.C,Y1*%
X108887500Y-91787500D03*
X106687500Y-91787500D03*
X106687500Y-90087500D03*
X108887500Y-90087500D03*
%TD*%
M02*
