%TF.GenerationSoftware,KiCad,Pcbnew,8.0.1*%
%TF.CreationDate,2024-08-08T15:56:45+10:00*%
%TF.ProjectId,banana17_main,62616e61-6e61-4313-975f-6d61696e2e6b,rev?*%
%TF.SameCoordinates,Original*%
%TF.FileFunction,Soldermask,Top*%
%TF.FilePolarity,Negative*%
%FSLAX46Y46*%
G04 Gerber Fmt 4.6, Leading zero omitted, Abs format (unit mm)*
G04 Created by KiCad (PCBNEW 8.0.1) date 2024-08-08 15:56:45*
%MOMM*%
%LPD*%
G01*
G04 APERTURE LIST*
%ADD10C,1.701800*%
%ADD11C,3.000000*%
%ADD12C,3.987800*%
%ADD13C,3.048000*%
%ADD14R,2.000000X2.000000*%
%ADD15C,2.000000*%
%ADD16R,3.200000X2.000000*%
%ADD17C,1.700000*%
%ADD18R,1.700000X1.700000*%
%ADD19C,0.650000*%
%ADD20O,1.300000X1.700000*%
%ADD21O,1.100000X2.200000*%
G04 APERTURE END LIST*
D10*
%TO.C,SW10*%
X140178000Y-102420000D03*
D11*
X141448000Y-99880000D03*
D12*
X145258000Y-102420000D03*
D11*
X147798000Y-97340000D03*
D10*
X150338000Y-102420000D03*
%TD*%
D13*
%TO.C,SW15*%
X123795000Y-133535000D03*
D12*
X123795000Y-148775000D03*
D10*
X130653000Y-140520000D03*
D11*
X131923000Y-137980000D03*
D12*
X135733000Y-140520000D03*
D11*
X138273000Y-135440000D03*
D10*
X140813000Y-140520000D03*
D13*
X147671000Y-133535000D03*
D12*
X147671000Y-148775000D03*
%TD*%
D10*
%TO.C,SW6*%
X140178000Y-83370000D03*
D11*
X141448000Y-80830000D03*
D12*
X145258000Y-83370000D03*
D11*
X147798000Y-78290000D03*
D10*
X150338000Y-83370000D03*
%TD*%
%TO.C,SW9*%
X121128000Y-102420000D03*
D11*
X122398000Y-99880000D03*
D12*
X126208000Y-102420000D03*
D11*
X128748000Y-97340000D03*
D10*
X131288000Y-102420000D03*
%TD*%
%TO.C,SW2*%
X140178000Y-64320000D03*
D11*
X141448000Y-61780000D03*
D12*
X145258000Y-64320000D03*
D11*
X147798000Y-59240000D03*
D10*
X150338000Y-64320000D03*
%TD*%
D14*
%TO.C,ENC1*%
X98050000Y-111300000D03*
D15*
X98050000Y-116300000D03*
X98050000Y-113800000D03*
D16*
X105550000Y-108200000D03*
X105550000Y-119400000D03*
D15*
X112550000Y-116300000D03*
X112550000Y-111300000D03*
%TD*%
D10*
%TO.C,SW11*%
X159228000Y-102420000D03*
D11*
X160498000Y-99880000D03*
D12*
X164308000Y-102420000D03*
D11*
X166848000Y-97340000D03*
D10*
X169388000Y-102420000D03*
%TD*%
%TO.C,SW13*%
X140178000Y-121470000D03*
D11*
X141448000Y-118930000D03*
D12*
X145258000Y-121470000D03*
D11*
X147798000Y-116390000D03*
D10*
X150338000Y-121470000D03*
%TD*%
D14*
%TO.C,ENC2*%
X98050000Y-132900000D03*
D15*
X98050000Y-137900000D03*
X98050000Y-135400000D03*
D16*
X105550000Y-129800000D03*
X105550000Y-141000000D03*
D15*
X112550000Y-137900000D03*
X112550000Y-132900000D03*
%TD*%
D10*
%TO.C,SW1*%
X121128000Y-64320000D03*
D11*
X122398000Y-61780000D03*
D12*
X126208000Y-64320000D03*
D11*
X128748000Y-59240000D03*
D10*
X131288000Y-64320000D03*
%TD*%
%TO.C,SW4*%
X178278000Y-64320000D03*
D11*
X179548000Y-61780000D03*
D12*
X183358000Y-64320000D03*
D11*
X185898000Y-59240000D03*
D10*
X188438000Y-64320000D03*
%TD*%
D12*
%TO.C,SW8*%
X175103000Y-80957000D03*
X175103000Y-104833000D03*
D10*
X178278000Y-92895000D03*
D11*
X179548000Y-90355000D03*
D12*
X183358000Y-92895000D03*
D11*
X185898000Y-87815000D03*
D10*
X188438000Y-92895000D03*
D13*
X190343000Y-80957000D03*
X190343000Y-104833000D03*
%TD*%
D10*
%TO.C,SW3*%
X159228000Y-64320000D03*
D11*
X160498000Y-61780000D03*
D12*
X164308000Y-64320000D03*
D11*
X166848000Y-59240000D03*
D10*
X169388000Y-64320000D03*
%TD*%
%TO.C,SW14*%
X159228000Y-121470000D03*
D11*
X160498000Y-118930000D03*
D12*
X164308000Y-121470000D03*
D11*
X166848000Y-116390000D03*
D10*
X169388000Y-121470000D03*
%TD*%
D17*
%TO.C,U3*%
X101690000Y-99980000D03*
X104230000Y-99980000D03*
X106770000Y-99980000D03*
D18*
X109310000Y-99980000D03*
%TD*%
D10*
%TO.C,SW5*%
X121128000Y-83370000D03*
D11*
X122398000Y-80830000D03*
D12*
X126208000Y-83370000D03*
D11*
X128748000Y-78290000D03*
D10*
X131288000Y-83370000D03*
%TD*%
%TO.C,SW12*%
X121128000Y-121470000D03*
D11*
X122398000Y-118930000D03*
D12*
X126208000Y-121470000D03*
D11*
X128748000Y-116390000D03*
D10*
X131288000Y-121470000D03*
%TD*%
D12*
%TO.C,SW17*%
X175103000Y-119057000D03*
X175103000Y-142933000D03*
D10*
X178278000Y-130995000D03*
D11*
X179548000Y-128455000D03*
D12*
X183358000Y-130995000D03*
D11*
X185898000Y-125915000D03*
D10*
X188438000Y-130995000D03*
D13*
X190343000Y-119057000D03*
X190343000Y-142933000D03*
%TD*%
D10*
%TO.C,SW7*%
X159228000Y-83370000D03*
D11*
X160498000Y-80830000D03*
D12*
X164308000Y-83370000D03*
D11*
X166848000Y-78290000D03*
D10*
X169388000Y-83370000D03*
%TD*%
%TO.C,SW16*%
X159228000Y-140520000D03*
D11*
X160498000Y-137980000D03*
D12*
X164308000Y-140520000D03*
D11*
X166848000Y-135440000D03*
D10*
X169388000Y-140520000D03*
%TD*%
D19*
%TO.C,J1*%
X102494856Y-59110000D03*
X108274856Y-59110000D03*
D20*
X101064856Y-55460000D03*
D21*
X101064856Y-59640000D03*
D20*
X109704856Y-55460000D03*
D21*
X109704856Y-59640000D03*
%TD*%
M02*
