%TF.GenerationSoftware,KiCad,Pcbnew,8.0.4*%
%TF.CreationDate,2024-08-11T19:17:24+10:00*%
%TF.ProjectId,banana17_main,62616e61-6e61-4313-975f-6d61696e2e6b,rev?*%
%TF.SameCoordinates,Original*%
%TF.FileFunction,Paste,Bot*%
%TF.FilePolarity,Positive*%
%FSLAX46Y46*%
G04 Gerber Fmt 4.6, Leading zero omitted, Abs format (unit mm)*
G04 Created by KiCad (PCBNEW 8.0.4) date 2024-08-11 19:17:24*
%MOMM*%
%LPD*%
G01*
G04 APERTURE LIST*
G04 Aperture macros list*
%AMRoundRect*
0 Rectangle with rounded corners*
0 $1 Rounding radius*
0 $2 $3 $4 $5 $6 $7 $8 $9 X,Y pos of 4 corners*
0 Add a 4 corners polygon primitive as box body*
4,1,4,$2,$3,$4,$5,$6,$7,$8,$9,$2,$3,0*
0 Add four circle primitives for the rounded corners*
1,1,$1+$1,$2,$3*
1,1,$1+$1,$4,$5*
1,1,$1+$1,$6,$7*
1,1,$1+$1,$8,$9*
0 Add four rect primitives between the rounded corners*
20,1,$1+$1,$2,$3,$4,$5,0*
20,1,$1+$1,$4,$5,$6,$7,0*
20,1,$1+$1,$6,$7,$8,$9,0*
20,1,$1+$1,$8,$9,$2,$3,0*%
G04 Aperture macros list end*
%ADD10RoundRect,0.200000X-1.075000X-1.050000X1.075000X-1.050000X1.075000X1.050000X-1.075000X1.050000X0*%
%ADD11RoundRect,0.250000X0.450000X-0.325000X0.450000X0.325000X-0.450000X0.325000X-0.450000X-0.325000X0*%
%ADD12RoundRect,0.155000X0.155000X-0.212500X0.155000X0.212500X-0.155000X0.212500X-0.155000X-0.212500X0*%
%ADD13RoundRect,0.160000X-0.160000X0.197500X-0.160000X-0.197500X0.160000X-0.197500X0.160000X0.197500X0*%
%ADD14RoundRect,0.150000X-0.150000X0.650000X-0.150000X-0.650000X0.150000X-0.650000X0.150000X0.650000X0*%
%ADD15RoundRect,0.060000X-0.240000X-0.665000X0.240000X-0.665000X0.240000X0.665000X-0.240000X0.665000X0*%
%ADD16RoundRect,0.060000X-0.090000X-0.665000X0.090000X-0.665000X0.090000X0.665000X-0.090000X0.665000X0*%
%ADD17RoundRect,0.155000X-0.212500X-0.155000X0.212500X-0.155000X0.212500X0.155000X-0.212500X0.155000X0*%
%ADD18RoundRect,0.160000X0.160000X-0.197500X0.160000X0.197500X-0.160000X0.197500X-0.160000X-0.197500X0*%
%ADD19RoundRect,0.155000X0.212500X0.155000X-0.212500X0.155000X-0.212500X-0.155000X0.212500X-0.155000X0*%
%ADD20R,0.650000X1.050000*%
%ADD21RoundRect,0.155000X0.040659X0.259862X-0.259862X-0.040659X-0.040659X-0.259862X0.259862X0.040659X0*%
%ADD22RoundRect,0.249999X0.395001X0.395001X-0.395001X0.395001X-0.395001X-0.395001X0.395001X-0.395001X0*%
%ADD23RoundRect,0.050000X0.387500X0.050000X-0.387500X0.050000X-0.387500X-0.050000X0.387500X-0.050000X0*%
%ADD24RoundRect,0.050000X0.050000X0.387500X-0.050000X0.387500X-0.050000X-0.387500X0.050000X-0.387500X0*%
%ADD25RoundRect,0.155000X-0.040659X-0.259862X0.259862X0.040659X0.040659X0.259862X-0.259862X-0.040659X0*%
%ADD26RoundRect,0.155000X-0.259862X0.040659X0.040659X-0.259862X0.259862X-0.040659X-0.040659X0.259862X0*%
%ADD27RoundRect,0.155000X-0.155000X0.212500X-0.155000X-0.212500X0.155000X-0.212500X0.155000X0.212500X0*%
%ADD28RoundRect,0.375000X-0.375000X0.625000X-0.375000X-0.625000X0.375000X-0.625000X0.375000X0.625000X0*%
%ADD29RoundRect,0.500000X-1.400000X0.500000X-1.400000X-0.500000X1.400000X-0.500000X1.400000X0.500000X0*%
%ADD30R,1.400000X1.200000*%
G04 APERTURE END LIST*
D10*
%TO.C,SW10*%
X138173000Y-99880000D03*
X151100000Y-97340000D03*
%TD*%
%TO.C,SW15*%
X128648000Y-137980000D03*
X141575000Y-135440000D03*
%TD*%
%TO.C,SW6*%
X138173000Y-80830000D03*
X151100000Y-78290000D03*
%TD*%
%TO.C,SW9*%
X119123000Y-99880000D03*
X132050000Y-97340000D03*
%TD*%
%TO.C,SW2*%
X138173000Y-61780000D03*
X151100000Y-59240000D03*
%TD*%
%TO.C,SW11*%
X157223000Y-99880000D03*
X170150000Y-97340000D03*
%TD*%
%TO.C,SW13*%
X138173000Y-118930000D03*
X151100000Y-116390000D03*
%TD*%
%TO.C,SW1*%
X119123000Y-61780000D03*
X132050000Y-59240000D03*
%TD*%
%TO.C,SW4*%
X176273000Y-61780000D03*
X189200000Y-59240000D03*
%TD*%
%TO.C,SW8*%
X176273000Y-90355000D03*
X189200000Y-87815000D03*
%TD*%
%TO.C,SW3*%
X157223000Y-61780000D03*
X170150000Y-59240000D03*
%TD*%
%TO.C,SW14*%
X157223000Y-118930000D03*
X170150000Y-116390000D03*
%TD*%
%TO.C,SW5*%
X119123000Y-80830000D03*
X132050000Y-78290000D03*
%TD*%
%TO.C,SW12*%
X119123000Y-118930000D03*
X132050000Y-116390000D03*
%TD*%
%TO.C,SW17*%
X176273000Y-128455000D03*
X189200000Y-125915000D03*
%TD*%
%TO.C,SW7*%
X157223000Y-80830000D03*
X170150000Y-78290000D03*
%TD*%
%TO.C,SW16*%
X157223000Y-137980000D03*
X170150000Y-135440000D03*
%TD*%
D11*
%TO.C,D3*%
X157223000Y-68405000D03*
X157223000Y-66355000D03*
%TD*%
D12*
%TO.C,C1*%
X104050000Y-74850000D03*
X104050000Y-73715000D03*
%TD*%
D11*
%TO.C,D9*%
X119123000Y-106505000D03*
X119123000Y-104455000D03*
%TD*%
D13*
%TO.C,R5*%
X115928925Y-62608819D03*
X115928925Y-63803819D03*
%TD*%
D11*
%TO.C,D15*%
X128648000Y-144605000D03*
X128648000Y-142555000D03*
%TD*%
%TO.C,D11*%
X157223000Y-106505000D03*
X157223000Y-104455000D03*
%TD*%
D13*
%TO.C,R2*%
X105449200Y-71697500D03*
X105449200Y-70502500D03*
%TD*%
D11*
%TO.C,D17*%
X176273000Y-135080000D03*
X176273000Y-133030000D03*
%TD*%
%TO.C,D7*%
X157223000Y-87455000D03*
X157223000Y-85405000D03*
%TD*%
D14*
%TO.C,U4*%
X109512500Y-65055000D03*
X110782500Y-65055000D03*
X112052500Y-65055000D03*
X113322500Y-65055000D03*
X113322500Y-72255000D03*
X112052500Y-72255000D03*
X110782500Y-72255000D03*
X109512500Y-72255000D03*
%TD*%
D15*
%TO.C,J1*%
X102235706Y-60452500D03*
X103010706Y-60452500D03*
D16*
X104210706Y-60452500D03*
X105210706Y-60452500D03*
X105710706Y-60452500D03*
X106710706Y-60452500D03*
D15*
X108685706Y-60452500D03*
X107910706Y-60452500D03*
D16*
X107210706Y-60452500D03*
X106210706Y-60452500D03*
X104710706Y-60452500D03*
X103710706Y-60452500D03*
%TD*%
D12*
%TO.C,C4*%
X103050000Y-74850000D03*
X103050000Y-73715000D03*
%TD*%
D11*
%TO.C,D14*%
X157223000Y-125555000D03*
X157223000Y-123505000D03*
%TD*%
D17*
%TO.C,C16*%
X105552500Y-88487500D03*
X106687500Y-88487500D03*
%TD*%
D18*
%TO.C,R4*%
X107790000Y-63610000D03*
X107790000Y-62415000D03*
%TD*%
D19*
%TO.C,C9*%
X101900000Y-77784466D03*
X100765000Y-77784466D03*
%TD*%
D11*
%TO.C,D8*%
X176273000Y-96980000D03*
X176273000Y-94930000D03*
%TD*%
%TO.C,D5*%
X119123000Y-87455000D03*
X119123000Y-85405000D03*
%TD*%
D19*
%TO.C,C15*%
X109492500Y-88480000D03*
X108357500Y-88480000D03*
%TD*%
D11*
%TO.C,D4*%
X176273000Y-68405000D03*
X176273000Y-66355000D03*
%TD*%
D13*
%TO.C,R3*%
X103820000Y-62225000D03*
X103820000Y-63420000D03*
%TD*%
D11*
%TO.C,ENC_D2*%
X112548928Y-145450000D03*
X112548928Y-143400000D03*
%TD*%
D19*
%TO.C,C8*%
X101867500Y-80950000D03*
X100732500Y-80950000D03*
%TD*%
D11*
%TO.C,D13*%
X138173000Y-125555000D03*
X138173000Y-123505000D03*
%TD*%
%TO.C,ENC_D1*%
X112535255Y-123818097D03*
X112535255Y-121768097D03*
%TD*%
D20*
%TO.C,BOOT1*%
X112525000Y-56915000D03*
X112525000Y-61065000D03*
X114675000Y-56915000D03*
X114675000Y-61065000D03*
%TD*%
D21*
%TO.C,C7*%
X106466283Y-86318717D03*
X105663717Y-87121283D03*
%TD*%
D11*
%TO.C,D10*%
X138173000Y-106505000D03*
X138173000Y-104455000D03*
%TD*%
D22*
%TO.C,U1*%
X107940000Y-81185000D03*
X107940000Y-79585000D03*
X106340000Y-81185000D03*
X106340000Y-79585000D03*
D23*
X110577500Y-77785000D03*
X110577500Y-78185000D03*
X110577500Y-78585000D03*
X110577500Y-78985000D03*
X110577500Y-79385000D03*
X110577500Y-79785000D03*
X110577500Y-80185000D03*
X110577500Y-80585000D03*
X110577500Y-80985000D03*
X110577500Y-81385000D03*
X110577500Y-81785000D03*
X110577500Y-82185000D03*
X110577500Y-82585000D03*
X110577500Y-82985000D03*
D24*
X109740000Y-83822500D03*
X109340000Y-83822500D03*
X108940000Y-83822500D03*
X108540000Y-83822500D03*
X108140000Y-83822500D03*
X107740000Y-83822500D03*
X107340000Y-83822500D03*
X106940000Y-83822500D03*
X106540000Y-83822500D03*
X106140000Y-83822500D03*
X105740000Y-83822500D03*
X105340000Y-83822500D03*
X104940000Y-83822500D03*
X104540000Y-83822500D03*
D23*
X103702500Y-82985000D03*
X103702500Y-82585000D03*
X103702500Y-82185000D03*
X103702500Y-81785000D03*
X103702500Y-81385000D03*
X103702500Y-80985000D03*
X103702500Y-80585000D03*
X103702500Y-80185000D03*
X103702500Y-79785000D03*
X103702500Y-79385000D03*
X103702500Y-78985000D03*
X103702500Y-78585000D03*
X103702500Y-78185000D03*
X103702500Y-77785000D03*
D24*
X104540000Y-76947500D03*
X104940000Y-76947500D03*
X105340000Y-76947500D03*
X105740000Y-76947500D03*
X106140000Y-76947500D03*
X106540000Y-76947500D03*
X106940000Y-76947500D03*
X107340000Y-76947500D03*
X107740000Y-76947500D03*
X108140000Y-76947500D03*
X108540000Y-76947500D03*
X108940000Y-76947500D03*
X109340000Y-76947500D03*
X109740000Y-76947500D03*
%TD*%
D25*
%TO.C,C2*%
X107676217Y-74826283D03*
X108478783Y-74023717D03*
%TD*%
D11*
%TO.C,D2*%
X138173000Y-68405000D03*
X138173000Y-66355000D03*
%TD*%
%TO.C,D6*%
X138173000Y-87455000D03*
X138173000Y-85405000D03*
%TD*%
D26*
%TO.C,C6*%
X112647434Y-82047434D03*
X113450000Y-82850000D03*
%TD*%
D12*
%TO.C,C11*%
X102040000Y-74850000D03*
X102040000Y-73715000D03*
%TD*%
D19*
%TO.C,C13*%
X99250000Y-63550000D03*
X98115000Y-63550000D03*
%TD*%
D13*
%TO.C,R1*%
X106470000Y-70500000D03*
X106470000Y-71695000D03*
%TD*%
D27*
%TO.C,C12*%
X104210000Y-67097500D03*
X104210000Y-68232500D03*
%TD*%
D12*
%TO.C,C14*%
X107767500Y-70222500D03*
X107767500Y-69087500D03*
%TD*%
D11*
%TO.C,D12*%
X119123000Y-125555000D03*
X119123000Y-123505000D03*
%TD*%
%TO.C,D16*%
X157223000Y-144605000D03*
X157223000Y-142555000D03*
%TD*%
D21*
%TO.C,C3*%
X105716283Y-85568717D03*
X104913717Y-86371283D03*
%TD*%
D11*
%TO.C,D1*%
X119123000Y-68405000D03*
X119123000Y-66355000D03*
%TD*%
D25*
%TO.C,C5*%
X111998717Y-77101283D03*
X112801283Y-76298717D03*
%TD*%
D28*
%TO.C,U2*%
X97670000Y-65435000D03*
X99970000Y-65435000D03*
D29*
X99970000Y-71735000D03*
D28*
X102270000Y-65435000D03*
%TD*%
D25*
%TO.C,C10*%
X106988717Y-74091283D03*
X107791283Y-73288717D03*
%TD*%
D30*
%TO.C,Y1*%
X108887500Y-91787500D03*
X106687500Y-91787500D03*
X106687500Y-90087500D03*
X108887500Y-90087500D03*
%TD*%
M02*
