M48
INCH,TZ
T1C0.0118
T2C0.0236
T3C0.0394
T4C0.0591
%
G90
G05
T1
X38913Y-24644
X39087Y-32045
X39667Y-29722
X40079Y-26772
X40984Y-28675
X40998Y-25926
X41016Y-34289
X41031Y-27234
X41134Y-34850
X41394Y-29556
X41715Y-31179
X41715Y-31652
X41715Y-32114
X41864Y-33445
X41948Y-32474
X42020Y-36671
X42167Y-31189
X42167Y-31661
X42167Y-32124
X42186Y-25895
X42429Y-26850
X42433Y-30736
X42469Y-28441
X42630Y-31652
X42630Y-32124
X42640Y-31199
X42679Y-33701
X43476Y-34850
X44295Y-24413
X44614Y-26205
X44646Y-29803
X44803Y-32756
X44882Y-32205
X44961Y-31772
X45354Y-31772
X45365Y-31333
X52988Y-30823
X52992Y-23324
X52992Y-38323
X52992Y-45822
X59063Y-53320
X60432Y-38325
X60432Y-23323
X60432Y-30823
X60437Y-45822
X67998Y-23323
X67998Y-30823
X67998Y-38323
X67998Y-45823
X68000Y-53321
X75772Y-49571
X75773Y-23322
X75773Y-34575
T3
X38602Y-43819
X38602Y-44803
X38602Y-45787
X38602Y-52323
X38602Y-53307
X38602Y-54291
X40035Y-39362
X41035Y-39362
X42035Y-39362
X43035Y-39362
X44311Y-43819
X44311Y-45787
X44311Y-52323
X44311Y-54291
T2
G00X39789Y-21717
M15
G01X39789Y-21953
M16
G05
G00X39789Y-23264
M15
G01X39789Y-23697
M16
G05
G00X43191Y-21717
M15
G01X43191Y-21953
M16
G05
G00X43191Y-23264
M15
G01X43191Y-23697
M16
G05
T4
G00X41299Y-42598
M15
G01X41811Y-42598
M16
G05
G00X41299Y-47008
M15
G01X41811Y-47008
M16
G05
G00X41299Y-51102
M15
G01X41811Y-51102
M16
G05
G00X41299Y-55512
M15
G01X41811Y-55512
M16
G05
M30
