M48
; DRILL file {KiCad 8.0.4} date 2024-08-11T19:17:19+1000
; FORMAT={-:-/ absolute / inch / decimal}
; #@! TF.CreationDate,2024-08-11T19:17:19+10:00
; #@! TF.GenerationSoftware,Kicad,Pcbnew,8.0.4
; #@! TF.FileFunction,NonPlated,1,4,NPTH
FMAT,2
INCH
; #@! TA.AperFunction,NonPlated,NPTH,ComponentDrill
T1C0.0256
; #@! TA.AperFunction,NonPlated,NPTH,ComponentDrill
T2C0.0670
; #@! TA.AperFunction,NonPlated,NPTH,ComponentDrill
T3C0.1181
; #@! TA.AperFunction,NonPlated,NPTH,ComponentDrill
T4C0.1200
; #@! TA.AperFunction,NonPlated,NPTH,ComponentDrill
T5C0.1570
%
G90
G05
T1
X4.0382Y-2.3231
X4.2658Y-2.3231
T2
X4.7688Y-2.5323
X4.7688Y-3.2823
X4.7688Y-4.0323
X4.7688Y-4.7823
X5.1438Y-5.5323
X5.1688Y-2.5323
X5.1688Y-3.2823
X5.1688Y-4.0323
X5.1688Y-4.7823
X5.5188Y-2.5323
X5.5188Y-3.2823
X5.5188Y-4.0323
X5.5188Y-4.7823
X5.5438Y-5.5323
X5.9188Y-2.5323
X5.9188Y-3.2823
X5.9188Y-4.0323
X5.9188Y-4.7823
X6.2688Y-2.5323
X6.2688Y-3.2823
X6.2688Y-4.0323
X6.2688Y-4.7823
X6.2688Y-5.5323
X6.6688Y-2.5323
X6.6688Y-3.2823
X6.6688Y-4.0323
X6.6688Y-4.7823
X6.6688Y-5.5323
X7.0188Y-2.5323
X7.0188Y-3.6573
X7.0188Y-5.1573
X7.4188Y-2.5323
X7.4188Y-3.6573
X7.4188Y-5.1573
T3
X4.8188Y-2.4323
X4.8188Y-3.1823
X4.8188Y-3.9323
X4.8188Y-4.6823
X5.0688Y-2.3323
X5.0688Y-3.0823
X5.0688Y-3.8323
X5.0688Y-4.5823
X5.1938Y-5.4323
X5.4438Y-5.3323
X5.5688Y-2.4323
X5.5688Y-3.1823
X5.5688Y-3.9323
X5.5688Y-4.6823
X5.8188Y-2.3323
X5.8188Y-3.0823
X5.8188Y-3.8323
X5.8188Y-4.5823
X6.3188Y-2.4323
X6.3188Y-3.1823
X6.3188Y-3.9323
X6.3188Y-4.6823
X6.3188Y-5.4323
X6.5688Y-2.3323
X6.5688Y-3.0823
X6.5688Y-3.8323
X6.5688Y-4.5823
X6.5688Y-5.3323
X7.0688Y-2.4323
X7.0688Y-3.5573
X7.0688Y-5.0573
X7.3188Y-2.3323
X7.3188Y-3.4573
X7.3188Y-4.9573
T4
X4.8738Y-5.2573
X5.8138Y-5.2573
X7.4938Y-3.1873
X7.4938Y-4.1273
X7.4938Y-4.6873
X7.4938Y-5.6273
T5
X4.8738Y-5.8573
X4.9688Y-2.5323
X4.9688Y-3.2823
X4.9688Y-4.0323
X4.9688Y-4.7823
X5.3438Y-5.5323
X5.7188Y-2.5323
X5.7188Y-3.2823
X5.7188Y-4.0323
X5.7188Y-4.7823
X5.8138Y-5.8573
X6.4688Y-2.5323
X6.4688Y-3.2823
X6.4688Y-4.0323
X6.4688Y-4.7823
X6.4688Y-5.5323
X6.8938Y-3.1873
X6.8938Y-4.1273
X6.8938Y-4.6873
X6.8938Y-5.6273
X7.2188Y-2.5323
X7.2188Y-3.6573
X7.2188Y-5.1573
M30
