%TF.GenerationSoftware,KiCad,Pcbnew,8.0.4*%
%TF.CreationDate,2024-08-20T22:26:35+10:00*%
%TF.ProjectId,banana17_main,62616e61-6e61-4313-975f-6d61696e2e6b,rev?*%
%TF.SameCoordinates,Original*%
%TF.FileFunction,Paste,Bot*%
%TF.FilePolarity,Positive*%
%FSLAX46Y46*%
G04 Gerber Fmt 4.6, Leading zero omitted, Abs format (unit mm)*
G04 Created by KiCad (PCBNEW 8.0.4) date 2024-08-20 22:26:35*
%MOMM*%
%LPD*%
G01*
G04 APERTURE LIST*
G04 Aperture macros list*
%AMRoundRect*
0 Rectangle with rounded corners*
0 $1 Rounding radius*
0 $2 $3 $4 $5 $6 $7 $8 $9 X,Y pos of 4 corners*
0 Add a 4 corners polygon primitive as box body*
4,1,4,$2,$3,$4,$5,$6,$7,$8,$9,$2,$3,0*
0 Add four circle primitives for the rounded corners*
1,1,$1+$1,$2,$3*
1,1,$1+$1,$4,$5*
1,1,$1+$1,$6,$7*
1,1,$1+$1,$8,$9*
0 Add four rect primitives between the rounded corners*
20,1,$1+$1,$2,$3,$4,$5,0*
20,1,$1+$1,$4,$5,$6,$7,0*
20,1,$1+$1,$6,$7,$8,$9,0*
20,1,$1+$1,$8,$9,$2,$3,0*%
G04 Aperture macros list end*
%ADD10RoundRect,0.200000X-1.075000X-1.050000X1.075000X-1.050000X1.075000X1.050000X-1.075000X1.050000X0*%
%ADD11RoundRect,0.250000X0.450000X-0.325000X0.450000X0.325000X-0.450000X0.325000X-0.450000X-0.325000X0*%
%ADD12RoundRect,0.155000X0.155000X-0.212500X0.155000X0.212500X-0.155000X0.212500X-0.155000X-0.212500X0*%
%ADD13RoundRect,0.160000X-0.160000X0.197500X-0.160000X-0.197500X0.160000X-0.197500X0.160000X0.197500X0*%
%ADD14RoundRect,0.150000X-0.150000X0.650000X-0.150000X-0.650000X0.150000X-0.650000X0.150000X0.650000X0*%
%ADD15RoundRect,0.060000X-0.090000X-0.665000X0.090000X-0.665000X0.090000X0.665000X-0.090000X0.665000X0*%
%ADD16RoundRect,0.060000X-0.240000X-0.665000X0.240000X-0.665000X0.240000X0.665000X-0.240000X0.665000X0*%
%ADD17RoundRect,0.155000X-0.212500X-0.155000X0.212500X-0.155000X0.212500X0.155000X-0.212500X0.155000X0*%
%ADD18RoundRect,0.160000X0.160000X-0.197500X0.160000X0.197500X-0.160000X0.197500X-0.160000X-0.197500X0*%
%ADD19RoundRect,0.155000X0.212500X0.155000X-0.212500X0.155000X-0.212500X-0.155000X0.212500X-0.155000X0*%
%ADD20RoundRect,0.160000X0.197500X0.160000X-0.197500X0.160000X-0.197500X-0.160000X0.197500X-0.160000X0*%
%ADD21R,0.650000X1.050000*%
%ADD22RoundRect,0.155000X0.040659X0.259862X-0.259862X-0.040659X-0.040659X-0.259862X0.259862X0.040659X0*%
%ADD23RoundRect,0.050000X0.050000X0.387500X-0.050000X0.387500X-0.050000X-0.387500X0.050000X-0.387500X0*%
%ADD24RoundRect,0.050000X0.387500X0.050000X-0.387500X0.050000X-0.387500X-0.050000X0.387500X-0.050000X0*%
%ADD25RoundRect,0.249999X0.395001X0.395001X-0.395001X0.395001X-0.395001X-0.395001X0.395001X-0.395001X0*%
%ADD26RoundRect,0.155000X-0.040659X-0.259862X0.259862X0.040659X0.040659X0.259862X-0.259862X-0.040659X0*%
%ADD27RoundRect,0.155000X-0.259862X0.040659X0.040659X-0.259862X0.259862X-0.040659X-0.040659X0.259862X0*%
%ADD28RoundRect,0.155000X-0.155000X0.212500X-0.155000X-0.212500X0.155000X-0.212500X0.155000X0.212500X0*%
%ADD29RoundRect,0.375000X-0.375000X0.625000X-0.375000X-0.625000X0.375000X-0.625000X0.375000X0.625000X0*%
%ADD30RoundRect,0.500000X-1.400000X0.500000X-1.400000X-0.500000X1.400000X-0.500000X1.400000X0.500000X0*%
%ADD31R,1.400000X1.200000*%
G04 APERTURE END LIST*
D10*
%TO.C,SW10*%
X151100000Y-97340000D03*
X138173000Y-99880000D03*
%TD*%
%TO.C,SW6*%
X151100000Y-78290000D03*
X138173000Y-80830000D03*
%TD*%
%TO.C,SW9*%
X132050000Y-97340000D03*
X119123000Y-99880000D03*
%TD*%
%TO.C,SW2*%
X151100000Y-59240000D03*
X138173000Y-61780000D03*
%TD*%
%TO.C,SW11*%
X170150000Y-97340000D03*
X157223000Y-99880000D03*
%TD*%
%TO.C,SW13*%
X151100000Y-116390000D03*
X138173000Y-118930000D03*
%TD*%
%TO.C,SW1*%
X132050000Y-59240000D03*
X119123000Y-61780000D03*
%TD*%
%TO.C,SW4*%
X189200000Y-59240000D03*
X176273000Y-61780000D03*
%TD*%
%TO.C,SW8*%
X189200000Y-87815000D03*
X176273000Y-90355000D03*
%TD*%
%TO.C,SW3*%
X170150000Y-59240000D03*
X157223000Y-61780000D03*
%TD*%
%TO.C,SW14*%
X170150000Y-116390000D03*
X157223000Y-118930000D03*
%TD*%
%TO.C,SW5*%
X132050000Y-78290000D03*
X119123000Y-80830000D03*
%TD*%
%TO.C,SW12*%
X132050000Y-116390000D03*
X119123000Y-118930000D03*
%TD*%
%TO.C,SW17*%
X176273000Y-128455000D03*
X189200000Y-125915000D03*
%TD*%
%TO.C,SW7*%
X170150000Y-78290000D03*
X157223000Y-80830000D03*
%TD*%
%TO.C,SW16*%
X170150000Y-135440000D03*
X157223000Y-137980000D03*
%TD*%
D11*
%TO.C,D3*%
X157223000Y-68405000D03*
X157223000Y-66355000D03*
%TD*%
D12*
%TO.C,C1*%
X103390000Y-77363200D03*
X103390000Y-76228200D03*
%TD*%
D11*
%TO.C,D9*%
X119123000Y-106505000D03*
X119123000Y-104455000D03*
%TD*%
D13*
%TO.C,R5*%
X115268925Y-65122019D03*
X115268925Y-66317019D03*
%TD*%
D11*
%TO.C,D15*%
X128648000Y-144605000D03*
X128648000Y-142555000D03*
%TD*%
%TO.C,D11*%
X157223000Y-106505000D03*
X157223000Y-104455000D03*
%TD*%
D13*
%TO.C,R2*%
X104789200Y-73015700D03*
X104789200Y-74210700D03*
%TD*%
D11*
%TO.C,D17*%
X176273000Y-135080000D03*
X176273000Y-133030000D03*
%TD*%
%TO.C,D7*%
X157223000Y-87455000D03*
X157223000Y-85405000D03*
%TD*%
D14*
%TO.C,U4*%
X108852500Y-67568200D03*
X110122500Y-67568200D03*
X111392500Y-67568200D03*
X112662500Y-67568200D03*
X112662500Y-74768200D03*
X111392500Y-74768200D03*
X110122500Y-74768200D03*
X108852500Y-74768200D03*
%TD*%
D15*
%TO.C,J1*%
X103040000Y-62508200D03*
X104040000Y-62508200D03*
X105540000Y-62508200D03*
X106540000Y-62508200D03*
D16*
X107240000Y-62508200D03*
X108015000Y-62508200D03*
D15*
X106040000Y-62508200D03*
X105040000Y-62508200D03*
X104540000Y-62508200D03*
X103540000Y-62508200D03*
D16*
X102340000Y-62508200D03*
X101565000Y-62508200D03*
%TD*%
D12*
%TO.C,C4*%
X102390000Y-77363200D03*
X102390000Y-76228200D03*
%TD*%
D11*
%TO.C,D14*%
X157223000Y-125555000D03*
X157223000Y-123505000D03*
%TD*%
D17*
%TO.C,C16*%
X104762500Y-92288200D03*
X105897500Y-92288200D03*
%TD*%
D18*
%TO.C,R4*%
X106530000Y-65208200D03*
X106530000Y-64013200D03*
%TD*%
D19*
%TO.C,C9*%
X101240000Y-80297666D03*
X100105000Y-80297666D03*
%TD*%
D11*
%TO.C,D8*%
X176273000Y-96980000D03*
X176273000Y-94930000D03*
%TD*%
%TO.C,D5*%
X119123000Y-87455000D03*
X119123000Y-85405000D03*
%TD*%
D19*
%TO.C,C15*%
X108702500Y-92280700D03*
X107567500Y-92280700D03*
%TD*%
D11*
%TO.C,D4*%
X176273000Y-68405000D03*
X176273000Y-66355000D03*
%TD*%
D13*
%TO.C,R3*%
X103538564Y-64045328D03*
X103538564Y-65240328D03*
%TD*%
D11*
%TO.C,ENC_D2*%
X111830000Y-145150000D03*
X111830000Y-143100000D03*
%TD*%
D20*
%TO.C,R6*%
X105955000Y-91163200D03*
X104760000Y-91163200D03*
%TD*%
D19*
%TO.C,C8*%
X101207500Y-83463200D03*
X100072500Y-83463200D03*
%TD*%
D11*
%TO.C,D13*%
X138173000Y-125555000D03*
X138173000Y-123505000D03*
%TD*%
%TO.C,ENC_D1*%
X111890000Y-122155000D03*
X111890000Y-124205000D03*
%TD*%
D21*
%TO.C,BOOT1*%
X111865000Y-59428200D03*
X111865000Y-63578200D03*
X114015000Y-59428200D03*
X114015000Y-63578200D03*
%TD*%
D22*
%TO.C,C7*%
X105806283Y-88831917D03*
X105003717Y-89634483D03*
%TD*%
D11*
%TO.C,D10*%
X138173000Y-106505000D03*
X138173000Y-104455000D03*
%TD*%
D23*
%TO.C,U1*%
X109080000Y-79460700D03*
X108680000Y-79460700D03*
X108280000Y-79460700D03*
X107880000Y-79460700D03*
X107480000Y-79460700D03*
X107080000Y-79460700D03*
X106680000Y-79460700D03*
X106280000Y-79460700D03*
X105880000Y-79460700D03*
X105480000Y-79460700D03*
X105080000Y-79460700D03*
X104680000Y-79460700D03*
X104280000Y-79460700D03*
X103880000Y-79460700D03*
D24*
X103042500Y-80298200D03*
X103042500Y-80698200D03*
X103042500Y-81098200D03*
X103042500Y-81498200D03*
X103042500Y-81898200D03*
X103042500Y-82298200D03*
X103042500Y-82698200D03*
X103042500Y-83098200D03*
X103042500Y-83498200D03*
X103042500Y-83898200D03*
X103042500Y-84298200D03*
X103042500Y-84698200D03*
X103042500Y-85098200D03*
X103042500Y-85498200D03*
D23*
X103880000Y-86335700D03*
X104280000Y-86335700D03*
X104680000Y-86335700D03*
X105080000Y-86335700D03*
X105480000Y-86335700D03*
X105880000Y-86335700D03*
X106280000Y-86335700D03*
X106680000Y-86335700D03*
X107080000Y-86335700D03*
X107480000Y-86335700D03*
X107880000Y-86335700D03*
X108280000Y-86335700D03*
X108680000Y-86335700D03*
X109080000Y-86335700D03*
D24*
X109917500Y-85498200D03*
X109917500Y-85098200D03*
X109917500Y-84698200D03*
X109917500Y-84298200D03*
X109917500Y-83898200D03*
X109917500Y-83498200D03*
X109917500Y-83098200D03*
X109917500Y-82698200D03*
X109917500Y-82298200D03*
X109917500Y-81898200D03*
X109917500Y-81498200D03*
X109917500Y-81098200D03*
X109917500Y-80698200D03*
X109917500Y-80298200D03*
D25*
X105680000Y-82098200D03*
X105680000Y-83698200D03*
X107280000Y-82098200D03*
X107280000Y-83698200D03*
%TD*%
D26*
%TO.C,C2*%
X107016217Y-77339483D03*
X107818783Y-76536917D03*
%TD*%
D11*
%TO.C,D2*%
X138173000Y-68405000D03*
X138173000Y-66355000D03*
%TD*%
%TO.C,D6*%
X138173000Y-87455000D03*
X138173000Y-85405000D03*
%TD*%
D27*
%TO.C,C6*%
X111987434Y-84560634D03*
X112790000Y-85363200D03*
%TD*%
D12*
%TO.C,C11*%
X101380000Y-77363200D03*
X101380000Y-76228200D03*
%TD*%
D19*
%TO.C,C13*%
X98590000Y-66063200D03*
X97455000Y-66063200D03*
%TD*%
D13*
%TO.C,R1*%
X105810000Y-73013200D03*
X105810000Y-74208200D03*
%TD*%
D28*
%TO.C,C12*%
X103550000Y-69610700D03*
X103550000Y-70745700D03*
%TD*%
D12*
%TO.C,C14*%
X107107500Y-72735700D03*
X107107500Y-71600700D03*
%TD*%
D11*
%TO.C,D12*%
X119123000Y-125555000D03*
X119123000Y-123505000D03*
%TD*%
%TO.C,D16*%
X157223000Y-144605000D03*
X157223000Y-142555000D03*
%TD*%
D22*
%TO.C,C3*%
X105056283Y-88081917D03*
X104253717Y-88884483D03*
%TD*%
D11*
%TO.C,D1*%
X119123000Y-68405000D03*
X119123000Y-66355000D03*
%TD*%
D26*
%TO.C,C5*%
X111338717Y-79614483D03*
X112141283Y-78811917D03*
%TD*%
D29*
%TO.C,U2*%
X97010000Y-67948200D03*
X99310000Y-67948200D03*
D30*
X99310000Y-74248200D03*
D29*
X101610000Y-67948200D03*
%TD*%
D26*
%TO.C,C10*%
X106328717Y-76604483D03*
X107131283Y-75801917D03*
%TD*%
D31*
%TO.C,Y1*%
X108097500Y-95588200D03*
X105897500Y-95588200D03*
X105897500Y-93888200D03*
X108097500Y-93888200D03*
%TD*%
D10*
%TO.C,SW15*%
X128648000Y-137980000D03*
X141575000Y-135440000D03*
%TD*%
M02*
